<svg xmlns="http://www.w3.org/2000/svg" viewBox="0 0 1000 600"><path fill="#ee2737" d="M0 0h1000v600H0Z"/><path fill="#fedd00" fill-rule="evenodd" d="m525.91 183.26 3.374-65.03a.578.578 0 0 0-1.142-.158l-16.674 62.678a7.347 7.347 0 1 0 14.443 2.51m17.95 5.487 13.57-63.688a.579.579 0 0 0-1.103-.337l-26.333 59.27a7.348 7.348 0 1 0 13.867 4.754m16.863 8.246 23.425-60.757a.578.578 0 0 0-1.035-.505l-35.337 54.385a7.347 7.347 0 1 0 12.947 6.877m15.357 10.78 32.643-56.342a.578.578 0 0 0-.945-.662l-43.41 48.186a7.347 7.347 0 1 0 11.712 8.818m13.486 13.037 41.014-50.576a.576.576 0 0 0-.04-.775.577.577 0 0 0-.79-.027l-50.38 40.844a7.345 7.345 0 0 0-.462 10.815 7.343 7.343 0 0 0 10.658-.281m11.294 14.974 48.387-43.577a.577.577 0 0 0-.695-.92l-56.125 32.506a7.348 7.348 0 1 0 8.433 11.99m8.82 16.563 54.606-35.47a.577.577 0 0 0-.543-1.017l-60.517 23.325a7.347 7.347 0 1 0 6.453 13.162m6.105 17.75 59.51-26.431a.58.58 0 0 0-.376-1.09l-63.434 13.506q-.313.074-.606.17a7.347 7.347 0 1 0 4.906 13.845m3.233 18.49 62.93-16.732a.577.577 0 0 0 .423-.649.58.58 0 0 0-.624-.488l-64.77 3.353a7.347 7.347 0 1 0 2.04 14.517m.314 18.75 64.763-6.76a.578.578 0 0 0-.02-1.152l-64.506-6.744a7.35 7.35 0 0 0-7.975 7.321 7.347 7.347 0 0 0 7.738 7.335m-2.591 18.575 65.028 3.374a.577.577 0 0 0 .603-.488.58.58 0 0 0-.444-.655l-62.677-16.675a7.348 7.348 0 1 0-2.51 14.444m-5.487 17.95 63.687 13.57a.577.577 0 0 0 .336-1.102l-59.27-26.335a7.348 7.348 0 1 0-4.753 13.867m-8.245 16.864 60.756 23.425a.58.58 0 0 0 .505-1.036l-54.385-35.336a7.347 7.347 0 1 0-6.877 12.947m-10.78 15.357 56.343 32.642a.578.578 0 0 0 .662-.943l-48.188-43.41a7.347 7.347 0 1 0-8.817 11.71m-13.036 13.487 50.576 41.015a.577.577 0 0 0 .774-.04.576.576 0 0 0 .027-.79l-40.844-50.381a7.346 7.346 0 0 0-10.815-.461 7.345 7.345 0 0 0 .282 10.657m-14.975 11.295 43.577 48.385a.577.577 0 0 0 .92-.694l-32.506-56.125a7.347 7.347 0 1 0-11.991 8.434m-16.561 8.818 35.47 54.608a.579.579 0 0 0 1.017-.543l-23.325-60.518a7.35 7.35 0 0 0-10.146-3.774 7.35 7.35 0 0 0-3.016 10.227m-17.75 6.105 26.43 59.511a.58.58 0 0 0 1.09-.376l-13.506-63.435a7.348 7.348 0 1 0-14.145 3.932q.063.192.13.368m-18.49 3.233 16.733 62.929a.579.579 0 0 0 1.135-.2l-3.352-64.77a7.346 7.346 0 0 0-8.47-6.741 7.347 7.347 0 0 0-6.046 8.782m-18.752.313 6.761 64.763a.578.578 0 0 0 1.153-.02l6.743-64.505a7.347 7.347 0 1 0-14.658-.237zm-18.573-2.592-3.374 65.03a.578.578 0 0 0 1.142.159l16.674-62.678a7.346 7.346 0 0 0-5.993-9.014 7.345 7.345 0 0 0-8.45 6.503m-17.95-5.486-13.57 63.688a.577.577 0 0 0 1.103.336l26.334-59.27a7.35 7.35 0 0 0-4.5-9.847 7.35 7.35 0 0 0-9.367 5.093m-16.863-8.246-23.426 60.758a.576.576 0 0 0 .277.724c.273.14.605.042.759-.22l35.336-54.384a7.347 7.347 0 1 0-12.946-6.878m-15.358-10.78-32.642 56.343a.578.578 0 0 0 .944.662l43.41-48.187q.21-.244.39-.493a7.347 7.347 0 1 0-12.101-8.325m-13.487-13.036-41.014 50.577a.575.575 0 0 0 .04.773.577.577 0 0 0 .79.028l50.38-40.844a7.346 7.346 0 0 0 .462-10.816 7.346 7.346 0 0 0-10.658.282m-11.294-14.975-48.387 43.576a.578.578 0 0 0 .695.92l56.125-32.504a7.348 7.348 0 1 0-8.433-11.992m-8.82-16.561-54.606 35.47a.577.577 0 0 0 .543 1.017l60.517-23.325a7.347 7.347 0 1 0-6.453-13.162m-6.105-17.75-59.51 26.43a.58.58 0 0 0 .376 1.09l63.434-13.506q.314-.074.606-.169a7.348 7.348 0 1 0-4.906-13.846m-3.233-18.49-62.93 16.733a.578.578 0 0 0 .2 1.135l64.77-3.351a7.347 7.347 0 0 0 6.741-8.47 7.35 7.35 0 0 0-8.78-6.046m-.314-18.752-64.763 6.76a.578.578 0 0 0 .02 1.154l64.506 6.742a7.347 7.347 0 1 0 .238-14.657zm2.591-18.575-65.028-3.373a.577.577 0 0 0-.159 1.142l62.677 16.675q.313.076.616.124a7.347 7.347 0 1 0 1.894-14.568m5.487-17.95-63.687-13.57a.577.577 0 0 0-.336 1.102l59.27 26.335a7.347 7.347 0 1 0 4.753-13.867m8.246-16.863-60.757-23.426a.578.578 0 0 0-.505 1.036l54.385 35.336a7.346 7.346 0 1 0 6.877-12.946m10.78-15.357-56.343-32.643a.576.576 0 0 0-.76.16.576.576 0 0 0 .099.784l48.187 43.41a7.347 7.347 0 1 0 8.817-11.71m13.036-13.488-50.576-41.014a.578.578 0 0 0-.8.83l40.843 50.38a7.343 7.343 0 0 0 10.815.462 7.346 7.346 0 0 0-.282-10.658m14.975-11.294-43.577-48.387a.578.578 0 0 0-.92.696l32.506 56.124a7.348 7.348 0 1 0 11.991-8.433m16.562-8.819-35.47-54.607a.578.578 0 0 0-1.018.543l23.325 60.518a7.345 7.345 0 0 0 10.146 3.774 7.345 7.345 0 0 0 3.017-10.228m17.75-6.104-26.431-59.51a.577.577 0 0 0-1.09.374l13.506 63.435a7.347 7.347 0 1 0 14.014-4.3m18.492-3.233-16.734-62.93a.578.578 0 0 0-1.135.201l3.352 64.77a7.347 7.347 0 1 0 14.517-2.04m18.75-.313-6.76-64.765a.578.578 0 0 0-1.153.021l-6.743 64.507a7.347 7.347 0 1 0 14.658.237zM500 188.458c61.602 0 111.542 49.94 111.542 111.543 0 61.602-49.94 111.543-111.542 111.543S388.458 361.603 388.458 300c0-61.604 49.94-111.543 111.542-111.543m0 13.371c54.218 0 98.17 43.953 98.17 98.172s-43.952 98.171-98.17 98.171-98.171-43.953-98.171-98.17c0-54.22 43.952-98.173 98.17-98.173m-81.97 127.636c10.036-20.993 23.908-39.543 39.948-55.147a210 210 0 0 1 7.447 5.122c-16.843 16.102-31.524 36.026-42.598 60.439a87 87 0 0 1-4.797-10.414m88.896-50.67q3.415 2.862 6.73 5.913 3.534-2.898 7.16-5.6a206 206 0 0 0-6.715-5.822 209 209 0 0 0-7.175 5.508m-14.264-10.886a201 201 0 0 1 7.339 5.344 201 201 0 0 1 7.339-5.344 209 209 0 0 0-7.34-5.355 209 209 0 0 0-7.338 5.355m.658 22.803a190 190 0 0 1 6.68 6.329 191 191 0 0 1 6.682-6.33A206 206 0 0 0 500 284.6c-2.264 1.98-4.49 4.02-6.681 6.11m-14.135-11.603a194 194 0 0 1 7.162 5.601 193 193 0 0 1 6.73-5.913 209 209 0 0 0-7.176-5.509 208 208 0 0 0-6.716 5.821m43.916-21.112a211 211 0 0 0-7.378-5.383 206 206 0 0 0-8.422 5.08 204 204 0 0 1 7.542 5.25q4.09-2.58 8.258-4.947m12.994 10.775a210 210 0 0 0-6.646-5.734 208 208 0 0 0-7.897 5.028q3.45 2.75 6.803 5.687a207 207 0 0 1 7.74-4.981m-44.939-20.749A207 207 0 0 1 500 242.67a207 207 0 0 1 8.846 5.352 212 212 0 0 0-8.846 5.054 213 213 0 0 0-8.845-5.054m-14.254 9.974q3.646-2.783 7.377-5.383 4.246 2.424 8.423 5.08a202 202 0 0 0-7.543 5.25 209 209 0 0 0-8.257-4.947m-12.995 10.775a210 210 0 0 1 6.645-5.734 208 208 0 0 1 7.898 5.028 193 193 0 0 0-6.802 5.687 207 207 0 0 0-7.741-4.981M422.95 255.94c9.08 3.639 18.135 8.107 26.975 13.346-13.609 12.97-25.812 28.431-35.854 46.73a88 88 0 0 1-1.849-17.995c0-15.249 3.889-29.588 10.728-42.08m7.461-11.42c10.703 3.46 21.474 8.107 32.014 13.844A193 193 0 0 0 455.71 264c-9.624-5.316-19.511-9.809-29.484-13.557a88 88 0 0 1 4.185-5.921m9.359-10.351c12.1 3.173 24.4 7.914 36.452 14.083a204 204 0 0 0-7.543 5.297c-11.15-5.71-22.603-10.357-34.084-14.067a89 89 0 0 1 5.175-5.313m13.65-10.559q.387.142.816.287l.964.247c12.322 3.207 24.854 8.042 37.126 14.358a211 211 0 0 0-9.263 5.364c-11.875-5.783-24.048-10.397-36.203-13.98-.105-.03-.782-.264-1.545-.53a88 88 0 0 1 8.106-5.746m85.676-4.198c-.473.151-.817.265-.92.305-12.821 3.736-25.672 8.61-38.177 14.798-12.267-6.07-24.868-10.877-37.448-14.585l-.729-.213a11 11 0 0 1-.947-.291c11.781-5.877 25.065-9.188 39.125-9.188 14.048 0 27.324 3.304 39.096 9.174m15.67 10.012a17 17 0 0 1-.882.245c-12.402 3.611-24.83 8.295-36.948 14.197a211 211 0 0 0-9.263-5.364c12.591-6.48 25.459-11.403 38.09-14.605.31-.05.623-.124.93-.216a88 88 0 0 1 8.074 5.743m10.637 10.058c-11.481 3.71-22.933 8.357-34.085 14.067q-3.727-2.746-7.542-5.297c12.053-6.17 24.352-10.91 36.452-14.083a89 89 0 0 1 5.175 5.313m8.37 10.959c-9.973 3.748-19.86 8.24-29.484 13.557a194 194 0 0 0-6.715-5.635c10.538-5.737 21.311-10.384 32.013-13.843a87 87 0 0 1 4.185 5.92m12.154 65.574c-10.04-18.298-22.244-33.76-35.853-46.73 8.84-5.239 17.894-9.707 26.974-13.346 6.838 12.495 10.73 26.832 10.73 42.08 0 6.168-.64 12.188-1.851 17.996m-8.754 23.862c-11.075-24.413-25.755-44.337-42.598-60.439a213 213 0 0 1 7.445-5.122c16.042 15.604 29.914 34.154 39.952 55.147a87 87 0 0 1-4.8 10.414m-13.672 18.744c-10.692-27.562-25.76-49.868-43.434-67.73a209 209 0 0 1 7.06-5.832c18.293 17.989 33.7 39.836 43.72 64.784a88 88 0 0 1-7.346 8.778m-16.569 13.586-1.168-3.136c-9.694-26.183-23.29-47.726-39.322-65.306a208 208 0 0 1 6.691-6.614c18.358 19.162 33.443 42.357 42.517 68.752a88 88 0 0 1-8.718 6.304m-84.93 4.963 1.122-3.508c8.088-23.754 21.041-44.925 36.876-62.913 15.834 17.988 28.789 39.16 36.875 62.913l1.15 3.495c-11.504 5.538-24.402 8.641-38.024 8.641-13.612 0-26.502-3.098-37.999-8.628m-17.651-11.267c9.074-26.395 24.158-49.59 42.516-68.752a208 208 0 0 1 6.69 6.614c-16.032 17.58-29.627 39.123-39.321 65.306l-1.164 3.138a88 88 0 0 1-8.721-6.306m-15.198-16.06c10.021-24.948 25.427-46.795 43.72-64.784a211 211 0 0 1 7.06 5.831c-17.673 17.863-32.74 40.17-43.435 67.731a88 88 0 0 1-7.345-8.778"/></svg>