<svg xmlns="http://www.w3.org/2000/svg" xmlns:xlink="http://www.w3.org/1999/xlink" viewBox="0 0 120 60"><clipPath id="b"><path d="M0 0v15h70v15H60zm0 30v10h30V0h30z"/></clipPath><clipPath id="a"><path d="M0 0h65v35H0z"/></clipPath><path fill="#00205b" d="M0 0h120v60H0z"/><g stroke="#c8102e" stroke-width="6"><path stroke="#fff" d="m0 0 60 30m0-30L0 30" clip-path="url(#a)"/><path stroke-width="4" d="m0 0 60 30m0-30L0 30" clip-path="url(#b)"/><path stroke="#fff" stroke-width="10" d="M30 0v40M0 15h70"/><path d="M30 0v40M0 15h70"/></g><path fill="#ffcd00" d="M60 0h60v60H0V30h60z"/><g transform="translate(30 15)"><g transform="scale(5.1039)"><circle r="1" fill="#00205b"/><path id="c" fill="#ffcd00" d="M0-1 .588.809-.952-.309H.952L-.588.809"/></g><use xlink:href="#c" transform="matrix(3 0 0 3 -17.5 .29)"/><use xlink:href="#c" transform="matrix(3 0 0 3 17.5 .29)"/><use xlink:href="#c" transform="matrix(3 0 0 3 0 10.29)"/><use xlink:href="#c" transform="matrix(3 0 0 3 0 -9.71)"/></g></svg>