<svg xmlns="http://www.w3.org/2000/svg" xmlns:xlink="http://www.w3.org/1999/xlink" viewBox="0 0 180 120"><defs><g id="d" transform="translate(0 -36)"><g id="c"><g id="b"><path id="a" fill="#fff" d="M0-5v5h3z" transform="rotate(18 0 -5)"/><use xlink:href="#a" transform="scale(-1 1)"/></g><use xlink:href="#b" transform="rotate(72)"/></g><use xlink:href="#b" transform="rotate(-72)"/><use xlink:href="#c" transform="rotate(144)"/></g></defs><path fill="#c8102e" d="M0 0h180v120H0Z"/><path fill="#0032a0" d="M0 80h180V0H0Z"/><path fill="#ffcd00" d="M0 0h180v40H0Z"/><g transform="translate(0 .242)"><use xlink:href="#d" transform="rotate(-70 105.506 -23.474)scale(1.0384)"/><use xlink:href="#d" transform="rotate(-45.934 147.37 -62.402)scale(1.0384)"/><use xlink:href="#d" transform="rotate(-30 205.59 -127.04)scale(1.0384)"/><use xlink:href="#d" transform="rotate(-10 537.697 -472.59)scale(1.0384)"/><g transform="matrix(-1 0 0 1 180.051 0)"><use xlink:href="#d" transform="rotate(-70 105.506 -23.474)scale(1.0384)"/><use xlink:href="#d" transform="rotate(-45.934 147.37 -62.402)scale(1.0384)"/><use xlink:href="#d" transform="rotate(-30 205.59 -127.04)scale(1.0384)"/><use xlink:href="#d" transform="rotate(-10 537.697 -472.59)scale(1.0384)"/></g></g></svg>