<svg xmlns="http://www.w3.org/2000/svg" xmlns:xlink="http://www.w3.org/1999/xlink" width="1280" height="640" viewBox="0 0 10080 5040"><defs><clipPath id="a"><path d="M0 0h5040v2520H0z"/></clipPath><clipPath id="b"><path d="M0 0v1260h5040v1260zm5040 0H2520v2520H0z"/></clipPath><path id="c" d="m0-360 69.421 215.845 212.038-80.301L155.99-35.603l194.985 115.71-225.881 19.651 31.105 224.59L0 160l-156.198 164.349 31.105-224.59-225.881-19.651 194.986-115.711-125.471-188.853 212.038 80.301z"/><path id="d" d="M0-210 54.86-75.508l144.862 10.614L88.765 28.842l34.67 141.052L0 93.334l-123.435 76.56 34.67-141.052-110.957-93.736L-54.86-75.508z"/></defs><path fill="#00205b" d="M0 0h10080v5040H0z"/><path stroke="#fff" stroke-width="504" d="m0 0 5040 2520m0-2520L0 2520" clip-path="url(#a)"/><path stroke="#c8102e" stroke-width="336" d="m0 0 5040 2520m0-2520L0 2520" clip-path="url(#b)"/><path stroke="#fff" stroke-width="840" d="M2520 0v2520M0 1260h5040"/><path stroke="#c8102e" stroke-width="504" d="M2520 0v2520M0 1260h5040"/><g fill="#fff"><use xlink:href="#c" transform="matrix(2.1 0 0 2.1 2520 3780)"/><use xlink:href="#c" x="7560" y="4200"/><use xlink:href="#c" x="6300" y="2205"/><use xlink:href="#c" x="7560" y="840"/><use xlink:href="#c" x="8680" y="1869"/><use xlink:href="#d" x="8064" y="2730"/></g></svg>