<svg xmlns="http://www.w3.org/2000/svg" width="1000" height="600"><path fill="#c8102e" d="M0 0h1000v600H0z"/><path fill="#001489" d="M0 0h1000v300H0z"/><path fill="#fff" d="M324.39 156.525h351.22v286.434H324.39Z"/><path fill="#007a33" d="M499.283 359.68v.156c-7.552.798-88.656 9.68-110.696 26.132-23.11 17.252-64.197 35.326-64.197 35.326v22.181h351.22v-22.181s-41.085-18.074-64.196-35.326c-22.04-16.452-103.144-25.334-110.696-26.132v-.156s-.624.069-.718.078l-.717-.078z"/><g stroke="#000"><path fill="#fff" stroke-width=".473" d="M440.612 410.49c-.97-2.456-8.93-2.267-15.14-.378-6.213 1.89-9.707 1.323-23.1 1.512-13.395.189-20.965 3.212-22.13 3.59-1.165.378-21.353 10.015-29.117 12.472-7.765 2.456-15.141 0-15.141 0s8.93 8.503 21.547 1.7c0 0-10.483 5.67-17.277 6.425 0 0 10.139 2.07 18.709-1.535a20.8 20.8 0 0 0 2.256-1.11c5.365-2.595 10.145-4.608 14.462-6.17 24.56-8.893 34.114-3.23 50.955-7.436"/><path fill="#fff" stroke-width=".492" d="M440.568 410.128c-1.152 2.172-7.756.954-12.002 2.3 1.024.874 3.938 2.413 12.135 3.938 1.358-4.965-.133-6.238-.133-6.238z"/><path fill="none" stroke-width=".473" d="M374.741 426.54c-7.888 2.595-11.698 4.985-16.014 6.548m15.044-7.986c-6.846 2.367-10.776 4.639-14.976 6.214m14.006-7.652c-5.804 2.14-9.855 4.292-13.937 5.88m12.966-7.318c-4.76 1.912-8.933 3.946-12.898 5.546m11.928-6.983c-3.718 1.684-8.011 3.598-11.86 5.21"/><path fill="none" stroke-width=".418" d="M383.989 422.736s11.048-3.247 19.595-2.233m-18.344.203s10.37-2.84 19.49-2.08m-18.24.051s9.694-2.435 19.387-1.928m-18.136-.101s9.016-2.03 19.283-1.776m-18.032-.253s8.338-1.624 19.178-1.624"/><path fill="none" stroke-width=".473" d="M418.385 412.792s4.984-1.183 9.996-1.888c4.27-.601 8.56-.855 9.807.265m-20.742 3.348s5.823-.634 10.52-1.772m-11.458 3.497s6.662-.084 11.044-1.655m-11.982 3.38s7.5.465 11.568-1.538m-12.512 3.098s8.347.906 12.103-1.268"/></g><g stroke="#000"><path fill="#ffd100" stroke-width=".513" d="m458.197 268.283 12.07 24.84 2.759-1.342 21.552 39.61.172-6.713-20.442-35.025.958-.725-1.378-1.511-.669.371-.022-.036s-1.378-.167-1.55.336z"/><path fill="#fff" stroke-width=".237" d="m458.197 268.283 12.07 24.84 2.759-1.342-1.454-3.803zm24.45 35.659c-.701.246-1.745.65-2.422 1.07l2.976 5.47c.493-.356 1.446-.96 2.41-1.078a.335.335 0 0 0 .18-.075z"/><path fill="none" stroke-width=".418" d="m473.888 287.417-.623.346 1.064 1.874.937-.71z"/><path fill="none" stroke-width=".513" d="m458.197 268.283 12.07 24.84 2.759-1.342 21.552 39.61.172-6.713-20.442-35.025.958-.725-1.378-1.511-.669.371-.022-.036s-1.378-.167-1.55.336z"/><path fill="#ffd100" stroke-width=".513" d="m466.068 258.905 9.465 25.888 2.882-1.068 17.387 41.505.86-6.663-16.753-36.834 1.028-.63-1.217-1.637-.703.305-.018-.038s-1.355-.3-1.578.184z"/><path fill="#fff" stroke-width=".237" d="m466.068 258.905 9.465 25.888 2.882-1.068-1.057-3.925zm18.039 32.058c-.833.223-1.578.734-2.15 1.216l2.29 5.467c.688-.413 1.592-.786 2.408-1.082z"/><path fill="none" stroke-width=".418" d="m479.72 279.466-.655.284.867 1.969 1.005-.615z"/><path fill="none" stroke-width=".513" d="m466.068 258.905 9.465 25.888 2.882-1.068 17.387 41.505.86-6.663-16.753-36.834 1.028-.63-1.217-1.637-.703.305-.018-.038s-1.355-.3-1.578.184z"/><path fill="#ffd100" stroke-width=".513" d="m476.36 255.747 7.515 26.488 2.954-.862 14.254 42.622 1.353-6.585-13.969-37.919 1.073-.555-1.092-1.719-.725.255-.015-.04s-1.329-.394-1.587.073z"/><path fill="#fff" stroke-width=".237" d="m476.36 255.747 7.515 26.488 2.954-.862-.762-3.989zm15.608 33.246c-.848.163-1.63.62-2.235 1.061l1.878 5.614c.716-.363 1.645-.672 2.481-.91z"/><path fill="none" stroke-width=".418" d="m488.448 277.217-.675.237.718 2.025 1.049-.543z"/><path fill="none" stroke-width=".513" d="m476.36 255.747 7.515 26.488 2.954-.862 14.254 42.622 1.353-6.585-13.969-37.919 1.073-.555-1.092-1.719-.725.255-.015-.04s-1.329-.394-1.587.073z"/></g><path fill="#c8102e" d="m452.37 344.19 2.547 24.527 32.03-2.08z"/><path fill="#001489" d="M390.856 317.128s2.33 39.117 14.56 58.77l49.89-7.181-1.36-23.81-63.09-41.762z"/><path fill="#001489" stroke="#000" stroke-width=".418" d="M437.56 257.055c2.98 1.275 5.665.255 5.665.255s1.31 1.658-2.226 1.849c0 0-1.408.128-.459 1.658"/><path fill="#c8102e" stroke="#000" stroke-width=".473" d="M433.369 254.09s5.337-4.239 8.71-3.984c3.373.255 3.537.192 3.831.765.295.574.885 3.22-.622 5.164-1.506 1.945-2.128 1.466-2.39 1.052-.262-.414-2.39-1.626-6.418-.733"/><path fill="#001489" stroke="#000" stroke-width=".237" d="M441.757 250.095c.11 0 .217.002.322.01 3.373.256 3.537.192 3.832.766.203.395.544 1.772.247 3.226-.504-.47-1.541-.916-3.686-.803-4.257.223-6.746 1.913-6.746 1.913l-.42.293-1.937-1.41s5.009-3.978 8.388-3.995z"/><path fill="#c8102e" d="m495.628 351.43-38.179-33.865c-8.52 3.642-7.864 10.26-1.962 18.582l-.179 8.336 31.222 21.188 8.563-2.084.357-7.642zm-1.164-21.808-23.397-29.347-5.918 12.783 1.85 12.063 27.928 25.566z"/><path fill="#001489" d="M470.975 300.815s-4.716 10.532-3.977 24.126l-28.483-25.837-13.594-11.973.278.18 1.757-8.281.832-4.682 2.22.54v-2.7l.37-2.34 1.941-3.692 1.572-3.96.37-3.331-.74-3.961 1.018.45z"/><path fill="#001489" stroke="#000" stroke-width=".418" d="M386.635 302.795s-2.774 2.7-3.144 8.822c-.37 6.122-.277 10.353-.277 10.353s4.531 2.61 8.785 1.53c0 0-.74-1.8-.832-4.32-.093-2.521.092-15.575.092-15.575z"/><path fill="#c8102e" stroke="#000" stroke-width=".237" d="m389.224 303.605 2.034.132c-.004.247-.183 12.946-.091 15.442.092 2.52.832 4.321.832 4.321-1.556.395-3.147.294-4.542.01-.034-.49-.541-7.972-.452-11.892.093-4.05 2.22-8.013 2.22-8.013z"/><path fill="#ffd100" d="M353.238 414.243c-.85-2.154-3.15-2.652-3.15-2.652s-.17-.165.511-1.74c.682-1.574.341-2.734.341-2.734-.255-8.37.596-10.607.596-10.607-.596 0-3.32 3.148-3.32 3.148.085-7.955 12.173-11.684 12.173-11.684-4.426 10.939-2.724 12.182-2.724 12.182-2.81-1.16-3.15-2.984-3.15-2.984-.51 2.984-.085 8.784-.085 8.784s-.17 2.735 2.469 1.41c2.639-1.327 13.28-6.299 13.28-6.299l1.107 2.155-14.642 6.63s-2.129.91-1.533 2.485c.596 1.575.937 1.823.937 1.823z"/><path fill="none" stroke="#000" stroke-width=".473" d="M354.43 405.956s-.425-5.8.085-8.784c0 0 .34 1.824 3.15 2.984 0 0-1.702-1.243 2.724-12.182 0 0-12.088 3.73-12.173 11.685 0 0 2.724-3.15 3.32-3.15 0 0-.851 2.238-.596 10.608"/><path fill="none" stroke="#000" stroke-width=".237" d="M353.238 414.243c-.85-2.154-3.15-2.652-3.15-2.652s-.17-.165.511-1.74c.682-1.574.341-2.734.341-2.734-.255-8.37.596-10.607.596-10.607-.596 0-3.32 3.148-3.32 3.148.085-7.955 12.173-11.684 12.173-11.684-4.426 10.939-2.724 12.182-2.724 12.182-2.81-1.16-3.15-2.984-3.15-2.984-.51 2.984-.085 8.784-.085 8.784s-.17 2.735 2.469 1.41c2.639-1.327 13.28-6.299 13.28-6.299l1.107 2.155-14.642 6.63s-2.129.91-1.533 2.485c.596 1.575.937 1.823.937 1.823"/><path fill="#ffd100" stroke="#000" stroke-width=".237" d="M375.543 398.147c.335 0 1.006.074 1.562.5.278.212.516.534.587.948.072.413-.016.897-.293 1.46-.576 1.167-1.723 1.595-2.662 1.718a5.94 5.94 0 0 1-1.734-.037l.141-.687s.694.133 1.5.027c.805-.105 1.659-.421 2.105-1.326.233-.473.274-.808.234-1.04a.773.773 0 0 0-.322-.51c-.338-.26-.942-.35-1.118-.35-.295 0-.55-.046-1.03.188-.481.234-1.169.774-2.084 1.99l-.581-.417c.957-1.27 1.717-1.894 2.343-2.199.626-.305 1.137-.265 1.352-.265z"/><path fill="#ffd100" stroke="#000" stroke-width=".237" d="M374.435 405.625s-.34-5.47-3.915-7.375c0 0-.852.083-.937.746-.085.662 3.32 6.463 3.32 6.463z"/><path fill="#ffd100" stroke="#000" stroke-width=".197" d="M374.031 405.01s-.283-4.556-3.262-6.144c0 0-.71.069-.78.621-.072.553 2.766 5.386 2.766 5.386z"/><ellipse cx="406.79" cy="391.662" fill="#ffd100" stroke="#000" stroke-width=".237" rx="3.824" ry="3.723"/><path fill="#c8102e" d="M357.645 352.92s-6.444.361-6.37 3.462c.074 3.101 1.037 6.13-1.111 6.707-2.149.576-6.593.576-7.705 1.73-1.11 1.154-1.11 2.452-1.11 2.452s5.555-1.947 8-.577c2.444 1.37 5.003-.792 5.407-1.514.89-1.587.37-4.687 2.075-5.264 1.703-.577 7.111-.65 7.111-.65z"/><path fill="#001489" d="M404.414 310.24c-1.008-16.919 2.015-36.78 2.015-36.78l.252-2.942 52.14 48.549s-3.532 5.159-3.01 25.743l-4.042-2.694z"/><path fill="none" stroke="#000" stroke-width=".418" d="M404.414 310.24c-1.008-16.919 2.015-36.78 2.015-36.78l.252-2.942"/><g fill="#ffd100" stroke="#000"><path stroke-width=".473" d="m418.362 233.626 6.98 15.845s2.03-2.007 3.673.075l1.638 2.075m-12.264-18.014 13.473 11.19s-2.571 1.292-1.016 3.437l1.55 2.138-1.743 1.25"/><path stroke-width=".473" d="m435.99 246.868-9.587 6.827 2.516 3.35 9.588-6.828z"/><path stroke-width=".237" d="m435.777 247.898-8.302 5.911 1.657 2.206 8.302-5.912z"/></g><g fill="#ffd100" stroke="#000"><path stroke-width=".473" d="m387.374 253.257 9.473 14.568s1.677-2.295 3.638-.493l1.955 1.796m-15.042-15.894 15.125 8.97s-2.329 1.672-.444 3.55l1.878 1.872-1.517 1.502"/><path stroke-width=".473" d="m406.935 263.612-8.354 8.22 3.03 2.918 8.354-8.22z"/><path stroke-width=".237" d="m406.893 264.661-7.235 7.118 1.996 1.922 7.234-7.118z"/></g><g fill="#ffd100" stroke="#000"><path stroke-width=".473" d="m367.206 286.389 11.897 12.772s1.248-2.54 3.498-1.093l2.242 1.444m-17.618-13.15 16.48 6.315s-2 2.035.188 3.57l2.18 1.532-1.23 1.733"/><path stroke-width=".473" d="m388.3 293.327-6.783 9.492 3.499 2.37 6.784-9.492z"/><path stroke-width=".237" d="m388.443 294.368-5.874 8.22 2.304 1.56 5.874-8.22z"/></g><path fill="#ffd100" stroke="#000" stroke-width=".473" d="m434.11 253.356 60.57 74.885-.392 1.162-61.121-75.326zm-26.154 18.304 87.576 79.08-.815.858-87.576-79.084zm-14.098 31.667 93.233 62.119-.677.964-93.234-62.119z"/><path fill="#001489" stroke="#000" stroke-width=".418" d="M403.841 272.702s8.79-1.637 10.93-.372c2.14 1.264-3.746 1.339-4.892.967l2.216 2.157s5.045-1.19 5.886-5.803c.84-4.613-2.523-4.613-3.287-4.538-.764.074-5.197.744-10.853 7.589z"/><path fill="#c8102e" stroke="#000" stroke-width=".237" d="M416.46 267.854c.965.28 1.693.941 1.444 2.169 0 0-.382 1.414-.764 2.158a.476.476 0 0 0-.118-.132 6.983 6.983 0 0 1-.968 1.173 10.44 10.44 0 0 0-.862-.275c.108-.163.005-.366-.422-.618-.237-.14-.559-.242-.938-.317-1.597-.597-3.984.021-4.488-.054l-2.675.149s7.963-4.78 9.79-4.253z"/><path fill="none" stroke="#000" stroke-width=".237" d="M407.357 271.809s9.795-2.852 9.795-.099"/><path fill="none" stroke="#000" stroke-width=".473" d="M403.841 272.702s8.79-1.637 10.93-.372c2.14 1.264-3.746 1.339-4.892.967l2.216 2.157s5.045-1.19 5.886-5.803c.84-4.613-2.523-4.613-3.287-4.538-.764.074-5.197.744-10.853 7.589z"/><path fill="#001489" stroke="#000" stroke-width=".237" d="M404.985 272.632c.229 1.074.482 2.485.352 3.118-2.862 7.118-6.754 7.272-5.228 15.92l-3.015-.082c-.326-4.012.325-7.813 1.084-9.503.38-.844 1.22-1.848 2.142-2.824.922-.977 1.926-1.928 2.631-2.667 1.41-1.478.434-3.378.434-3.378z"/><path fill="#c8102e" stroke="#000" stroke-width=".418" d="M406.856 271.949s.53 1.36.53 3.269c0 .954-.133 2.045-.53 3.171a29.9 29.9 0 0 0-1.013 3.478c-.554 2.471-.867 5.428-.94 9.933l-4.794-.13c-1.526-8.648 2.366-8.802 5.228-15.92.13-.633-.123-2.044-.352-3.118z"/><path fill="none" stroke="#000" stroke-width=".473" d="M403.385 273.216s.976 1.9-.434 3.379c-.705.739-1.708 1.689-2.63 2.666-.922.976-1.763 1.98-2.143 2.824-.759 1.69-1.41 5.491-1.084 9.503m0 0 7.81.212c.072-4.506.385-7.462.94-9.934.277-1.236.614-2.35 1.012-3.476a9.512 9.512 0 0 0 .53-3.172c0-1.908-.53-3.27-.53-3.27l-3.471 1.268"/><path fill="none" stroke="#000" stroke-width=".237" d="M402.409 291.694s-1.085-4.752 1.41-8.975c2.512-4.318 3.262-10.888 1.952-10.454"/><path fill="#ffd100" stroke="#000" stroke-width=".248" d="m411.14 360.667 6.746 11.49 26.655 1.931 2.519.33s3.893 8.934 8.216 10.124c4.322 1.19 33.236 9.968 33.236 9.968l.89-6.436-18.738-5.885s-5.497-1.968-7.132-4.054c-1.634-2.086-15.263-14.79-15.263-14.79z"/><g stroke="#000" stroke-width=".473"><path fill="#ffd100" d="m423.084 331.367 38.742 62.855-.822.48-38.741-62.854z"/><path fill="#fff" d="M423.865 333.906s-1.094 1.008-2.452-.605c-1.358-1.614-5.33-8.27-6.089-9.48-.76-1.21-1.738-2.218-.449-3.025 1.29-.807 3.097.202 4.581 3.227 1.485 3.025 6.366 8.27 4.409 9.883z"/></g><path fill="#ffd100" stroke="#000" stroke-width=".248" d="M389.58 342.539c-1.446-.19-3.917 2.565-4.578 7.353-.662 4.787-.025 8.82 1.421 9.01.53.065 1.12-.4 1.692-1.336l77.342 10.128 1.628-14.225-76.733-8.875c-.25-1.832-.045-1.956-.772-2.055z"/><path fill="none" stroke="#000" stroke-linecap="round" stroke-width=".208" d="M464.023 353.189s-.447.709-.63 1.167m-1.043-1.358s-.447.709-.63 1.167m-1.043-1.358s-.448.709-.63 1.167m-1.043-1.358s-.448.708-.63 1.166m-1.043-1.357s-.448.708-.63 1.166m-1.044-1.358s-.447.71-.63 1.167m-1.043-1.358s-.447.71-.63 1.167m-1.043-1.358s-.448.71-.63 1.167m-1.043-1.358s-.448.709-.63 1.167m-1.044-1.358s-.447.709-.63 1.167m-1.043-1.358s-.447.709-.63 1.167m-1.043-1.358s-.448.709-.63 1.167m-1.043-1.358s-.448.709-.63 1.167m-1.043-1.358s-.448.709-.63 1.167m-1.044-1.358s-.447.708-.63 1.166m-1.043-1.357s-.447.708-.63 1.166m-1.043-1.358s-.448.71-.63 1.167m-1.043-1.358s-.448.71-.63 1.167m-1.043-1.358s-.448.71-.63 1.167m-1.044-1.358s-.447.709-.63 1.167m-1.043-1.358s-.448.709-.63 1.167m-1.043-1.358s-.448.709-.63 1.167m-1.043-1.358s-.448.709-.63 1.167m-1.044-1.358s-.447.709-.63 1.167m-1.043-1.358s-.447.709-.63 1.167m-1.043-1.358s-.448.708-.63 1.166m-1.043-1.357s-.448.708-.63 1.166m-1.043-1.358s-.448.71-.63 1.167m-1.044-1.358s-.447.71-.63 1.167m-1.043-1.358s-.448.71-.63 1.167m-1.043-1.358s-.448.709-.63 1.167m-1.043-1.358s-.448.709-.63 1.167m-1.044-1.358s-.447.709-.63 1.167m-1.043-1.358s-.447.709-.63 1.167m-1.043-1.358s-.448.709-.63 1.167m-1.043-1.358s-.448.709-.63 1.167m-1.043-1.358s-.448.708-.63 1.166m-1.044-1.357s-.447.708-.63 1.166m-1.043-1.358s-.448.71-.63 1.167m-1.043-1.358s-.448.71-.63 1.167m-1.043-1.358s-.448.71-.63 1.167m-1.044-1.358s-.447.709-.63 1.167m-1.043-1.358s-.447.709-.63 1.167m-1.043-1.358s-.448.709-.63 1.167m-1.043-1.358s-.448.709-.63 1.167"/><path fill="none" stroke="#000" stroke-width=".439" d="m387.707 349.28 78.325 10.257m-78.562-8.544 78.326 10.257m-78.563-8.544 78.326 10.257m-78.444-9.4 78.325 10.257m-78.443-9.4 78.325 10.256m-78.444-9.4 78.326 10.257m-78.444-9.401 78.325 10.257m-78.444-9.4 78.326 10.257"/><path fill="#ffd100" stroke="#000" stroke-width=".248" d="M401.222 344.643a2.47 7.927 4.14 0 0-3.03 7.757 2.47 7.927 4.14 0 0 1.902 8.057 2.47 7.927 4.14 0 0 .775-.337 2.47 7.927 4.14 0 1-1.09-7.512 2.47 7.927 4.14 0 1 2.255-7.42 2.47 7.927 4.14 0 0-.812-.545zm54.775 7.172a2.47 7.927 4.14 0 0-3.03 7.757 2.47 7.927 4.14 0 0 1.902 8.057 2.47 7.927 4.14 0 0 .775-.336 2.47 7.927 4.14 0 1-1.09-7.513 2.47 7.927 4.14 0 1 2.255-7.42 2.47 7.927 4.14 0 0-.812-.545zm11.474 6.363 4.368-.286s2.681.897 2.848 2.011c.166 1.115.259 2.765.038 3.204-.221.44-5.314 1.333-7.102-.227z"/><path d="M474.686 359.902c-1.747.417-4.83.25-7.158.031l.095 2.946c1.788 1.56 6.881.668 7.102.228.221-.439.128-2.09-.038-3.204z"/><path fill="#ffd100" stroke="#000" stroke-width=".248" d="M466.66 353.082a1.715 7.666 3.856 0 0-.533.312 1.712 8.117 4.107 0 1 .283 6.833 1.712 8.117 4.107 0 1-1.515 7.243 1.715 7.666 3.856 0 0 .719.91 1.715 7.666 3.856 0 0 2.232-7.501 1.715 7.666 3.856 0 0-1.186-7.797z"/><path fill="#ffd100" stroke="#000" stroke-width=".237" d="M422.607 353.2v.051c.884.195 1.542.958 1.542 1.88v12.874l-9.352-9.103a1.885 1.885 0 0 1-.275-2.39l-.038-.037-4.051 3.944.015.015a2.011 2.011 0 0 1 2.634.137l9.508 9.256h-13.54c-.946 0-1.73-.64-1.93-1.5h-.053v5.576h.023c.11-.966.938-1.715 1.961-1.715h13.447l-9.572 9.318c-.67.652-1.69.74-2.457.268l-.037.037 4.052 3.944.016-.016a1.882 1.882 0 0 1 .14-2.563l9.509-9.256v13.18c0 .921-.658 1.685-1.542 1.88v.05h5.73v-.02c-.993-.108-1.763-.914-1.763-1.91v-13.394l9.73 9.471c.723.704.764 1.804.14 2.563l.016.016 4.052-3.944-.038-.037a2.017 2.017 0 0 1-2.456-.267l-9.572-9.319h13.445c1.024 0 1.851.749 1.962 1.715h.022v-5.577h-.053c-.2.861-.984 1.5-1.93 1.5h-13.538l9.508-9.255a2.011 2.011 0 0 1 2.633-.137l.016-.015-4.052-3.944-.037.036a1.885 1.885 0 0 1-.275 2.39l-9.573 9.32v-13.09c0-.997.77-1.802 1.763-1.91v-.021z"/><ellipse cx="425.361" cy="371.285" fill="#ffd100" stroke="#000" stroke-width=".237" rx="3.65" ry="3.553"/><path fill="#ffd100" stroke="#000" stroke-width=".237" d="M425.361 347.622a24.134 23.493 0 0 0-24.134 23.493 24.134 23.493 0 0 0 24.134 23.493 24.134 23.493 0 0 0 24.134-23.493 24.134 23.493 0 0 0-24.134-23.493zm0 5.977a17.993 17.515 0 0 1 17.993 17.516 17.993 17.515 0 0 1-17.993 17.515 17.993 17.515 0 0 1-17.993-17.515 17.993 17.515 0 0 1 17.993-17.516z"/><path d="M426.132 350.519a.77.75 0 0 1-.77.75.77.75 0 0 1-.771-.75.77.75 0 0 1 .77-.75.77.75 0 0 1 .771.75zm0 40.978a.77.75 0 0 1-.77.75.77.75 0 0 1-.771-.75.77.75 0 0 1 .77-.75.77.75 0 0 1 .771.75zm14.658-34.447a.77.75 0 0 1-1.09 0 .77.75 0 0 1 0-1.061.77.75 0 0 1 1.09 0 .77.75 0 0 1 0 1.06zm-29.766 28.976a.77.75 0 0 1-1.09 0 .77.75 0 0 1 0-1.061.77.75 0 0 1 1.09 0 .77.75 0 0 1 0 1.06zm-1.09-28.976a.77.75 0 0 0 1.09 0 .77.75 0 0 0 0-1.061.77.75 0 0 0-1.09 0 .77.75 0 0 0 0 1.06zm29.766 28.976a.77.75 0 0 0 1.09 0 .77.75 0 0 0 0-1.061.77.75 0 0 0-1.09 0 .77.75 0 0 0 0 1.06zm-35.386-14.269a.77.75 0 0 0 .771-.75.77.75 0 0 0-.77-.75.77.75 0 0 0-.772.75.77.75 0 0 0 .771.75zm42.096 0a.77.75 0 0 0 .771-.75.77.75 0 0 0-.77-.75.77.75 0 0 0-.772.75.77.75 0 0 0 .771.75zm-40.265 7.643a.77.75 0 0 0 .425-.978.77.75 0 0 0-1.004-.413.77.75 0 0 0-.425.977.77.75 0 0 0 1.004.414zm39.013-15.394a.77.75 0 0 0 .425-.978.77.75 0 0 0-1.004-.413.77.75 0 0 0-.425.977.77.75 0 0 0 1.004.414zm-.784 15.824a.75.77 90 0 1-.401-.987.75.77 90 0 1 1.013-.39.75.77 90 0 1 .402.986.75.77 90 0 1-1.014.391zm-38.636-16.268a.75.77 90 0 1-.402-.987.75.77 90 0 1 1.014-.391.75.77 90 0 1 .402.987.75.77 90 0 1-1.014.39zm28.583-11.11a.77.75 0 0 1-1.011.396.77.75 0 0 1-.407-.984.77.75 0 0 1 1.011-.396.77.75 0 0 1 .407.984zm-16.501 37.699a.77.75 0 0 1-1.011.396.77.75 0 0 1-.407-.984.77.75 0 0 1 1.011-.397.77.75 0 0 1 .407.985zm-1.417-37.699a.77.75 0 0 0 1.011.396.77.75 0 0 0 .407-.984.77.75 0 0 0-1.011-.396.77.75 0 0 0-.407.984zm16.501 37.698a.77.75 0 0 0 1.011.397.77.75 0 0 0 .407-.984.77.75 0 0 0-1.011-.397.77.75 0 0 0-.407.985z"/><ellipse cx="397.488" cy="391.662" fill="#ffd100" stroke="#000" stroke-width=".237" rx="3.824" ry="3.723"/><path fill="#fff" stroke="#000" stroke-width=".237" d="M491.438 342.314s-9.404 3.945-10.215-2.841c0 0-5.674 6.944 2.108 11.363 0 0-3.567-5.523 8.107-6.155 0 0 1.621.158 1.459-1.105-.162-1.262-1.46-1.262-1.46-1.262z"/><path d="M492.907 343.795c-1.331.114-4.37.441-9.09 1.36-2.095.408-3.56.155-4.59-.372-.013 2.008.915 4.243 4.104 6.054 0 0-3.567-5.525 8.107-6.156 0 0 1.426.139 1.47-.886z"/><path fill="#fff" stroke="#000" stroke-width=".237" d="m487.292 342.256-.79.116 3.243 21.15.79-.116z"/><path fill="#fff" stroke="#000" stroke-width=".237" d="m487.611 342.21-1.424.208.652 4.26 1.425-.207z"/><g stroke="#000" stroke-width=".237"><ellipse cx="469.238" cy="398.584" fill="#fff" rx="5.708" ry="2.617"/><path fill="#ffd100" d="M469.747 367.55c-.527-.026-1.037.06-1.177.368-.281.615.562.751.562.751v3.488c0 1.094-.913 17.572-1.335 20.786a11.712 11.712 0 0 1-.748 2.88s-4.028.47-3.817 2.248c.21 1.778 2.389 2.953 6.04 2.872 4.504-.1 5.76-1.026 5.971-2.12.21-1.094-1.053-2.12-2.95-2.461l-.983-5.47s.21.82 2.81.273c2.598-.547 2.528-4.376 2.528-4.376s.07-11.488-.07-13.607c-.14-2.12-1.335-3.145-3.02-3.76-1.335-.206-2.248.068-2.389.82-.14.752-.491.957-.702.684-.21-.274 0-2.325 0-2.325s.983-.478.562-.752c-.21-.137-.755-.274-1.282-.3zm3.389 3.923.913.479.28 2.46v12.446l-.14.82-1.194.957-1.334-.274-.702-.82-.492-11.145-.14-3.555 1.685-1.095z"/><path fill="none" d="M472.644 397.66s-1.545-3.828-1.896-13.88c-.352-10.05-.492-10.871 0-11.35.491-.479 1.896-1.3 2.74-.82.842.478.631.615.772 2.324.14 1.71.14 12.787.14 12.787s-.421 1.846-1.475 1.777c-1.054-.068-1.826-.478-1.967-1.23m-5.057 10.598s1.475-1.71 1.897-4.923c.421-3.214 1.334-19.692 1.334-20.787v-3.487"/></g><g fill="#fff" stroke="#000"><path stroke-width=".418" d="M448.922 385.922s5.157.148 6.825 3.248c1.669 3.1.759 6.054-1.213 7.235s-6.219 2.067-8.19.886c-1.972-1.181-3.337-5.02-1.062-5.463 2.275-.443 6.067-1.181 5.612-2.658-.455-1.476-2.427-1.476-2.427-1.476z"/><path stroke-width=".236" d="m449.617 385.251-.942-.147-.75 3.262.942.147z"/></g><path fill="#fff" stroke="#000" stroke-width=".473" d="m376.442 369.783 21.78 11.032-.116.215-1.531.269-20.688-10.483z"/><path fill="#fff" stroke="#000" stroke-width=".473" d="m375.8 370.302 12.272 21.152-1.99-1.059-11.329-19.52z"/><path d="M354.822 349.734a.6.584 0 0 1 .006 0 .6.584 0 0 1 .412.177l20.67 19.974a.6.584 0 1 1-.847.828l-20.319-19.636v-1.338a.6.584 0 0 1 .078-.005z"/><path fill="#fff" stroke="#000" stroke-width=".473" d="M372.545 366.897a.6.584 0 0 1 .411.176l20.523 19.831-1.796-.089-19.57-18.912a.6.584 0 0 1 .432-1.006z"/><ellipse cx="450.287" cy="406.574" fill="#ffd100" stroke="#000" stroke-width=".237" rx="3.824" ry="3.723"/><ellipse cx="441.169" cy="399.118" fill="#ffd100" stroke="#000" stroke-width=".237" rx="3.824" ry="3.723"/><ellipse cx="427.126" cy="400.005" fill="#ffd100" stroke="#000" stroke-width=".237" rx="3.824" ry="3.723"/><ellipse cx="416.455" cy="405.686" fill="#ffd100" stroke="#000" stroke-width=".237" rx="3.824" ry="3.723"/><ellipse cx="407.154" cy="405.686" fill="#ffd100" stroke="#000" stroke-width=".237" rx="3.824" ry="3.723"/><ellipse cx="397.852" cy="405.686" fill="#ffd100" stroke="#000" stroke-width=".237" rx="3.824" ry="3.723"/><ellipse cx="388.552" cy="405.686" fill="#ffd100" stroke="#000" stroke-width=".237" rx="3.824" ry="3.723"/><ellipse cx="411.713" cy="398.763" fill="#ffd100" stroke="#000" stroke-width=".237" rx="3.824" ry="3.723"/><ellipse cx="402.412" cy="398.763" fill="#ffd100" stroke="#000" stroke-width=".237" rx="3.824" ry="3.723"/><ellipse cx="393.112" cy="398.763" fill="#ffd100" stroke="#000" stroke-width=".237" rx="3.824" ry="3.723"/><path fill="#c8102e" stroke="#000" stroke-width=".473" d="M431.44 255.873s.3 2.922-2.25 4.675c-2.551 1.753-5.552 3.652-6.753 8.618-1.2 4.967-.3 4.383-.3 4.383l7.953 1.314s-.9-3.505 1.05-6.28c1.951-2.776 4.803-10.81 2.101-14.024z"/><path fill="#001489" stroke="#000" stroke-width=".237" d="M431.694 255.69c.474 1.128 1.303 3.814-.553 5.734-2.401 2.484-4.652 3.652-5.553 7.012-.539 2.011-.897 4.082-1.113 5.499l-2.338-.387s-.9.585.3-4.381c1.2-4.967 4.201-6.866 6.753-8.619 2.55-1.753 2.25-4.674 2.25-4.674z"/><path fill="none" stroke="#000" stroke-width=".237" d="M432.641 254.413s1.5 3.36-.15 6.72c-1.65 3.359-3.301 4.966-4.201 7.157-.9 2.191 0 4.236-1.051 5.843"/><path fill="#fff" stroke="#000" stroke-width=".237" d="M370.392 402.018a.32.311 0 1 1-.1.615s-5.434-.831-9.475 3.177a.32.311 0 1 1-.456-.435c4.273-4.238 10.03-3.357 10.03-3.357zm-9.481 5.979s.011.832-.687 1.63c-.698.798-2.082 1.565-4.739 1.645l-.019-.624c2.539-.076 3.71-.785 4.27-1.426.562-.641.535-1.21.535-1.21z"/><path fill="#ffd100" d="M353.238 414.243c-.85-2.154-3.15-2.652-3.15-2.652s-.17-.165.511-1.74c.682-1.574.341-2.734.341-2.734-.255-8.37.596-10.607.596-10.607-.596 0-3.32 3.148-3.32 3.148.085-7.955 12.173-11.684 12.173-11.684-4.426 10.939-2.724 12.182-2.724 12.182-2.81-1.16-3.15-2.984-3.15-2.984-.51 2.984-.085 8.784-.085 8.784s-.17 2.735 2.469 1.41c1.412-.71 8.255-3.941 8.255-3.941l.652 2.278-9.162 4.148s-2.129.912-1.533 2.486c.596 1.575.937 1.823.937 1.823z"/><path d="M368.897 401.944c-.109.199-.217.406-.33.63-.152.006-.311.016-.479.029.109-.224.215-.44.323-.642.17-.01.334-.015.486-.017zm-1.62.125c-.075.205-.15.418-.225.652-.151.024-.309.057-.466.088.074-.237.147-.458.221-.67.161-.027.316-.05.47-.07zm-1.747.352c-.038.214-.074.435-.108.677a11.85 11.85 0 0 0-.442.142c.031-.241.065-.465.101-.682.151-.047.301-.096.45-.137zm-1.745.62c.004.217.01.442.022.68-.137.065-.275.133-.412.205a19.218 19.218 0 0 1-.031-.68c.14-.069.28-.142.42-.205zm-1.61.873c.044.21.093.428.147.652-.124.085-.247.174-.37.266-.06-.23-.106-.445-.153-.663.125-.088.25-.173.376-.255zm-2.295 5.123.304.63a3.391 3.391 0 0 1-.32.306l-.285-.592c.055-.053.111-.106.157-.159.055-.063.1-.124.145-.185zm-.869.776.081.675a5.35 5.35 0 0 1-.404.185l-.077-.648c.146-.068.28-.139.4-.212zm-1.013.45-.126.686a8.176 8.176 0 0 1-.448.104l.122-.665c.16-.039.311-.08.452-.126zm-.904.225-.298.67c-.16.022-.318.044-.489.06l.295-.661c.169-.021.339-.042.492-.07z"/><path fill="#001489" stroke="#000" stroke-width=".473" d="M391.444 296.044s4.81-2.25 5.919-.36c1.11 1.89 1.572 5.67 0 7.921 0 0-6.844.81-10.358-.36l-.462-.27z"/><path fill="#c8102e" stroke="#000" stroke-width=".237" d="M396.213 298.107c.764-.017 1.493.215 2.072.477.234 1.728.032 3.655-.922 5.021 0 0-6.06.717-9.702-.174 1.752-.535 4.772-3.354 6.835-4.776a3.089 3.089 0 0 1 1.717-.548z"/><path fill="none" stroke="#000" stroke-width=".237" d="M398.288 301.895s-2.312-1.53-6.011.09c-3.7 1.62-3.7 1.35-3.7 1.35"/><path fill="none" stroke="#000" stroke-width=".473" d="M391.444 296.044s4.81-2.25 5.919-.36c1.11 1.89 1.572 5.67 0 7.921 0 0-6.844.81-10.358-.36l-.462-.27z"/><path fill="none" stroke="#000" stroke-width=".237" d="M390.057 303.695s-.74 3.061-.925 9.453c-.185 6.391 1.203 10.712 1.757 10.622"/><path fill="none" stroke="#000" stroke-width=".418" d="M386.635 302.795s-2.774 2.7-3.144 8.822c-.37 6.122-.277 10.353-.277 10.353s4.531 2.61 8.785 1.53c0 0-.74-1.8-.832-4.32-.093-2.521.092-15.575.092-15.575"/><path fill="none" stroke="#000" stroke-width=".473" d="M427.973 274.348s-2.22 8.913-2.497 13.054"/><path fill="none" stroke="#000" stroke-width=".237" d="M445.157 256.035s-2.26-2.996-8.94-.382"/><path fill="#007a33" stroke="#000" stroke-width=".418" d="m495.588 244.23 1.215-38.84 5.671-2.958 1.62 41.798z"/><path fill="#001489" stroke="#000" stroke-width=".473" d="M497.913 169.849s-.548 0-1.46-.889c-.913-.888-1.461-.888-.73-2.133.73-1.244 1.642-2.843 4.746-2.666 3.104.178 5.478.356 6.573 3.555 1.096 3.2 1.461 11.73.548 15.285-4.747-.177-11.868-3.91-12.963-6.398-1.096-2.488 3.286-6.754 3.286-6.754z"/><g stroke="#000"><path fill="#ffd100" stroke-width=".513" d="m541.51 268.283-12.07 24.84-2.759-1.342-21.552 39.61-.173-6.713 20.443-35.025-.958-.725 1.378-1.511.669.371.021-.036s1.38-.167 1.552.336z"/><path fill="#fff" stroke-width=".237" d="m541.51 268.283-12.07 24.84-2.759-1.342 1.454-3.803zm-24.45 35.659c.701.246 1.745.65 2.421 1.07l-2.975 5.47c-.493-.356-1.446-.96-2.41-1.078a.335.335 0 0 1-.18-.075z"/><path fill="none" stroke-width=".418" d="m525.82 287.417.622.346-1.064 1.874-.937-.71z"/><path fill="none" stroke-width=".513" d="m541.51 268.283-12.07 24.84-2.759-1.342-21.552 39.61-.173-6.713 20.443-35.025-.958-.725 1.378-1.511.669.371.021-.036s1.38-.167 1.552.336z"/><path fill="#ffd100" stroke-width=".513" d="m533.64 258.905-9.466 25.888-2.882-1.068-17.387 41.505-.86-6.663 16.753-36.834-1.028-.63 1.217-1.637.703.305.018-.038s1.355-.3 1.578.184z"/><path fill="#fff" stroke-width=".237" d="m533.64 258.905-9.466 25.888-2.882-1.068 1.057-3.925zm-18.04 32.058c.833.223 1.578.734 2.15 1.216l-2.29 5.467c-.688-.413-1.592-.786-2.408-1.082z"/><path fill="none" stroke-width=".418" d="m519.987 279.466.655.284-.867 1.969-1.005-.615z"/><path fill="none" stroke-width=".513" d="m533.64 258.905-9.466 25.888-2.882-1.068-17.387 41.505-.86-6.663 16.753-36.834-1.028-.63 1.217-1.637.703.305.018-.038s1.355-.3 1.578.184z"/><path fill="#ffd100" stroke-width=".513" d="m523.346 255.747-7.514 26.488-2.955-.862-14.254 42.622-1.353-6.585 13.97-37.919-1.073-.555 1.092-1.719.724.255.015-.04s1.33-.394 1.588.073z"/><path fill="#fff" stroke-width=".237" d="m523.346 255.747-7.514 26.488-2.955-.862.763-3.989zm-15.608 33.246c.848.163 1.63.62 2.236 1.061l-1.878 5.614c-.716-.363-1.646-.672-2.481-.91z"/><path fill="none" stroke-width=".418" d="m511.26 277.217.673.237-.717 2.025-1.049-.543z"/><path fill="none" stroke-width=".513" d="m523.346 255.747-7.514 26.488-2.955-.862-14.254 42.622-1.353-6.585 13.97-37.919-1.073-.555 1.092-1.719.724.255.015-.04s1.33-.394 1.588.073z"/></g><path fill="none" stroke="#000" stroke-linecap="round" stroke-width=".418" d="M504.304 171.161s-3.835.711-3.652 2.488"/><path fill="none" stroke="#000" stroke-width=".418" d="M502.478 167.183s-4.382 1.066-5.843 4.799"/><path fill="none" stroke="#000" stroke-width=".418" d="M500.47 167.716s-2.557 2.133-3.652 1.422"/><path fill="#c8102e" stroke="#000" stroke-width=".418" d="M496.16 172.857c-.167.006-.255.013-.255.013l-.507.14c-.73 1.216-1.227 2.557-.771 3.593.078.177.19.361.326.55l.404-.195s8.399-.71 12.05 5.51l.218.372c.348-1.465.496-3.683.478-6.026-5.817-3.898-10.78-3.996-11.942-3.957z"/><path fill="none" stroke="#000" stroke-linecap="round" stroke-width=".418" d="M505.947 173.116s-2.008.889-2.008 1.778"/><path fill="#c8102e" d="m545.663 344.907-.582 23.81-32.03-2.08z"/><path fill="#001489" d="M609.141 317.128s-2.33 39.117-14.559 58.77l-49.89-7.181 1.36-23.81 63.09-41.762z"/><path fill="#001489" stroke="#000" stroke-width=".418" d="M562.437 257.055c-2.98 1.275-5.665.255-5.665.255s-1.31 1.658 2.227 1.849c0 0 1.408.128.458 1.658"/><path fill="#c8102e" stroke="#000" stroke-width=".473" d="M566.629 254.09s-5.338-4.239-8.71-3.984c-3.374.255-3.537.192-3.832.765-.295.574-.884 3.22.622 5.164 1.506 1.945 2.129 1.466 2.39 1.052.263-.414 2.391-1.626 6.419-.733"/><path fill="#001489" stroke="#000" stroke-width=".237" d="M558.24 250.095c-.109 0-.216.002-.321.01-3.373.256-3.537.192-3.832.766-.203.395-.545 1.772-.247 3.226.503-.47 1.54-.916 3.685-.803 4.257.223 6.746 1.913 6.746 1.913l.42.293 1.937-1.41s-5.008-3.978-8.388-3.995z"/><path fill="#c8102e" d="m504.37 351.43 38.178-33.865 5.647 12.731-3.506 14.187-31.221 21.188-8.564-2.084-.357-7.642zm1.163-21.808 23.397-29.347 5.919 12.783-1.85 12.063-27.928 25.566z"/><path fill="#001489" d="M529.023 300.815s4.716 10.532 3.976 24.126l28.483-25.837 13.594-11.973-.277.18-1.757-8.281-.832-4.682-2.22.54v-2.7l-.37-2.34-1.942-3.692-1.572-3.96-.37-3.331.74-3.961-1.017.45z"/><path fill="#001489" stroke="#000" stroke-width=".418" d="M613.362 302.795s2.774 2.7 3.144 8.822c.37 6.122.278 10.353.278 10.353s-4.532 2.61-8.786 1.53c0 0 .74-1.8.833-4.32.092-2.521-.093-15.575-.093-15.575z"/><path fill="#c8102e" stroke="#000" stroke-width=".237" d="m610.773 303.605-2.033.132c.004.247.182 12.946.09 15.442-.092 2.52-.832 4.321-.832 4.321 1.557.395 3.148.294 4.543.01.033-.49.54-7.972.451-11.892-.092-4.05-2.219-8.013-2.219-8.013z"/><path fill="#ffd100" d="M646.759 414.243c.851-2.154 3.15-2.652 3.15-2.652s.17-.165-.511-1.74c-.681-1.574-.34-2.734-.34-2.734.255-8.37-.596-10.607-.596-10.607.595 0 3.32 3.148 3.32 3.148-.086-7.955-12.174-11.684-12.174-11.684 4.427 10.939 2.724 12.182 2.724 12.182 2.81-1.16 3.15-2.984 3.15-2.984.51 2.984.085 8.784.085 8.784s.17 2.735-2.469 1.41c-2.639-1.327-13.28-6.299-13.28-6.299l-1.106 2.155 14.642 6.63s2.128.91 1.532 2.485c-.596 1.575-.936 1.823-.936 1.823z"/><path fill="none" stroke="#000" stroke-width=".473" d="M645.567 405.956s.426-5.8-.085-8.784c0 0-.34 1.824-3.15 2.984 0 0 1.703-1.243-2.724-12.182 0 0 12.088 3.73 12.174 11.685 0 0-2.725-3.15-3.32-3.15 0 0 .85 2.238.595 10.608"/><path fill="none" stroke="#000" stroke-width=".237" d="M646.759 414.243c.851-2.154 3.15-2.652 3.15-2.652s.17-.165-.511-1.74c-.681-1.574-.34-2.734-.34-2.734.255-8.37-.596-10.607-.596-10.607.595 0 3.32 3.148 3.32 3.148-.086-7.955-12.174-11.684-12.174-11.684 4.427 10.939 2.724 12.182 2.724 12.182 2.81-1.16 3.15-2.984 3.15-2.984.51 2.984.085 8.784.085 8.784s.17 2.735-2.469 1.41c-2.639-1.327-13.28-6.299-13.28-6.299l-1.106 2.155 14.642 6.63s2.128.91 1.532 2.485c-.596 1.575-.936 1.823-.936 1.823"/><path fill="#ffd100" stroke="#000" stroke-width=".237" d="M624.454 398.147c-.335 0-1.006.074-1.562.5a1.527 1.527 0 0 0-.587.948c-.071.413.017.897.294 1.46.575 1.167 1.722 1.595 2.661 1.718a5.922 5.922 0 0 0 1.734-.037l-.14-.687s-.694.133-1.5.027c-.806-.105-1.66-.421-2.106-1.326-.233-.473-.274-.808-.234-1.04a.773.773 0 0 1 .322-.51c.338-.26.943-.35 1.118-.35.296 0 .55-.046 1.031.188.48.234 1.168.774 2.084 1.99l.58-.417c-.956-1.27-1.716-1.894-2.342-2.199-.626-.305-1.137-.265-1.353-.265z"/><path fill="#ffd100" stroke="#000" stroke-width=".237" d="M625.562 405.625s.34-5.47 3.916-7.375c0 0 .851.083.936.746.085.662-3.32 6.463-3.32 6.463z"/><path fill="#ffd100" stroke="#000" stroke-width=".197" d="M625.966 405.01s.284-4.556 3.263-6.144c0 0 .71.069.78.621.07.553-2.766 5.386-2.766 5.386z"/><ellipse cx="593.208" cy="391.662" fill="#ffd100" stroke="#000" stroke-width=".237" rx="3.824" ry="3.723"/><path fill="#c8102e" d="M642.352 352.92s6.445.361 6.37 3.462c-.073 3.101-1.036 6.13 1.112 6.707 2.148.576 6.593.576 7.704 1.73 1.111 1.154 1.111 2.452 1.111 2.452s-5.556-1.947-8-.577c-2.445 1.37-5.004-.792-5.408-1.514-.889-1.587-.37-4.687-2.074-5.264-1.704-.577-7.112-.65-7.112-.65z"/><path fill="#001489" d="M595.584 310.24c1.007-16.919-2.015-36.78-2.015-36.78l-.252-2.942-52.141 48.549s3.778-3.923 2.519 16.183l4.534 6.866z"/><path fill="none" stroke="#000" stroke-width=".418" d="M595.584 310.24c1.007-16.919-2.015-36.78-2.015-36.78l-.252-2.942"/><g fill="#ffd100" stroke="#000"><path stroke-width=".473" d="m581.635 233.626-6.98 15.845s-2.03-2.007-3.673.075l-1.638 2.075m12.264-18.014-13.473 11.19s2.571 1.292 1.017 3.437l-1.55 2.138 1.742 1.25"/><path stroke-width=".473" d="m564.007 246.868 9.588 6.827-2.517 3.35-9.587-6.828z"/><path stroke-width=".237" d="m564.22 247.898 8.302 5.911-1.657 2.206-8.302-5.912z"/></g><g fill="#ffd100" stroke="#000"><path stroke-width=".473" d="m612.623 253.257-9.472 14.568s-1.677-2.295-3.638-.493l-1.956 1.796m15.043-15.894-15.125 8.97s2.328 1.672.444 3.55l-1.878 1.872 1.516 1.502"/><path stroke-width=".473" d="m593.062 263.612 8.355 8.22-3.03 2.918-8.355-8.22z"/><path stroke-width=".237" d="m593.105 264.661 7.234 7.118-1.995 1.922-7.234-7.118z"/></g><g fill="#ffd100" stroke="#000"><path stroke-width=".473" d="m632.791 286.389-11.896 12.772s-1.249-2.54-3.498-1.093l-2.243 1.444m17.618-13.15-16.48 6.315s2 2.035-.187 3.57l-2.18 1.532 1.23 1.733"/><path stroke-width=".473" d="m611.697 293.327 6.783 9.492-3.498 2.37-6.784-9.492z"/><path stroke-width=".237" d="m611.554 294.368 5.874 8.22-2.304 1.56-5.874-8.22z"/></g><path fill="#ffd100" stroke="#000" stroke-width=".473" d="m565.887 253.356-60.569 74.885.315 1.298 61.198-75.462zm26.155 18.304-87.577 79.08.816.858 87.576-79.084zm14.098 31.667-93.234 62.119.678.964 93.233-62.119z"/><path fill="#001489" stroke="#000" stroke-width=".418" d="M596.157 272.702s-8.79-1.637-10.93-.372c-2.14 1.264 3.745 1.339 4.892.967l-2.217 2.157s-5.044-1.19-5.885-5.803c-.84-4.613 2.522-4.613 3.286-4.538.765.074 5.198.744 10.854 7.589z"/><path fill="#c8102e" stroke="#000" stroke-width=".237" d="M583.538 267.854c-.966.28-1.693.941-1.445 2.169 0 0 .382 1.414.765 2.158a.476.476 0 0 1 .117-.132c.29.442.619.831.969 1.173.295-.107.587-.201.862-.275-.109-.163-.005-.366.421-.618.237-.14.56-.242.938-.317 1.597-.597 3.985.021 4.488-.054l2.676.149s-7.964-4.78-9.79-4.253z"/><path fill="none" stroke="#000" stroke-width=".237" d="M592.64 271.809s-9.795-2.852-9.795-.099"/><path fill="none" stroke="#000" stroke-width=".473" d="M596.157 272.702s-8.79-1.637-10.93-.372c-2.14 1.264 3.745 1.339 4.892.967l-2.217 2.157s-5.044-1.19-5.885-5.803c-.84-4.613 2.522-4.613 3.286-4.538.765.074 5.198.744 10.854 7.589z"/><path fill="#001489" stroke="#000" stroke-width=".237" d="M595.012 272.632c-.228 1.074-.482 2.485-.352 3.118 2.863 7.118 6.754 7.272 5.229 15.92l3.015-.082c.325-4.012-.325-7.813-1.085-9.503-.38-.844-1.22-1.848-2.142-2.824-.922-.977-1.926-1.928-2.63-2.667-1.41-1.478-.435-3.378-.435-3.378z"/><path fill="#c8102e" stroke="#000" stroke-width=".418" d="M593.142 271.949s-.53 1.36-.53 3.269a9.5 9.5 0 0 0 .53 3.171 29.9 29.9 0 0 1 1.012 3.478c.555 2.471.868 5.428.94 9.933l4.795-.13c1.525-8.648-2.366-8.802-5.229-15.92-.13-.633.123-2.044.352-3.118z"/><path fill="none" stroke="#000" stroke-width=".473" d="M596.613 273.216s-.977 1.9.433 3.379c.706.739 1.709 1.689 2.63 2.666.923.976 1.764 1.98 2.143 2.824.76 1.69 1.41 5.491 1.085 9.503m0 0-7.81.212c-.072-4.506-.386-7.462-.94-9.934a29.888 29.888 0 0 0-1.012-3.476 9.512 9.512 0 0 1-.53-3.172c0-1.908.53-3.27.53-3.27l3.47 1.268"/><path fill="none" stroke="#000" stroke-width=".237" d="M597.589 291.694s1.085-4.752-1.41-8.975c-2.512-4.318-3.263-10.888-1.953-10.454"/><path fill="#ffd100" stroke="#000" stroke-width=".248" d="m588.857 360.667-6.745 11.49-26.656 1.931-2.518.33s-3.894 8.934-8.216 10.124c-4.323 1.19-33.237 9.968-33.237 9.968l-.89-6.436 18.738-5.885s5.497-1.968 7.132-4.054c1.635-2.086 15.263-14.79 15.263-14.79z"/><g stroke="#000" stroke-width=".473"><path fill="#ffd100" d="m576.913 331.367-38.742 62.855.822.48 38.742-62.854z"/><path fill="#fff" d="M576.133 333.906s1.093 1.008 2.451-.605c1.359-1.614 5.33-8.27 6.09-9.48.759-1.21 1.737-2.218.448-3.025-1.289-.807-3.096.202-4.581 3.227-1.485 3.025-6.365 8.27-4.408 9.883z"/></g><path fill="#ffd100" stroke="#000" stroke-width=".248" d="M610.417 342.539c1.447-.19 3.917 2.565 4.579 7.353.661 4.787.025 8.82-1.422 9.01-.529.065-1.119-.4-1.691-1.336l-77.342 10.128-1.628-14.225 76.733-8.875c.25-1.832.044-1.956.771-2.055z"/><path fill="none" stroke="#000" stroke-linecap="round" stroke-width=".208" d="M535.974 353.189s.448.709.63 1.167m1.043-1.358s.448.709.63 1.167m1.043-1.358s.448.709.63 1.167m1.044-1.358s.447.708.63 1.166m1.043-1.357s.447.708.63 1.166m1.043-1.358s.448.71.63 1.167m1.043-1.358s.448.71.63 1.167m1.044-1.358s.447.71.63 1.167m1.043-1.358s.447.709.63 1.167m1.043-1.358s.448.709.63 1.167m1.043-1.358s.448.709.63 1.167m1.043-1.358s.448.709.63 1.167m1.044-1.358s.447.709.63 1.167m1.043-1.358s.447.709.63 1.167m1.043-1.358s.448.708.63 1.166m1.043-1.357s.448.708.63 1.166m1.044-1.358s.447.71.63 1.167m1.043-1.358s.447.71.63 1.167m1.043-1.358s.448.71.63 1.167m1.043-1.358s.448.709.63 1.167m1.043-1.358s.448.709.63 1.167m1.044-1.358s.447.709.63 1.167m1.043-1.358s.447.709.63 1.167m1.043-1.358s.448.709.63 1.167m1.043-1.358s.448.709.63 1.167m1.043-1.358s.448.708.63 1.166m1.044-1.357s.447.708.63 1.166m1.043-1.358s.448.71.63 1.167m1.043-1.358s.448.71.63 1.167m1.043-1.358s.448.71.63 1.167m1.044-1.358s.447.709.63 1.167m1.043-1.358s.447.709.63 1.167m1.043-1.358s.448.709.63 1.167m1.043-1.358s.448.709.63 1.167m1.043-1.358s.448.709.63 1.167m1.044-1.358s.447.709.63 1.167m1.043-1.358s.448.708.63 1.166m1.043-1.357s.448.708.63 1.166m1.043-1.358s.448.71.63 1.167m1.044-1.358s.447.71.63 1.167m1.043-1.358s.447.71.63 1.167m1.043-1.358s.448.709.63 1.167m1.043-1.358s.448.709.63 1.167m1.043-1.358s.448.709.63 1.167m1.044-1.358s.447.709.63 1.167"/><path fill="none" stroke="#000" stroke-width=".439" d="m612.29 349.28-78.325 10.257m78.562-8.544-78.325 10.257m78.562-8.544-78.325 10.257m78.444-9.4-78.326 10.257m78.443-9.4-78.325 10.256m78.445-9.4-78.326 10.257m78.444-9.401-78.326 10.257m78.444-9.4-78.326 10.257"/><path fill="#ffd100" stroke="#000" stroke-width=".248" d="M598.776 344.643a7.927 2.47 85.86 0 1 3.03 7.757 7.927 2.47 85.86 0 1-1.902 8.057 7.927 2.47 85.86 0 1-.776-.337 7.927 2.47 85.86 0 0 1.09-7.512 7.927 2.47 85.86 0 0-2.255-7.42 7.927 2.47 85.86 0 1 .813-.545zM544 351.815a7.927 2.47 85.86 0 1 3.03 7.757 7.927 2.47 85.86 0 1-1.901 8.057 7.927 2.47 85.86 0 1-.776-.336 7.927 2.47 85.86 0 0 1.09-7.513 7.927 2.47 85.86 0 0-2.255-7.42 7.927 2.47 85.86 0 1 .813-.545zm-11.474 6.363-4.367-.286s-2.682.897-2.848 2.011c-.167 1.115-.26 2.765-.039 3.204.221.44 5.314 1.333 7.102-.227z"/><path d="M525.311 359.902c1.747.417 4.83.25 7.159.031l-.096 2.946c-1.788 1.56-6.88.668-7.102.228-.22-.439-.128-2.09.039-3.204z"/><path fill="#ffd100" stroke="#000" stroke-width=".248" d="M533.338 353.082a7.666 1.715 86.144 0 1 .533.312 8.117 1.712 85.893 0 0-.284 6.833 8.117 1.712 85.893 0 0 1.515 7.243 7.666 1.715 86.144 0 1-.719.91 7.666 1.715 86.144 0 1-2.232-7.501 7.666 1.715 86.144 0 1 1.187-7.797z"/><path fill="#ffd100" stroke="#000" stroke-width=".237" d="M577.39 353.2v.051c-.883.195-1.541.958-1.541 1.88v12.874l9.352-9.103a1.885 1.885 0 0 0 .274-2.39l.038-.037 4.052 3.944-.016.015a2.011 2.011 0 0 0-2.633.137l-9.509 9.256h13.54c.946 0 1.73-.64 1.93-1.5h.053v5.576h-.022c-.11-.966-.938-1.715-1.962-1.715H577.5l9.573 9.318c.67.652 1.69.74 2.456.268l.037.037-4.051 3.944-.017-.016a1.882 1.882 0 0 0-.14-2.563l-9.508-9.256v13.18c0 .921.658 1.685 1.542 1.88v.05h-5.73v-.02c.993-.108 1.763-.914 1.763-1.91v-13.394l-9.73 9.471a1.882 1.882 0 0 0-.14 2.563l-.016.016-4.053-3.944.039-.037a2.017 2.017 0 0 0 2.455-.267l9.573-9.319h-13.446c-1.023 0-1.85.749-1.961 1.715h-.023v-5.577h.053c.2.861.984 1.5 1.931 1.5h13.537l-9.508-9.255a2.011 2.011 0 0 0-2.633-.137l-.016-.015 4.053-3.944.037.036a1.885 1.885 0 0 0 .274 2.39l9.574 9.32v-13.09c0-.997-.77-1.802-1.763-1.91v-.021z"/><ellipse cx="574.636" cy="371.285" fill="#ffd100" stroke="#000" stroke-width=".237" rx="3.65" ry="3.553"/><path fill="#ffd100" stroke="#000" stroke-width=".237" d="M574.636 347.622a24.134 23.493 0 0 1 24.134 23.493 24.134 23.493 0 0 1-24.134 23.493 24.134 23.493 0 0 1-24.134-23.493 24.134 23.493 0 0 1 24.134-23.493zm0 5.977a17.993 17.515 0 0 0-17.993 17.516 17.993 17.515 0 0 0 17.993 17.515 17.993 17.515 0 0 0 17.993-17.515 17.993 17.515 0 0 0-17.993-17.516z"/><path d="M573.865 350.519a.77.75 0 0 0 .77.75.77.75 0 0 0 .772-.75.77.75 0 0 0-.771-.75.77.75 0 0 0-.771.75zm0 40.978a.77.75 0 0 0 .77.75.77.75 0 0 0 .772-.75.77.75 0 0 0-.771-.75.77.75 0 0 0-.771.75zm-14.657-34.447a.77.75 0 0 0 1.09 0 .77.75 0 0 0 0-1.061.77.75 0 0 0-1.09 0 .77.75 0 0 0 0 1.06zm29.766 28.976a.77.75 0 0 0 1.09 0 .77.75 0 0 0 0-1.061.77.75 0 0 0-1.09 0 .77.75 0 0 0 0 1.06zm1.089-28.976a.77.75 0 0 1-1.09 0 .77.75 0 0 1 0-1.061.77.75 0 0 1 1.09 0 .77.75 0 0 1 0 1.06zm-29.766 28.976a.77.75 0 0 1-1.09 0 .77.75 0 0 1 0-1.061.77.75 0 0 1 1.09 0 .77.75 0 0 1 0 1.06zm35.386-14.269a.77.75 0 0 1-.77-.75.77.75 0 0 1 .77-.75.77.75 0 0 1 .771.75.77.75 0 0 1-.77.75zm-42.096 0a.77.75 0 0 1-.77-.75.77.75 0 0 1 .77-.75.77.75 0 0 1 .771.75.77.75 0 0 1-.77.75zm40.265 7.643a.75.77 90 0 1-.425-.978.75.77 90 0 1 1.005-.413.75.77 90 0 1 .424.977.75.77 90 0 1-1.004.414zm-39.012-15.394a.75.77 90 0 1-.425-.978.75.77 90 0 1 1.004-.413.75.77 90 0 1 .425.977.75.77 90 0 1-1.004.414zm.783 15.824a.77.75 0 0 0 .402-.987.77.75 0 0 0-1.014-.39.77.75 0 0 0-.401.986.77.75 0 0 0 1.013.391zm38.637-16.268a.77.75 0 0 0 .401-.987.77.75 0 0 0-1.014-.391.77.75 0 0 0-.401.987.77.75 0 0 0 1.014.39zm-28.584-11.11a.75.77 90 0 0 1.012.396.75.77 90 0 0 .407-.984.75.77 90 0 0-1.012-.396.75.77 90 0 0-.407.984zm16.501 37.698a.75.77 90 0 0 1.012.397.75.77 90 0 0 .407-.984.75.77 90 0 0-1.012-.397.75.77 90 0 0-.407.985zm1.417-37.698a.75.77 90 0 1-1.01.396.75.77 90 0 1-.408-.984.75.77 90 0 1 1.011-.396.75.77 90 0 1 .407.984zm-16.5 37.698a.75.77 90 0 1-1.012.397.75.77 90 0 1-.407-.984.75.77 90 0 1 1.012-.397.75.77 90 0 1 .407.985z"/><ellipse cx="602.51" cy="391.662" fill="#ffd100" stroke="#000" stroke-width=".237" rx="3.824" ry="3.723"/><path fill="#fff" stroke="#000" stroke-width=".237" d="M508.56 342.314s9.403 3.945 10.214-2.841c0 0 5.675 6.944-2.108 11.363 0 0 3.567-5.523-8.106-6.155 0 0-1.622.158-1.46-1.105.163-1.262 1.46-1.262 1.46-1.262z"/><path d="M507.09 343.795c1.332.114 4.37.441 9.09 1.36 2.095.408 3.561.155 4.59-.372.014 2.008-.914 4.243-4.104 6.054 0 0 3.567-5.525-8.106-6.156 0 0-1.426.139-1.47-.886z"/><path fill="#fff" stroke="#000" stroke-width=".237" d="m512.705 342.256.79.116-3.242 21.15-.79-.116z"/><path fill="#fff" stroke="#000" stroke-width=".237" d="m512.386 342.21 1.425.208-.653 4.26-1.424-.207z"/><g stroke="#000" stroke-width=".237"><ellipse cx="530.76" cy="398.584" fill="#fff" rx="5.708" ry="2.617"/><path fill="#ffd100" d="M530.25 367.55c.527-.026 1.037.06 1.177.368.281.615-.562.751-.562.751v3.488c0 1.094.914 17.572 1.335 20.786.152 1.159.44 2.123.748 2.88 0 0 4.029.47 3.818 2.248-.21 1.778-2.39 2.953-6.041 2.872-4.503-.1-5.76-1.026-5.97-2.12-.212-1.094 1.052-2.12 2.949-2.461l.984-5.47s-.21.82-2.81.273c-2.599-.547-2.529-4.376-2.529-4.376s-.07-11.488.07-13.607c.14-2.12 1.335-3.145 3.021-3.76 1.335-.206 2.248.068 2.388.82.14.752.492.957.703.684.21-.274 0-2.325 0-2.325s-.984-.478-.563-.752c.211-.137.756-.274 1.282-.3zm-3.388 3.923-.914.479-.28 2.46v12.446l.14.82 1.194.957 1.334-.274.703-.82.492-11.145.14-3.555-1.686-1.095z"/><path fill="none" d="M527.353 397.66s1.545-3.828 1.897-13.88c.35-10.05.491-10.871 0-11.35-.492-.479-1.897-1.3-2.74-.82-.843.478-.632.615-.772 2.324-.14 1.71-.14 12.787-.14 12.787s.42 1.846 1.474 1.777c1.054-.068 1.827-.478 1.967-1.23m5.057 10.598s-1.475-1.71-1.896-4.923c-.422-3.214-1.335-19.692-1.335-20.787v-3.487"/></g><g fill="#fff" stroke="#000"><path stroke-width=".418" d="M551.075 385.922s-5.157.148-6.825 3.248c-1.668 3.1-.758 6.054 1.213 7.235 1.972 1.181 6.22 2.067 8.19.886 1.973-1.181 3.338-5.02 1.063-5.463-2.276-.443-6.067-1.181-5.612-2.658.455-1.476 2.426-1.476 2.426-1.476z"/><path stroke-width=".236" d="m550.38 385.251.943-.147.75 3.262-.942.147z"/></g><path fill="#fff" stroke="#000" stroke-width=".473" d="m623.555 369.783-21.78 11.032.116.215 1.532.269 20.687-10.483z"/><path fill="#fff" stroke="#000" stroke-width=".473" d="m624.198 370.302-12.272 21.152 1.99-1.059 11.328-19.52z"/><path d="M645.176 349.734a.6.584 0 0 0-.006 0 .6.584 0 0 0-.413.177l-20.67 19.974a.6.584 0 1 0 .847.828l20.32-19.636v-1.338a.6.584 0 0 0-.078-.005z"/><path fill="#fff" stroke="#000" stroke-width=".473" d="M627.453 366.897a.6.584 0 0 0-.412.176l-20.522 19.831 1.796-.089 19.57-18.912a.6.584 0 0 0-.432-1.006z"/><ellipse cx="549.711" cy="406.574" fill="#ffd100" stroke="#000" stroke-width=".237" rx="3.824" ry="3.723"/><ellipse cx="558.829" cy="399.118" fill="#ffd100" stroke="#000" stroke-width=".237" rx="3.824" ry="3.723"/><ellipse cx="572.871" cy="400.005" fill="#ffd100" stroke="#000" stroke-width=".237" rx="3.824" ry="3.723"/><ellipse cx="583.542" cy="405.686" fill="#ffd100" stroke="#000" stroke-width=".237" rx="3.824" ry="3.723"/><ellipse cx="592.843" cy="405.686" fill="#ffd100" stroke="#000" stroke-width=".237" rx="3.824" ry="3.723"/><ellipse cx="602.145" cy="405.686" fill="#ffd100" stroke="#000" stroke-width=".237" rx="3.824" ry="3.723"/><ellipse cx="611.446" cy="405.686" fill="#ffd100" stroke="#000" stroke-width=".237" rx="3.824" ry="3.723"/><ellipse cx="588.285" cy="398.763" fill="#ffd100" stroke="#000" stroke-width=".237" rx="3.824" ry="3.723"/><ellipse cx="597.585" cy="398.763" fill="#ffd100" stroke="#000" stroke-width=".237" rx="3.824" ry="3.723"/><ellipse cx="606.886" cy="398.763" fill="#ffd100" stroke="#000" stroke-width=".237" rx="3.824" ry="3.723"/><path fill="#c8102e" stroke="#000" stroke-width=".473" d="M568.557 255.873s-.3 2.922 2.25 4.675c2.552 1.753 5.553 3.652 6.753 8.618 1.2 4.967.3 4.383.3 4.383l-7.953 1.314s.9-3.505-1.05-6.28c-1.951-2.776-4.802-10.81-2.101-14.024z"/><path fill="#001489" stroke="#000" stroke-width=".237" d="M568.304 255.69c-.475 1.128-1.304 3.814.553 5.734 2.4 2.484 4.652 3.652 5.552 7.012.539 2.011.897 4.082 1.113 5.499l2.339-.387s.9.585-.3-4.381c-1.201-4.967-4.202-6.866-6.753-8.619-2.551-1.753-2.251-4.674-2.251-4.674z"/><path fill="none" stroke="#000" stroke-width=".237" d="M567.356 254.413s-1.5 3.36.15 6.72c1.65 3.359 3.302 4.966 4.202 7.157.9 2.191 0 4.236 1.05 5.843"/><path fill="#fff" stroke="#000" stroke-width=".237" d="M629.605 402.018a.32.311 0 1 0 .1.615s5.435-.831 9.475 3.177a.32.311 0 1 0 .456-.435c-4.272-4.238-10.03-3.357-10.03-3.357zm9.481 5.979s-.01.832.688 1.63c.697.798 2.082 1.565 4.738 1.645l.019-.624c-2.539-.076-3.71-.785-4.27-1.426-.561-.641-.534-1.21-.534-1.21z"/><path fill="#ffd100" d="M646.759 414.243c.851-2.154 3.15-2.652 3.15-2.652s.17-.165-.511-1.74c-.681-1.574-.34-2.734-.34-2.734.255-8.37-.596-10.607-.596-10.607.595 0 3.32 3.148 3.32 3.148-.086-7.955-12.174-11.684-12.174-11.684 4.427 10.939 2.724 12.182 2.724 12.182 2.81-1.16 3.15-2.984 3.15-2.984.51 2.984.085 8.784.085 8.784s.17 2.735-2.469 1.41c-1.412-.71-8.254-3.941-8.254-3.941l-.653 2.278 9.163 4.148s2.128.912 1.532 2.486c-.596 1.575-.936 1.823-.936 1.823z"/><path d="M631.1 401.944c.109.199.218.406.33.63.152.006.312.016.48.029-.11-.224-.216-.44-.323-.642-.17-.01-.335-.015-.487-.017zm1.62.125c.075.205.15.418.226.652.15.024.308.057.465.088a19.22 19.22 0 0 0-.22-.67c-.162-.027-.317-.05-.47-.07zm1.747.352c.038.214.075.435.109.677.146.044.293.091.441.142a18.78 18.78 0 0 0-.1-.682c-.152-.047-.302-.096-.45-.137zm1.746.62c-.004.217-.01.442-.022.68.136.065.274.133.411.205.014-.235.026-.463.031-.68-.14-.069-.28-.142-.42-.205zm1.61.873c-.044.21-.093.428-.148.652.124.085.248.174.371.266.059-.23.105-.445.152-.663-.125-.088-.25-.173-.376-.255zm2.294 5.123-.304.63c.094.103.202.205.32.306l.285-.592c-.054-.053-.11-.106-.157-.159a2.524 2.524 0 0 1-.144-.185zm.869.776-.081.675c.125.065.262.126.404.185l.078-.648a4.102 4.102 0 0 1-.401-.212zm1.013.45.127.686c.142.038.293.072.448.104l-.123-.665a6.563 6.563 0 0 1-.452-.126zm.905.225.298.67c.159.022.317.044.488.06l-.295-.661c-.168-.021-.339-.042-.491-.07z"/><path fill="#001489" stroke="#000" stroke-width=".473" d="M608.553 296.044s-4.809-2.25-5.918-.36c-1.11 1.89-1.572 5.67 0 7.921 0 0 6.843.81 10.357-.36l.462-.27z"/><path fill="#c8102e" stroke="#000" stroke-width=".237" d="M603.785 298.107c-.764-.017-1.494.215-2.072.477-.235 1.728-.033 3.655.921 5.021 0 0 6.06.717 9.703-.174-1.753-.535-4.773-3.354-6.836-4.776a3.089 3.089 0 0 0-1.716-.548z"/><path fill="none" stroke="#000" stroke-width=".237" d="M601.71 301.895s2.312-1.53 6.01.09c3.7 1.62 3.7 1.35 3.7 1.35"/><path fill="none" stroke="#000" stroke-width=".473" d="M608.553 296.044s-4.809-2.25-5.918-.36c-1.11 1.89-1.572 5.67 0 7.921 0 0 6.843.81 10.357-.36l.462-.27z"/><path fill="none" stroke="#000" stroke-width=".237" d="M609.94 303.695s.74 3.061.925 9.453c.185 6.391-1.202 10.712-1.757 10.622"/><path fill="none" stroke="#000" stroke-width=".418" d="M613.362 302.795s2.774 2.7 3.144 8.822c.37 6.122.278 10.353.278 10.353s-4.532 2.61-8.786 1.53c0 0 .74-1.8.833-4.32.092-2.521-.093-15.575-.093-15.575"/><path fill="none" stroke="#000" stroke-width=".473" d="M572.025 274.348s2.22 8.913 2.496 13.054"/><g stroke="#000" stroke-width=".196"><path fill="#c8102e" d="M547.037 343.174s2.522-2.65 2.683-3.78c.16-1.13.12-3.001-1.442-3.04-1.561-.04-8.969-1.247-11.21.506-2.243 1.754-2.643 2.65-2.203 3.547.44.897 2.282 2.339 3.804 2.26 1.521-.077 3.003.585 3.603.235.6-.351 3.203-3.352 3.884-.663l.08.896z"/><path fill="#ffd100" d="M539.884 353.252s1.519-7.06 4.05-10.181c0 0 3.204-.821 4.385 0 1.181.821-.168-.985 1.181.657 1.35 1.642 1.35 7.882 1.35 7.882l1.687 1.478c-4.386 1.97-12.653.164-12.653.164z"/><path d="M552.197 352.893c-4.05 2.135-12.315.493-12.315.493s-1.35 3.12 0 2.627c1.35-.492.675 1.15 2.024 0 1.35-1.15 1.35-1.478 1.35-1.478s7.76 0 9.278-.492z"/><path fill="none" d="M544.794 344.092s.547.14 1.234.204m-1.27.68s.537.133 1.23.188m-1.265.696s.527.125 1.226.172m-1.261.713s.516.117 1.221.155m-1.257.73s.506.109 1.218.138m-1.253.746s.495.102 1.213.122m-1.249.762s.486.095 1.21.106m-1.245.778s.475.087 1.205.09m-1.24.795s.464.08 1.2.073m-1.236.811s.454.072 1.197.057m-1.232.828s.444.064 1.192.04m1.673-8.516c.518-.078.987-.266 1.26-.645m-1.33 1.497c.58-.091 1.143-.3 1.54-.72m-1.611 1.571c.644-.103 1.3-.334 1.821-.793m-1.891 1.644c.706-.115 1.456-.367 2.102-.866m-2.173 1.718c.77-.128 1.613-.402 2.383-.94m-2.453 1.79a7.042 7.042 0 0 0 2.664-1.013m-2.734 1.865a8.377 8.377 0 0 0 2.944-1.087m-3.015 1.938a9.789 9.789 0 0 0 3.226-1.16m-3.296 2.012a11.268 11.268 0 0 0 3.506-1.234m-3.576 2.085a12.81 12.81 0 0 0 3.787-1.308m-3.858 2.16a14.408 14.408 0 0 0 4.069-1.382m-6.396-11.224-2.682 2.495m.953-2.55-1.77 2.464m.04-2.518-.857 2.432m-.873-2.487.056 2.401m-1.785-2.455.969 2.37m-2.7-2.425 1.883 2.339m-.881-2.144 1.161 2.222"/></g><path fill="none" stroke="#000" stroke-width=".237" d="M554.84 256.035s2.26-2.996 8.94-.382"/><path fill="#ffd100" stroke="#000" stroke-width=".477" d="M504.275 244.047s2.718 85.612.495 117.776m-.495-117.776c-3.227-.473-8.633 0-8.633 0s-2.718 85.612-.494 117.776c0 0 5.9-.71 9.622 0"/><path d="M499.694 247.995c-.598.002-1.177.009-1.732.018-.895.016-1.679.044-2.44.072-.005.1-.009.308-.012.411a123.77 123.77 0 0 1 8.898-.013l-.012-.412a122.504 122.504 0 0 0-4.701-.076zm-.046 2.998a122.39 122.39 0 0 0-4.208.082l-.011.413c2.416-.083 5.545-.124 9.06-.003l-.01-.412a130.766 130.766 0 0 0-4.83-.08zm-.047 3a140.11 140.11 0 0 0-4.243.074l-.012.412c2.444-.077 5.636-.114 9.225.007l-.01-.412a141.394 141.394 0 0 0-4.96-.082zm-.047 3a151.165 151.165 0 0 0-4.278.065l-.011.414a154.8 154.8 0 0 1 9.389.018l-.012-.413a153.552 153.552 0 0 0-5.088-.083zm-1.757 3.01c-.953.009-1.798.027-2.595.047l-.01.413c2.495-.063 5.803-.09 9.534.027l-.01-.412c-2.532-.08-4.89-.095-6.918-.075zm-.041 2.995c-.964.007-1.822.023-2.625.04l-.01.414a186.07 186.07 0 0 1 9.676.037l-.01-.412a188.731 188.731 0 0 0-7.03-.08zm-.042 2.998c-.975.006-1.845.018-2.654.033l-.01.414c2.536-.048 5.956-.063 9.818.048l-.01-.412a210.449 210.449 0 0 0-7.143-.083zm-.044 2.998c-.986.004-1.867.015-2.681.027l-.01.41c2.559-.04 6.03-.048 9.96.058a57.638 57.638 0 0 1-.01-.411 239.779 239.779 0 0 0-7.259-.084zm-.041 2.995c-.997.002-1.891.01-2.71.02-.005.153-.007.26-.01.413 2.579-.03 6.1-.033 10.1.068l-.009-.415c-2.721-.069-5.233-.09-7.37-.086zm-.04 3c-1.006 0-1.91.005-2.734.011-.004.134-.006.276-.008.411 2.596-.021 6.164-.019 10.224.076-.004-.135-.006-.277-.008-.411a329.156 329.156 0 0 0-7.474-.087zm-.044 2.996c-1.013-.002-1.924 0-2.75.003-.005.138-.007.273-.01.412 2.612-.012 6.229-.002 10.347.085l-.01-.412a411.045 411.045 0 0 0-7.578-.088zm-.04 2.997c-1.158-.005-1.862 0-2.771.002l-.01.412c2.646-.004 6.115.006 10.468.086l-.009-.41c-2.85-.053-5.473-.08-7.68-.09zm-2.825 2.99c-.004.136-.004.276-.007.411 2.655.006 6.165.025 10.572.095-.004-.135-.004-.275-.007-.41a757.85 757.85 0 0 0-10.558-.095zm-.051 2.988c-.004.138-.005.274-.008.413 2.626.014 5.523.034 10.676.102-.004-.138-.005-.273-.008-.411-5.145-.069-8.036-.09-10.661-.104zm-.052 2.985c-.004.14-.005.272-.007.412l10.779.113c-.004-.14-.005-.272-.008-.412l-10.765-.113zm-.045 2.983c0 .137-.004.277-.006.414 2.629.04 5.604.082 10.866.121 0-.137-.004-.277-.006-.413-5.258-.04-8.229-.081-10.854-.122zm-.042 2.99c0 .138-.004.274-.006.412 2.69.05 6.344.107 10.95.128 0-.139-.004-.276-.006-.414a755.72 755.72 0 0 1-10.938-.125zm-.042 2.986c0 .139-.004.274-.006.413 2.697.062 6.382.127 11.034.132 0-.139-.004-.273-.006-.411a492.86 492.86 0 0 1-11.023-.134zm-.037 2.996c0 .137-.004.275-.004.411 2.694.072 6.601.14 11.103.13 0-.138-.004-.275-.004-.412-4.499.01-8.405-.057-11.095-.129zm-.03 2.988c0 .138-.004.275-.004.413 2.7.082 6.628.156 11.163.13 0-.138-.004-.274-.004-.412-4.533.026-8.46-.048-11.154-.13zm-.03 2.99c0 .137-.004.274-.004.411 2.704.094 6.653.174 11.222.131 0-.137-.004-.274-.004-.411a259.83 259.83 0 0 1-11.213-.131zm-.027 2.99v.411c2.713.106 6.661.2 11.272.14v-.414c-4.612.061-8.561-.032-11.269-.137zm-.015 2.987v.412c2.715.118 6.67.22 11.303.142v-.414c-4.635.078-8.591-.023-11.3-.14zm-.015 2.991v.412c2.717.128 6.678.238 11.334.14 0-.136 0-.274-.004-.41-4.658.097-8.62-.013-11.33-.142zm-.015 2.989c0 .136-.004.276-.004.413 2.72.14 6.686.255 11.364.14v-.412c-4.68.116-8.649-.001-11.36-.141zm0 2.991v.413c2.717.15 6.674.273 11.357.138v-.412a136.4 136.4 0 0 1-11.358-.139zm.004 2.991v.412c2.714.162 6.662.29 11.351.137v-.412a123.88 123.88 0 0 1-11.351-.137zm.004 2.99v.412c2.713.172 6.65.308 11.345.135v-.413c-4.7.174-8.642.038-11.345-.134zm.018 2.994c0 .14.004.273.004.412 2.705.182 6.627.32 11.3.13 0-.14.004-.273.004-.413-4.684.193-8.612.052-11.308-.13zm.027 2.993c0 .138 0 .276.004.413 2.697.19 6.594.333 11.248.125 0-.137 0-.275.004-.411-4.666.21-8.567.065-11.255-.127zm.026 2.995c0 .134.004.278.004.413 2.689.199 6.56.345 11.194.119 0-.134.004-.278.004-.412-4.647.228-8.524.08-11.203-.12zm.04 2.996c0 .137.003.274.006.411 2.678.208 6.512.356 11.11.113.004-.137.005-.274.007-.412a85.642 85.642 0 0 1-11.123-.112zm.05 2.995.01.414c2.662.215 6.45.363 11 .105.005-.14.007-.273.01-.413-4.57.261-8.368.11-11.02-.106zm.067 3c.004.136.006.278.009.413 2.644.22 6.38.366 10.868.096l.01-.41c-4.51.273-8.254.123-10.888-.099zm.082 3.002.012.411c2.62.224 6.29.367 10.697.086l.012-.41c-4.432.285-8.111.138-10.721-.087zm.1 3.003c.004.14.01.276.015.414 2.59.225 6.184.36 10.492.073l.015-.411c-4.337.293-7.941.152-10.523-.076zm.12 3.006.02.415c2.552.225 6.056.354 10.243.063l.02-.416c-4.22.297-7.738.165-10.283-.062zm.147 3.011.025.415c2.504.222 5.903.336 9.939.047l.025-.415c-4.076.297-7.49.177-9.989-.047z"/><path fill="none" stroke="#000" stroke-width=".955" d="M502.2 357.346c.603.067 1.275.13 2.01.182m-2.003-3.16c.612.063 1.295.122 2.044.173m-2.037-3.153c.62.06 1.316.118 2.079.166m-2.071-3.145c.629.058 1.335.112 2.112.157m-2.105-3.135c.638.054 1.356.105 2.146.148m-2.139-3.127c.647.05 1.376.099 2.18.14m-2.172-3.12c.654.049 1.396.094 2.214.133m-2.207-3.111c.663.045 1.416.087 2.248.124m-2.24-3.103c.671.042 1.436.08 2.281.115m-2.274-3.094c.68.039 1.457.075 2.316.107m-2.31-3.086c.69.036 1.478.069 2.35.099m-2.342-3.078a158.4 158.4 0 0 0 2.384.09m-2.376-3.069c.706.03 1.517.057 2.417.082m-2.41-3.06c.715.026 1.538.05 2.452.073m-2.445-3.052c.724.023 1.558.044 2.486.065m-2.479-3.044c.733.02 1.579.038 2.52.057m-2.512-3.036c.74.017 1.598.032 2.553.048m-2.546-3.027c.75.014 1.619.026 2.588.04m-2.653-3.019c.759.011 1.64.02 2.622.032m-2.69-3.01 2.656.023m-2.723-3.002c.775.004 1.68.008 2.689.015m-2.757-2.993c.784 0 1.7.002 2.723.007m-2.791-2.986c.792-.002 1.72-.004 2.757-.002m-2.825-2.977c.801-.005 1.74-.01 2.791-.01m-2.86-2.969c.81-.008 1.761-.016 2.826-.018m-2.893-2.96c.818-.011 1.78-.022 2.86-.027m-2.928-2.952c.827-.014 1.801-.028 2.893-.035m-2.961-2.943c.836-.018 1.821-.035 2.927-.044m-2.995-2.935c.845-.02 1.842-.04 2.961-.052m-3.029-2.927c.853-.023 1.862-.046 2.995-.06m-3.063-2.918a176.79 176.79 0 0 1 3.03-.068m-3.098-2.91c.87-.03 1.903-.06 3.063-.077m-3.13-2.902c.878-.033 1.922-.065 3.096-.085m-3.165-2.894c.888-.036 1.943-.07 3.131-.093m-3.199-2.886c.897-.039 1.964-.076 3.165-.101m-3.233-2.877a132.4 132.4 0 0 1 3.2-.11m-3.267-2.869c.913-.045 2.003-.088 3.232-.118m-3.3-2.86a120.39 120.39 0 0 1 3.266-.127m-8.615 110.506c.603.066 1.275.13 2.01.182m-2.072-3.17a59.14 59.14 0 0 0 2.044.174m-2.106-3.162c.62.06 1.315.117 2.078.165m-2.14-3.153a67.88 67.88 0 0 0 2.111.157m-2.174-3.145c.637.054 1.356.105 2.146.149m-2.209-3.137c.647.051 1.376.1 2.18.14m-2.242-3.128a88.14 88.14 0 0 0 2.214.132m-2.276-3.12c.663.045 1.416.087 2.248.124m-2.31-3.112c.671.042 1.436.081 2.281.116m-2.344-3.104c.68.039 1.457.075 2.316.107m-2.378-3.095c.689.036 1.477.07 2.35.1m-2.413-3.087c.698.032 1.498.062 2.384.09m-2.446-3.078c.707.029 1.518.056 2.418.082m-2.48-3.07c.715.026 1.538.05 2.452.073m-2.515-3.061c.724.023 1.559.044 2.486.065m-2.548-3.053c.732.02 1.579.038 2.52.057m-2.53-3.045c.74.017 1.598.033 2.553.049m-2.501-3.036c.75.013 1.619.026 2.587.04m-2.535-3.028 2.621.032m-2.569-3.02c.767.008 1.66.015 2.656.024m-2.603-3.01c.775.003 1.68.007 2.69.014m-2.638-3.002c.784 0 1.7.002 2.723.007m-2.67-2.995c.792-.002 1.72-.004 2.757-.002m-2.705-2.986c.801-.005 1.74-.01 2.791-.01m-2.739-2.977a351.3 351.3 0 0 1 2.825-.019m-2.772-2.969c.818-.01 1.78-.022 2.859-.026m-2.807-2.961a259.76 259.76 0 0 1 2.893-.035m-2.84-2.953a231.34 231.34 0 0 1 2.926-.043m-2.874-2.944c.844-.02 1.841-.04 2.96-.052m-2.908-2.936c.853-.023 1.862-.046 2.995-.06m-2.943-2.927c.862-.027 1.883-.052 3.03-.068m-2.977-2.92a165.1 165.1 0 0 1 3.063-.076m-3.01-2.911a155.32 155.32 0 0 1 3.096-.085m-3.044-2.903c.887-.035 1.943-.07 3.13-.093m-3.078-2.894c.896-.04 1.963-.077 3.165-.102m-3.113-2.886c.905-.042 1.984-.082 3.2-.11m-3.147-2.877a130.3 130.3 0 0 1 3.232-.119m-3.18-2.869c.922-.048 2.024-.095 3.267-.126"/><path fill="#fff" stroke="#000" stroke-width=".473" d="M428.456 412.12c-.882 3.218-2.645 11.37-2.645 11.37 17.655 7.98 67.439 8.345 72.072 8.363v.006l.447-.003.434.003v-.006c4.645-.017 55.936-.372 73.614-8.362 0 0-1.763-8.153-2.645-11.371 0 0-2.204 7.295-71.41 8.582-69.206-1.287-69.867-8.582-69.867-8.582z"/><g stroke="#000"><path fill="#fff" stroke-width=".473" d="M557.333 410.49c.97-2.456 8.93-2.267 15.141-.378 6.212 1.89 9.706 1.323 23.1 1.512 13.394.189 20.964 3.212 22.13 3.59 1.164.378 21.352 10.015 29.117 12.472 7.764 2.456 15.14 0 15.14 0s-8.929 8.503-21.546 1.7c0 0 10.482 5.67 17.276 6.425 0 0-10.138 2.07-18.709-1.535a20.8 20.8 0 0 1-2.255-1.11c-5.365-2.595-10.146-4.608-14.462-6.17-24.561-8.893-34.114-3.23-50.956-7.436"/><path fill="none" stroke-width=".473" d="M623.204 426.54c7.888 2.595 11.698 4.985 16.015 6.548m-15.045-7.986c6.846 2.367 10.777 4.639 14.976 6.214m-14.005-7.652c5.803 2.14 9.854 4.292 13.937 5.88m-12.967-7.318c4.76 1.912 8.933 3.946 12.898 5.546m-11.927-6.983c3.717 1.684 8.01 3.598 11.859 5.21"/><path fill="none" stroke-width=".418" d="M613.957 422.736s-11.049-3.247-19.596-2.233m18.345.203s-10.371-2.84-19.491-2.08m18.24.051s-9.693-2.435-19.387-1.928m18.136-.101s-9.016-2.03-19.282-1.776m18.032-.253s-8.339-1.624-19.179-1.624"/><path fill="none" stroke-width=".473" d="M579.56 412.792s-4.984-1.183-9.996-1.888c-4.27-.601-8.56-.855-9.807.265m20.742 3.348s-5.823-.634-10.52-1.772m11.458 3.497s-6.661-.084-11.044-1.655m11.982 3.38s-7.5.465-11.567-1.538m12.512 3.098s-8.348.906-12.104-1.268"/><path fill="#fff" stroke-width=".492" d="M557.377 410.128c1.152 2.172 7.757.954 12.002 2.3-1.023.874-3.938 2.413-12.135 3.938-1.358-4.965.133-6.238.133-6.238z"/></g><g stroke="#000" stroke-width=".237"><path fill="#ffd100" d="M485.809 367.992h28.295v25.72h-28.295z"/><path fill="none" stroke-linecap="round" d="M499.794 392.692c1.856 0 3.652-.09 5.311-.257m-5.31-1.121c1.855 0 3.65-.09 5.31-.257m-5.31-1.122c1.855 0 3.65-.09 5.31-.257m-5.31-1.121c1.855 0 3.65-.09 5.31-.257m-5.31-1.122c1.855 0 3.65-.09 5.31-.257m-5.31-1.121c1.855 0 3.65-.09 5.31-.257m-5.31-1.122c1.855 0 3.65-.09 5.31-.257m-5.31-1.121a54.065 54.065 0 0 0 5.31-.257m-5.31-1.122c1.855 0 3.65-.09 5.31-.257m-5.31-1.122c1.855 0 3.65-.09 5.31-.257m-5.31-1.121c1.855 0 3.65-.09 5.31-.257m-5.31-1.122c1.855 0 3.65-.09 5.31-.257m-5.31-1.121c1.855 0 3.65-.09 5.31-.257m-5.31-1.122c1.855 0 3.65-.09 5.31-.257m-5.31-1.121a54.065 54.065 0 0 0 5.31-.257"/><path fill="#fff" stroke-linecap="round" d="M513.916 390.293c-1.08.597-2.572 1.118-4.362 1.529m4.362-2.922c-1.08.597-2.572 1.118-4.362 1.528m4.362-2.921c-1.08.597-2.572 1.118-4.362 1.528m4.362-2.922c-1.08.598-2.572 1.119-4.362 1.53m4.362-2.923c-1.08.598-2.572 1.119-4.362 1.529m4.362-2.922c-1.08.598-2.572 1.118-4.362 1.529m4.362-2.922c-1.08.597-2.572 1.118-4.362 1.529m4.362-2.922c-1.08.597-2.572 1.118-4.362 1.529m4.362-2.922c-1.08.597-2.572 1.118-4.362 1.528m4.362-2.921c-1.08.597-2.572 1.118-4.362 1.528m4.362-2.922c-1.08.598-2.572 1.119-4.362 1.53m4.362-2.923c-1.08.598-2.572 1.119-4.362 1.529m4.362-2.922c-1.08.598-2.572 1.119-4.362 1.529m4.362-2.922c-1.08.597-2.572 1.118-4.362 1.529m4.362-2.922c-1.08.597-2.572 1.118-4.362 1.529"/><path fill="none" stroke-linecap="round" d="M493.288 373.001c-2.665-.353-4.945-.916-6.599-1.617m6.6 3.005c-2.666-.354-4.946-.916-6.6-1.617m6.6 3.004c-2.666-.353-4.946-.916-6.6-1.617m6.6 3.005c-2.666-.354-4.946-.916-6.6-1.617m6.6 3.004c-2.666-.353-4.946-.916-6.6-1.617m6.6 3.005c-2.666-.353-4.946-.916-6.6-1.617m6.6 3.004c-2.666-.353-4.946-.915-6.6-1.616m6.6 3.004c-2.666-.353-4.946-.916-6.6-1.617m6.6 3.004c-2.666-.353-4.946-.915-6.6-1.616m6.6 3.004c-2.666-.353-4.946-.916-6.6-1.617m6.6 3.004c-2.666-.353-4.946-.915-6.6-1.616m6.6 3.004c-2.666-.353-4.946-.916-6.6-1.617m6.6 3.005c-2.666-.354-4.946-.916-6.6-1.617m6.6 3.004c-2.666-.353-4.946-.916-6.6-1.617m6.6 3.005c-2.666-.354-4.946-.916-6.6-1.617"/><path fill="#c8102e" d="M499.794 360.342a14.507 3.68 0 0 0-14.507 3.68 14.507 3.68 0 0 0 .23.621v3.522a14.507 3.68 0 0 0-.23.622 14.507 3.68 0 0 0 .23.648v.674h.74a14.507 3.68 0 0 0 13.537 2.358 14.507 3.68 0 0 0 13.523-2.358h.896v-.928a14.507 3.68 0 0 0 .088-.394 14.507 3.68 0 0 0-.088-.347v-4.071a14.507 3.68 0 0 0 .088-.348 14.507 3.68 0 0 0-14.507-3.68zm0 2.488a14.507 3.68 0 0 1 .904.011 14.507 3.68 0 0 1 .734.014 14.507 3.68 0 0 1 .644.025 14.507 3.68 0 0 1 .789.036 14.507 3.68 0 0 1 .663.043 14.507 3.68 0 0 1 .713.051 14.507 3.68 0 0 1 .723.067 14.507 3.68 0 0 1 .617.061 14.507 3.68 0 0 1 .733.09 14.507 3.68 0 0 1 .563.074 14.507 3.68 0 0 1 .725.113 14.507 3.68 0 0 1 .495.082 14.507 3.68 0 0 1 .612.118 14.507 3.68 0 0 1 .394.076h-.021a14.507 3.68 0 0 1 4.347 1.572 14.507 3.68 0 0 1-13.635 2.437 14.507 3.68 0 0 1-13.635-2.433 14.507 3.68 0 0 1 10.821-2.366 14.507 3.68 0 0 1 1.434-.054 14.507 3.68 0 0 1 1.38-.017z"/><path fill="#fff" d="M499.794 362.83a14.507 3.68 0 0 0-13.635 2.437 14.507 3.68 0 0 0 13.635 2.433 14.507 3.68 0 0 0 13.635-2.437 14.507 3.68 0 0 0-13.635-2.433z"/><path fill="#fff" d="M499.478 360.346a14.507 3.68 0 0 0-1.164.016v2.49a14.507 3.68 0 0 1 1.164-.02zm7.948.55v2.492a14.507 3.68 0 0 1 1.164.204V361.1a14.507 3.68 0 0 0-1.164-.204zm-16.092.14a14.507 3.68 0 0 0-1.163.237v2.487a14.507 3.68 0 0 1 1.163-.235zm17.644 5.827a14.507 3.68 0 0 1-1.358.249v4.766a14.507 3.68 0 0 0 1.358-.249zm-13.378.675v4.77a14.507 3.68 0 0 0 1.357.087v-4.77a14.507 3.68 0 0 1-1.357-.087z"/><path fill="#c8102e" d="M514.213 391.206a15.543 3.677 0 0 1-2.15.89 14.507 3.68 0 0 1-12.268 1.729 14.507 3.68 0 0 1-12.24-1.712 15.543 3.677 0 0 1-2.037-.824v3.002a14.507 3.68 0 0 0-.23.622 14.507 3.68 0 0 0 .23.647v.674h.74a14.507 3.68 0 0 0 13.536 2.358 14.507 3.68 0 0 0 13.523-2.358h.896v-.927a14.507 3.68 0 0 0 .087-.394 14.507 3.68 0 0 0-.087-.347z"/><path fill="#c8102e" d="M485.809 370.448v4.123l5.193 18.492a14.507 3.68 0 0 0 1.217.211z"/><path fill="#c8102e" d="m495.65 372.31-4.584 20.765a14.507 3.68 0 0 0 1.101.191l4.614-20.881a14.507 3.68 0 0 1-1.13-.074zm12.92-.602a14.507 3.68 0 0 1-1.21.21l-5.614 21.868a14.507 3.68 0 0 0 1.165-.05z"/><path fill="#c8102e" d="m495.635 372.31 5.731 21.491a14.507 3.68 0 0 0 1.146-.046l-5.698-21.368a14.507 3.68 0 0 1-1.179-.077zm13.249-.663a14.507 3.68 0 0 1-1.103.206l5.617 19.342.705-.196v-1.375z"/><path fill="#fff" d="M514.197 391.215a15.543 3.677 0 0 1-1.267.583v4.657a14.507 3.68 0 0 0 .387-.22h.88zm-23.335 1.82v4.77a14.507 3.68 0 0 0 1.267.225v-4.77a14.507 3.68 0 0 1-1.267-.224zm11.783.714a14.507 3.68 0 0 1-1.267.052v4.766a14.507 3.68 0 0 0 1.267-.048z"/></g><path fill="none" stroke="#000" stroke-width=".473" d="M501.574 242.681h2.499m-2.561-1.39h2.499m-2.561-1.39h2.499m-2.561-1.39h2.499m-2.561-1.39h2.498m-2.56-1.39h2.498m-2.56-1.39h2.498m-2.56-1.39h2.498m-2.56-1.39h2.498m-2.56-1.39h2.498m-2.56-1.39h2.498m-2.56-1.39h2.498m-2.561-1.39h2.499m-2.561-1.39h2.499m-2.561-1.39h2.499m-2.561-1.39h2.499m-2.561-1.39h2.499m-2.561-1.39h2.498m-2.56-1.39h2.498m-2.56-1.39h2.498m-2.56-1.39h2.498m-2.56-1.39h2.498m-2.56-1.39h2.498m-2.56-1.39h2.498"/><g fill="#007a33" stroke="#000"><path stroke-width=".473" d="M495.484 199.172c-23.646-3.043-31.12-.794-32.207-.397-1.087.397-16.307 4.497-22.286 14.286-5.98 9.79-1.359 13.493-1.359 13.493-1.087-2.249 2.854-10.583 2.854-10.583-1.903 3.44.543 9.26.543 9.26-.815-1.72.952-6.878.952-6.878l1.358 4.1c0-2.38 1.223-8.069 1.223-8.069.136 7.408 1.631 8.73 1.631 8.73-1.359-1.851.951-13.228.951-13.228-1.358 6.747.816 8.202.816 8.202 0-7.937 3.94-12.038 3.94-12.038-4.212 4.63-1.222 11.377-1.222 11.377.407-7.805 6.522-14.022 6.522-14.022-5.707 5.952-2.31 9.92-2.31 9.92.136-5.026 8.97-12.301 8.97-12.301-3.806 3.571-3.67 7.936-3.67 7.936 1.495-2.777 7.202-8.201 7.202-8.201-1.359 1.852-2.582 6.746-2.582 6.746l1.767-1.058 4.892-5.82-2.99 4.497 2.99-1.323 3.397-3.042-1.494 1.984 2.446-.661 2.446-2.778-1.495 1.984h3.533l1.495-1.455-.68 1.587 2.582.133.816-1.455-.136 1.455h1.223l1.087-2.117-.408 2.117s2.854 0 3.398.661c.543.661-17.395 5.424-17.395 5.424s3.941 0 4.213 1.058c.272 1.058-8.969 2.513-8.969 2.513l4.485 1.852-8.97 1.19 6.524.795-11.28 2.645h10.328l-10.871 2.117 6.93.926-9.104 1.323 8.697.793-9.377 3.836 5.028-.793c-9.92 9.26-6.387 15.874-6.387 15.874.68-2.91 5.164-9.657 5.164-9.657-1.087 8.598 1.36 11.64 1.36 11.64.27-2.38 3.396-14.55 3.396-14.55.544 2.778.816 10.715.816 10.715 2.31-1.852 1.359-11.112 1.359-11.112l3.669 3.44c-1.767-2.91-1.36-9.657-1.36-9.657 1.088 1.19 2.447 5.82 2.447 5.82a2650.35 2650.35 0 0 1 1.223-8.863c0 2.778 2.174 8.202 2.174 8.202l.816-9.26c.136 2.249 2.717 6.746 2.717 6.746v-10.053l1.767 4.497.272-7.01.815 8.201 1.495-1.72-1.223-.132.544-.265 1.494-8.069 2.31 3.704.816-2.381-.544-3.836c.816.264 2.039 2.645 2.039 2.645v-4.894l2.174.926 3.261-4.63-2.038 3.704 3.125-1.852-3.669 2.778 2.31.926-5.163.53v1.322l4.62.397c-6.523 1.058-6.659 2.91-6.659 2.91l6.251-.265c-4.892-.132-8.425 3.307-8.425 3.307l7.474-.264c-6.93.53-9.784 3.175-9.784 3.175l8.697.529c-4.349-.397-9.105 4.233-9.105 4.233l5.708.132c-5.3.53-6.523 3.44-6.523 3.44l4.62.132c-4.756 2.646-5.028 7.143-5.028 7.143l5.3-4.1c-5.572 4.762-3.67 8.73-3.67 8.73l3.398-3.836c-4.756 4.497-3.669 7.672-3.669 7.672l3.533-3.704c-1.766 11.244.68 11.509.68 11.509l.815-11.376c2.99 1.455 4.892 8.069 4.892 8.069l-2.582-10.45c2.854 1.984 3.67 6.085 3.67 6.085 1.086-4.763-3.398-10.98-3.398-10.98l5.572 6.879-4.213-10.45 4.892 7.143c.136-6.747-3.805-10.98-3.805-10.98l5.98 5.027c-.272-2.117-3.398-7.672-3.398-7.672 1.223.925 3.533 3.703 3.533 3.703-.815-3.307-4.212-7.143-4.212-7.143 1.63.397 4.348 3.704 4.348 3.704 0-1.852-1.902-8.73-1.902-8.73l2.038 4.232-.815-6.878 1.766 2.645-.407-4.762 1.223.265.815-5.688-.408 5.82-1.359-.53.408 4.63 4.213-4.497-2.446 8.07 4.212-3.837-3.397 7.011 4.892-5.556-3.669 9.128 3.94-3.307-3.668 6.614c2.038 0 6.115-4.365 6.115-4.365-2.038 1.19-5.028 8.466-5.028 8.466 2.582 0 4.348-4.498 4.348-4.498l-4.212 7.54c2.582-.793 5.435-5.556 5.435-5.556.544 2.646-4.484 11.244-4.484 11.244 1.63 0 4.213-2.116 4.213-2.116s.407-1.72-1.36 1.455c-1.766 3.175-5.843 7.011-5.843 7.011 3.534.132 6.93-4.498 6.93-4.498.544 2.117-4.212 10.45-4.212 10.45 3.398-.264 6.251-9.524 6.251-9.524 1.087 1.19 1.767 11.906 2.039 10.583.272-1.323.136-14.551.136-14.551.679.926 3.457 6.982 3.457 6.982.203-2.958-3.038-14.393-3.038-14.393l3.848 6.9-4.658-13.21 5.671 6.704-7.089-13.407 3.646 5.323c-1.215-9.069-7.292-9.069-7.292-9.069 7.292-.986 7.9 7.887 7.9 7.887 1.62-.395 1.417-4.93 1.417-4.93l.405 2.17 1.216 7.491.81-6.506v8.084c0 .788 2.43-4.732 2.43-4.732.608.986.608 7.69.608 7.69l2.025-5.324c1.215 3.154.405 8.478.405 8.478 2.026 0 2.633-4.732 2.633-4.732l2.43 6.9-.202-5.126c-.202-5.126-7.291-15.181-9.114-16.167-1.823-.986-8.912-3.155-8.912-3.155l-6.684-6.112 6.684 6.112c.81-.985-.81-5.914-.81-5.914l5.266 6.703c1.215-2.366-1.215-6.31-1.215-6.31 1.62 1.775 6.279 8.282 6.279 8.282.607-2.366-1.216-7.69-1.216-7.69 1.418 1.38 6.482 9.464 6.482 9.464-.203-.788-3.039-8.872-3.039-8.872 3.444 2.957 6.887 12.421 6.887 12.421 1.013-3.155-1.418-11.435-1.418-11.435l5.874 13.604c.607-2.76-.405-8.281-.405-8.281 1.823 1.577 4.86 8.675 4.86 8.675-.404-4.14-1.62-9.266-1.62-9.266l5.266 9.463-1.012-6.309 3.24 6.9-1.62-6.111 4.456 6.112-3.646-6.507 5.266 5.127s-7.696-9.267-9.317-10.647c-1.62-1.38-16-6.506-19.241-8.084-3.24-1.577-17.419-.788-17.419-.788l4.254-.197-.81-1.775.81 1.577h2.835l-1.62-1.577 1.215 1.775h4.861l-3.24-2.76c1.62.788 3.24 2.562 3.24 2.562l2.43.198-1.62-3.352 2.431 3.746 4.05.788c-.607-1.774-3.037-4.534-3.037-4.534 1.62 1.577 3.645 4.732 3.645 4.732l3.444 1.183c0-1.775-2.836-5.718-2.836-5.718 2.43 1.972 4.456 6.112 4.456 6.112.202-1.577-1.215-6.31-1.215-6.31 1.62.987 4.253 7.099 4.253 7.099.203-1.775-.203-7.098-.608-6.901 1.216 1.38 3.849 8.478 3.849 8.478v-6.9c.81 0 3.038 7.491 3.038 7.491 1.215-2.76-.203-8.478-.203-8.478 1.013 1.972 3.24 8.281 3.24 8.281l.406-2.76.608 5.126.607-4.337 1.823 4.731c-.202-2.76-2.43-10.252-2.43-10.252 1.62 1.577 5.873 10.844 5.873 10.844v-3.352l1.216 5.324c1.822-5.324-2.026-11.239-2.026-11.239 2.836 3.944 3.848 9.07 3.848 9.07l1.216-2.76c1.215 1.971 1.215 7.097 1.215 7.097 1.62-5.52-1.62-10.45-1.62-10.45 3.443 2.564 5.468 13.013 5.468 13.013l.608-8.083c1.012 1.971 2.935 8.114 2.935 8.114.462-3.421-1.018-9.182-2.96-11.703-1.942-2.52-3.514-5.131-15.72-7.652-12.208-2.52-41.708-.36-41.708-.36l4.716-.99c3.052-2.34 10.08-.36 10.08-.36l1.757.09s-.277-1.98-.37-2.7c-.092-.721 3.33 2.34 3.33 2.34l1.202.09v-3.421l4.993 3.69 1.85.27-3.237-4.23c1.85 1.71 7.399 3.87 7.399 3.87-.37-1.53-4.532-4.77-4.532-4.77 1.387 0 7.12 5.04 7.12 5.04l-3.42-3.87 8.23 3.78c-.555-.99-3.33-3.78-3.33-3.78 3.237 2.88 9.896 4.591 9.896 4.591l-7.861-6.121 9.803 7.471c-1.572-4.68-6.381-8.822-6.381-8.822 2.404.36 11.56 9.182 11.56 9.182 0-3.51-3.422-7.651-3.422-7.651 2.404.81 8.508 8.912 8.508 8.912.277-2.16-3.237-7.832-3.237-7.832 1.85.9 6.843 7.922 6.843 7.922 1.11-4.051-3.606-7.652-3.606-7.652l9.467 5.062c-4.936-7.208-14.9-9.61-16.089-10.055-1.188-.445-9.964-.445-17.552-.178-7.587.267-17.277 4.538-17.734 4.627-.458.09-8.228 2.403-8.228 2.403l-2.102-.801 2.65.623 3.657-.979-3.656-2.225 4.753 1.78 2.468-.89-3.565-2.047 3.84 1.691 5.668-2.047-6.491-2.402 10.239.089-7.77-2.67 12.615 2.047c-1.097-1.335-4.663-2.492-4.663-2.492 2.56 0 8.41 1.335 8.41 1.335-1.096-1.246-6.124-3.47-6.124-3.47 2.742.534 10.056 2.67 10.056 2.67l-5.394-3.65c.731.268 5.21 1.958 5.21 1.958-.913-1.601-3.839-2.936-3.839-2.936 1.189 0 9.965 4.182 9.965 4.182-1.92-3.025-6.125-7.297-6.125-7.297l5.393 3.293-3.108-3.47 8.045 3.648c-2.743-3.738-8.868-5.873-10.696-6.14-1.828-.267-14.718 1.156-24.865 8.187-10.147 7.03-11.336 13.526-11.336 13.526s-10.4-21.938-28.609-23.261c0 0 2.854 2.645 8.425 3.836 0 0-6.115 1.323-7.61 3.44 0 0 6.795-.53 11.144.66 0 0-7.203 1.456-8.29 3.308 0 0 7.746-.794 11.823-.132 0 0-6.93.926-7.203 2.513 0 0 10.736 0 11.144 1.984 0 0-7.339-.264-9.241.926 0 0 9.648 1.323 11.55 2.646l-5.978.926s7.745 1.587 8.697 3.704c0 0-17.123-7.276-31.12-8.73-13.996-1.456-18.21 2.116-20.655 4.1-2.446 1.984-8.018 7.143-7.067 11.376 0 0 2.99-5.688 10.192-10.186l-6.522 7.673 7.338-5.82s-4.485 5.952-4.485 7.936c0 0 6.93-10.98 9.92-12.963 0 0-5.028 6.217-4.892 8.598 0 0 9.649-9.26 10.6-9.127 0 0-7.338 6.481-7.202 10.714 0 0 8.425-8.73 11.007-9.524 0 0-6.387 3.572-5.164 6.614l6.93-6.217-4.212 6.614 2.038-.661s2.99-5.556 7.202-5.424l-5.571 5.16 2.854-.266s3.26-3.968 7.202-5.29c0 0-5.708 4.497-5.98 5.29l1.767.133s3.397-3.44 5.98-4.101l-2.447 3.836h1.223l3.262-3.042-2.31 2.91 2.99.264 2.174-1.851-1.767 2.116h2.174l1.36-1.058-.137 1.323 3.533.132.952-1.852-.136 1.587z"/><path stroke-width=".418" d="m480.263 199.304-2.445 2.777-.272.074v.324s-9.513 3.439-16.58 9.392c-7.065 5.952-11.414 12.567-12.229 15.742-.815 3.174-.951 12.037-.951 12.037s1.358-7.408 2.173-8.466c0 0 0 4.63.68 5.688 0 0 .544-8.069.816-9.26.271-1.19.271 6.615 1.766 7.276 0 0-.408-8.334.68-10.98 0 0-.408 4.498.408 5.689 0 0 1.222-10.451 4.076-13.229 0 0-3.398 5.424-1.223 13.097l.655-2.925-.926.146.984-.402.917-4.095 1.362 3.162.55-.225.343-2.752-3.477-.318 4.165-.605.045-1.372-2.036-.271 2.058-.401.056-1.715h-1.57l1.582-.371.048-1.482.177 1.429 2.232-.524.309-1.434.306 1.29.18-.043.376-2.25-.454-.055.473-.063.342-2.054.267 1.974 1.055-.141.58-2.89.68 2.645s1.767-5.689 3.126-6.35l.107 3.462.634-.117 2.928-4.932-.054 1.61 1.151-.312 1.213-2.753.815 2.116 1.36-1.587.642 1.114c5.15-1.442 11.646-3.357 11.315-3.76-.543-.661-3.397-.661-3.397-.661l.408-2.117-1.087 2.117h-1.223l.136-1.456-.816 1.456-2.582-.133.68-1.587-1.495 1.455h-3.533zm-5.09 8.367-.074 2.215.943-2.141a16.776 16.776 0 0 0-.869-.074zm-9.01 6.717.252 1.866.321-.075.338-1.68zm-4.015 3.303.2 1.61 1.491-.29.284-1.32zm.307 2.479.143 1.156.767-.111.192-.898zm-1.24 2.22.431 1.783.057-1.74zm1.533.14.122.982.205-.953zm-2.165 3.573-.097.015.073.172z"/></g><path fill="#ffd100" stroke="#000" stroke-width=".473" d="m501.272 177.737-1.192 15.973c1.312 2.15 1.999 3.589 1.999 3.589s.225-1.214 1.29-3.153l-.522-15.78a13.264 13.264 0 0 0-1.575-.63zm2.237 20.632-.596.126.606.163z"/><path fill="#fff" stroke="#000" stroke-width=".418" d="M449.598 343.081s5.66-3.148 8.893-.131l-1.078 2.23-5.524.393z"/><path fill="#007a33" stroke="#000" stroke-width=".236" d="m453.648 336.233-.113 8.54 1.122.011.113-8.543z"/><path fill="#007a33" stroke="#000" stroke-width=".382" d="M449.765 345.881s1.14.46.912 2.113c-.228 1.653-.684 7.623 3.647 7.623 4.33 0 3.76-5.786 3.76-6.705 0-.918.342-2.664.342-2.664v-3.306s-4.33 3.123-8.66-.092z"/><path fill="#fff" d="M453.504 347.206s-.345 2.062-.345 4.129c0 1.034.08 2.069.358 2.887.139.408.325.768.62 1.05.066.063.142.12.223.173.369-.003.697-.048.988-.13l-.017-.361c-.195.006-.303-.034-.457-.182-.154-.147-.309-.413-.426-.758-.235-.689-.327-1.68-.327-2.679 0-1.997.34-4.023.34-4.023z"/><path fill="#fff" stroke="#000" stroke-width=".216" d="M458.378 345.468c-3.919 1.246-6.763.838-8.613.146v.267s.541.219.803.895c3.63 1.715 6.469.324 7.849-.669z"/><path d="m440.21 418.434-1.022-.191-1.46 7.383 4.87.913.175-.884-3.85-.722zm4.03 3.427.773.123.442-2.635-.773-.123zm7.475-1.634-.66 4.708q-.085.603-.311.965-.234.382-.568.57-.665.356-1.424.245-.338-.045-.667-.198-.324-.146-.584-.413-.243-.264-.358-.693-.127-.42-.043-1.022l.658-4.688-1.03-.137-.698 4.972q-.162 1.078.442 1.948.601.895 2.124 1.118 1.58.19 2.45-.53.862-.702 1.026-1.873l.679-4.834zm6.89 6.849-.02-.002-3.195-6.428-1.228-.125-.801 7.478 1.003.102.647-6.044.021.002 3.262 6.44 1.166.119.8-7.478-1.008-.103zm4.363-5.718-1.042-.088-.666 7.491 1.041.088zm7.428 4.316q-.108 1.336-.873 2.134-.77.808-2.034.731-1.267-.098-1.902-1.004-.656-.896-.558-2.233.1-1.357.879-2.144.759-.799 2.028-.72 1.262.097 1.908.993.64.885.552 2.243zm1.07.075q.045-.628-.072-1.328-.144-.703-.53-1.32-.386-.636-1.076-1.063-.718-.414-1.786-.499-.53-.036-.987.024-.458.066-.833.224-.75.328-1.236.904-.467.558-.7 1.234-.245.675-.291 1.302-.045.607.1 1.3.133.69.513 1.327.396.633 1.092 1.06.69.438 1.763.523.545.038 1.005-.048.457-.06.838-.224.746-.328 1.22-.9.474-.577.717-1.242.218-.667.262-1.274zm6.15 2.631-.021-.002-3.53-6.26-1.233-.063-.405 7.508 1.007.052.328-6.068h.02l3.598 6.27 1.17.06.405-7.509-1.012-.052zm6.831-1.7 3.786.12.03-.9-3.786-.12.076-2.3 4.301.135.03-.9-5.346-.168-.25 7.515 1.045.033zm8.889 1.451.719 2.203 1.14.022-2.646-7.57-1.182-.022-3.054 7.462 1.072.02.852-2.173zm-2.76-.952 1.305-3.285h.02l1.075 3.33zm6.894-4.333-1.045-.008-.061 7.519 1.045.008zm.737.916 2.611-.033.089 6.618 1.045-.013-.088-6.618 2.616-.033-.013-.9-6.273.08zm11.197-1.106-1.04.032.24 7.515 4.958-.15-.029-.9-3.918.119zm9.406 4.99.859 2.155 1.139-.048-3.129-7.394-1.18.05-2.568 7.635 1.071-.045.71-2.222zm-2.817-.782 1.09-3.358.021-.001 1.287 3.258zm9.697-.807 3.781-.236-.059-.898-3.78.236-.152-2.297 4.294-.268-.059-.899-5.338.334.495 7.503 1.043-.065zm11.36-1.167q.103 1.336-.526 2.24-.634.913-1.895 1.025-1.268.093-2.037-.707-.79-.788-.904-2.124-.116-1.356.53-2.25.624-.902 1.89-1.015 1.263-.092 2.042.697.774.78.9 2.134zm1.068-.086q-.054-.627-.28-1.302-.252-.672-.732-1.224-.481-.571-1.23-.89-.775-.302-1.844-.226-.529.043-.971.17-.443.134-.788.347-.69.436-1.079 1.078-.374.62-.498 1.323-.135.704-.082 1.331.052.607.304 1.269.241.663.717 1.235.491.566 1.246.885.75.33 1.825.252.544-.044.985-.197.442-.128.793-.347.685-.435 1.063-1.071.377-.642.513-1.335.11-.692.058-1.298zm2.358.297 2.512-.266q.46-.049.76.038.285.083.443.267.162.173.23.407.058.236.085.475.029.254.139.86.057.282.119.548.061.266.135.449l1.274-.135-.018-.168q-.24-.108-.336-.258-.09-.15-.135-.449l-.214-1.345q-.064-.385-.16-.637-.113-.245-.258-.364-.143-.144-.304-.21-.17-.058-.354-.1.176-.122.352-.3.167-.157.307-.372.139-.226.2-.526.051-.299.006-.705-.15-1.163-.957-1.52-.804-.336-1.79-.221l-3.552.376.836 7.475 1.04-.11zm-.38-3.402 2.585-.274q.427-.055.909.09.227.093.396.328.17.244.219.681.045.407-.058.67-.1.278-.31.434-.21.161-.482.231-.27.09-.568.122l-2.408.256zm12.908-.192q-.247-.962-1.132-1.568-.882-.616-2.367-.43-1.677.253-2.455 1.43-.791 1.19-.545 2.944.332 2.119 1.524 2.899 1.145.78 2.5.582.235-.032.703-.17.467-.142.969-.486.505-.354.863-1.03.359-.664.38-1.716l-1.004.14q-.032.65-.223 1.09-.195.44-.49.704-.293.252-.597.387-.31.131-.575.168-1.395.184-2.104-.627-.698-.781-.884-2.125-.205-1.47.418-2.32.584-.831 1.65-.98.297-.04.626-.045.326.017.662.14.332.125.622.4.289.27.46.752zm7.62 3.05-4.573.85-.485-2.471 4.155-.773-.174-.884-4.155.773-.443-2.261 4.5-.837-.174-.885-5.527 1.029 1.45 7.385 5.6-1.042z"/></svg>