<svg xmlns="http://www.w3.org/2000/svg" xmlns:xlink="http://www.w3.org/1999/xlink" width="1200" height="600"><path fill="#ffcd00" d="M0 0h1200v600H0Z"/><path fill="#ff8200" d="M56 56h312v488H56Z"/><path fill="#007a33" d="M56 56h156v488H56Z"/><path fill="#9b2743" d="M424 56h720v488H424Z"/><path fill="#ffcd00" stroke="#000" stroke-width="2.096" d="M502.255 449.216s-6.62 13.817-13.934 19.446c-10.836 8.341-33.055 7.738-42.486 17.469-11.3 11.475.877 26.635.775 27.951l-.62 8.007s7.619.094 10.828.607c4.824.771 6.706 4.795 15.687 4.197 22.581-1.503 21.671-22.358 22.948-40.18 1.134-6.786 3.758-15.635 5.25-22.419 1.279-5.818 1.552-15.079 1.552-15.079z"/><use xlink:href="#a" stroke="#000" stroke-width="5.56"/><g id="a"><path fill="#ffcd00" d="m671.022 482.462 4.549-2.562 1.946 2.568c2.593 3.42 9.767 3.382 14.527-.079l3.64-2.646 3.048 2.646c4.007 3.48 11.491 3.483 16.27.012 3.345-2.431 3.812-2.48 6.024-.63 1.319 1.103 5.186 2.358 8.596 2.79 6.139.778 6.232.735 9.823-4.523 3.009-4.402 3.479-6.185 2.762-10.455a116.24 113.415 0 0 1-1.139-10.126c-.272-4.958-.243-4.99 7.159-7.504 4.087-1.389 8.819-3.251 10.515-4.14 2.956-1.547 11.106-10.893 11.106-12.734 0-.488-3.184-1.237-7.075-1.662-15.48-1.694-18.1-9.804-8.038-24.867 16.41-24.567 26.313-48.49 26.379-63.73.03-6.813.427-9.1 1.324-7.619 3.667 6.054-2.902 31.438-12.852 49.667l-4.006 7.34 3.822-.858c2.103-.473 14.465-5.562 27.471-11.31 35.6-15.731 47.829-18.814 70.868-17.867 19.303.793 27.522 4.473 41.151 18.419 7.22 7.388 14.174 12.675 26.897 20.445 27.106 16.554 28.236 17.988 29.525 37.456 1.306 19.725.656 20.795-14.635 24.091-13.069 2.818-21.262 8.762-23.46 17.021-1.173 4.41 1.297 4.538 7.886.405l4.83-3.028 2.147 3.028c2.823 3.981 8.823 3.998 13.806.037l3.764-2.991 3.847 2.991c5.979 4.648 13.928 3.52 16.172-2.293.431-1.118 1.582-.76 3.913 1.217 4.368 3.703 15.564 5.292 16.772 2.38.461-1.11-.415-3.854-1.948-6.097-6.514-9.53-8.551-14.075-8.637-19.262-.117-7.215 2.089-10.696 10.5-16.564 10.217-7.128 13.374-16.324 5.604-16.324-4.797 0-9.634-4.137-12.717-10.88-6.27-13.706-5.04-29.072 4.369-54.633 9.558-25.964 10.618-30.751 10.656-48.115.03-14.04-.331-16.468-3.606-24.165-2.001-4.706-6.063-11.715-9.025-15.572l-5.386-7.016 6.915-5.59c21.115-17.067 16.796-45-8.622-55.764-7.777-3.293-9.719-3.583-23.346-3.494-8.175.054-20.642 1.103-27.702 2.332-7.2 1.254-19.384 2.26-27.743 2.294-13.279.052-15.533-.267-20.65-2.925-5.336-2.771-6.25-4.087-7.296-10.492-.214-1.317-1.158-2.63-2.096-2.92-1.815-.557-10.196 6.54-11.435 9.683-.61 1.552-1.11 1.444-2.902-.624-1.19-1.373-2.852-4.53-3.693-7.013-2.115-6.246.482-10.93 8.008-14.439l5.838-2.722-3.442-2.085c-7.105-4.301-19.186-1.359-23.555 5.738-1.235 2.007-2.584 3.653-2.996 3.657-.412.004-2.76-1.91-5.22-4.255-9.173-8.745-6.019-21.684 6.251-25.634 6.543-2.107 12.333-.5 13.537 3.757 1.839 6.499 7.556-2.044 6.53-9.759-.681-5.128-.579-5.306 3.059-5.306 5.058 0 15.825 6.477 19.155 11.524 3.868 5.862 3.587 15.093-.67 21.973l-3.342 5.401 4.371-.854c6.41-1.252 12.64-5.137 15.79-9.848 3.33-4.98 3.689-14.678.736-19.91-2.863-5.072-2.534-5.877 1.697-4.164 7.198 2.915 11.045 6.13 13.932 11.64 2.6 4.96 2.744 6.194 1.336 11.358-.868 3.186-2.8 7.378-4.293 9.315-2.324 3.017-2.403 3.522-.552 3.522 3.45 0 10.65-3.185 13.21-5.841 1.291-1.342 3.176-4.647 4.186-7.344L937 161.03l2.11 3.738c2.986 5.285 8.79 10.042 15.867 13.002 7.61 3.183 10.78 3.363 6.8.385-2.684-2.008-7.63-16.167-6.131-17.551.881-.815 11.215 6.942 23.013 17.276 11.16 9.775 18.173 12.978 28.424 12.978 13.094 0 20.718-11.122 14.833-21.638-3.432-6.131-11.076-6.982-15.545-1.732-2.056 2.415-2.62 4.336-2.017 6.868.738 3.102.45 3.516-2.447 3.516-3.806 0-11.309-4.751-24.634-15.6-20.319-16.543-45.008-30.565-62.836-35.687-11.44-3.286-35.88-4.57-47.51-2.493-12.587 2.247-27.475 9.275-35.585 16.799-14.372 13.332-14.6 31.072-.607 47.228l4.008 4.627-2.714 4.113c-3.947 5.983-3.61 14.035.838 19.966 1.959 2.613 3.935 4.749 4.391 4.747.456-.002.957-1.681 1.112-3.732.392-5.19 2.675-8.665 6.593-10.042 3.53-1.24 5.81-.655 21.967 5.639 16.999 6.619 44.953 7.074 74.677 1.215 14.572-2.872 31.755-2.703 39.314.387 13.857 5.664 17.07 20.4 6.883 31.586-4.41 4.843-8.662 6.815-22.94 10.638-10.865 2.91-13.438 3.103-38.134 2.862-21.098-.205-28.68.19-37.293 1.945-9.35 1.905-15.1 2.096-42.566 1.421l-31.755-.78 3.522 2.844c1.936 1.565 4.672 3.49 6.08 4.279 2.395 1.34 2.316 1.52-1.245 2.809-2.092.756-6.736 1.376-10.32 1.376h-6.514l-.877 5.403c-.482 2.97-.445 6.44.082 7.708.777 1.872.487 2.14-1.534 1.424-1.37-.486-5.187-1.442-8.48-2.124-3.293-.682-7.727-2.071-9.853-3.087-3.574-1.708-3.97-1.662-5.288.61-1.175 2.03-12.211 10.044-13.83 10.044-.262 0-.6-1.546-.75-3.434-.15-1.89-1.743-6.806-3.538-10.926-1.795-4.121-3.669-8.616-4.164-9.99-.749-2.072-1.087-2.178-1.99-.624-.597 1.03-1.47 3.84-1.94 6.244-.468 2.403-2.131 6.308-3.695 8.676l-2.842 4.307-1.813-3.682c-1.946-3.954-5.178-8.053-6.347-8.053-.394 0-1.067 1.264-1.494 2.809-.892 3.227-8.554 12.174-10.425 12.174-.689 0-1.253-2.528-1.253-5.619 0-3.091-.608-5.62-1.351-5.62s-1.352.8-1.352 1.777c0 2.377-6.544 9.461-8.738 9.461-.958 0-2.499.843-3.424 1.873-2.413 2.686-4.386 2.309-3.372-.644.476-1.384.166-4.615-.687-7.18l-2.017-6.065c-.322-.972-2.667-.714-7.63.839-8.02 2.509-10.708 2.065-6.584-1.088 1.508-1.152 3.802-5.142 5.097-8.869 1.295-3.727 3.207-7.032 4.247-7.346 1.457-.441 1.38.104-.338 2.37-1.226 1.617-2.233 3.799-2.238 4.848-.005 1.048-.928 3.536-2.052 5.526-1.124 1.99-1.83 3.817-1.57 4.058.26.241 3.312-.891 6.781-2.513l6.308-2.95.026 2.638c.014 1.452.774 5.283 1.69 8.511l1.663 5.872 4.293-1.925c4.388-1.968 8.543-8.983 8.543-14.422 0-2.689 1.579-2.275 2.225.582.19.839 1.18 3.986 2.202 6.994l1.856 5.47 2.94-3.454c1.616-1.9 3.644-5.625 4.504-8.28 1.494-4.606 3.839-6.588 3.839-3.242 0 2.41 6.743 11.058 8.045 10.315.629-.36 1.88-3.604 2.782-7.212 1.875-7.503 4.9-12.605 6.821-11.507.723.412 1.004 1.214.625 1.78-.378.566 1.174 5.444 3.452 10.84l5.081 12.07c.832 2 1.583 1.71 6.465-2.497 3.038-2.618 5.795-5.548 6.127-6.511.502-1.457 1.179-1.404 4.02.316 3.972 2.405 17.327 6.28 18.358 5.328.386-.358.783-3.78.88-7.605l.177-6.956 3.84.776c2.113.428 6.554.402 9.87-.059l6.03-.836-5.373-3.597c-2.955-1.978-5.944-4.538-6.641-5.688-.742-1.226-3.373-2.267-6.352-2.514-8.051-.668-22.32-8.476-22.32-12.214 0-.702 1.977.492 4.392 2.651 5.358 4.793 12.803 7.8 19.304 7.8h4.865l-3.01-3.905c-1.729-2.243-3.28-6.5-3.642-10-.58-5.582-1.185-6.468-7.157-10.52-3.588-2.433-8.031-6.08-9.874-8.104l-3.352-3.681-1.71 4.37c-.94 2.404-2.09 4.37-2.555 4.37-.464 0-2.273-1.405-4.017-3.122-1.745-1.716-3.524-3.115-3.952-3.107-.428.008-1.975 2.32-3.437 5.138l-2.657 5.125-2.054-2.954c-1.13-1.625-3.799-4.5-5.93-6.388-2.133-1.889-3.253-3.434-2.493-3.434.761 0 3.393 1.967 5.847 4.372l4.464 4.372 1.815-3.203c1.078-1.901 1.482-4.821.994-7.181-.712-3.442-.612-3.641.74-1.482.86 1.374 3.472 4.007 5.803 5.852l4.239 3.354 2.925-5.227c2.91-5.202 2.931-5.212 4.255-2.105 1.771 4.155 14.589 14.406 25.501 20.396 1.682.923.973-2.252-2.133-9.552-.822-1.933-1.495-5.419-1.495-7.745 0-3.452-1.02-4.988-5.546-8.347-6.531-4.85-8.644-8.298-9.875-16.123-.498-3.17-1.641-6.694-2.54-7.833-1.332-1.69-1.552-.744-1.197 5.139.24 3.965-.288 8.895-1.175 10.955l-1.61 3.745-1.247-3.121c-.685-1.717-3.716-4.703-6.734-6.636-3.018-1.932-5.137-3.837-4.708-4.234.429-.397 3.534 1.364 6.9 3.913 5.13 3.884 6.259 4.304 6.97 2.594.834-2.01-.001-10.754-1.614-16.864-.804-3.052-.734-3.035 3.124.729 2.845 2.775 4.418 6.086 5.637 11.861 1.548 7.338 2.329 8.56 9.283 14.518 4.176 3.578 7.81 6.303 8.076 6.058.266-.246.793-9.5 1.17-20.566.726-21.22-.094-26.27-5.332-32.825l-2.69-3.37 4.23-4.452c5.519-5.808 8.053-10.464 9.151-16.815l.895-5.167-4.774 4.411c-3.91 3.613-5.776 4.412-10.304 4.412-4.484 0-6.236-.733-9.257-3.874-3.625-3.77-10.049-7.395-16.226-9.16-2.282-.652-3.04-.368-3.04 1.138 0 1.103-1.261 4.29-2.801 7.08l-2.801 5.074-5.869-5.66c-3.6-3.472-7.872-6.175-11.05-6.99-8.12-2.082-8.56-1.876-8.56 4.027 0 8.953-3.917 10.62-10.968 4.67-5.375-4.536-9.833-5.522-20.026-4.43l-7.872.844 1.416 3.467c1.184 2.897.917 4.115-1.618 7.405-4.112 5.335-9.457 7.647-17.686 7.647-3.79 0-8.533.765-10.54 1.7-2.006.935-6.994 2.013-11.081 2.395-4.088.382-8.444 1.063-9.682 1.514-1.936.705-2.149.124-1.525-4.173.955-6.575-3.752-11.426-11.09-11.426-9.518 0-13.909 8.308-10.181 19.266a87.334 85.211 0 0 1 2.086 7.391c.446 2.03 4.733 7.415 9.986 12.542 5.062 4.942 9.845 10.084 10.631 11.427.786 1.343 3.382 3.499 5.77 4.79l4.342 2.348-.573-4.533c-.63-4.982.483-5.763 3.2-2.248.971 1.256 3.437 3.287 5.481 4.513 3.22 1.932 3.716 1.97 3.716.293 0-1.064.657-3.516 1.46-5.45l1.458-3.515 2.53 4.783c1.393 2.63 5.919 8.608 10.06 13.285 8.034 9.074 12.928 19.214 10.401 21.548-1.024.946-3.794.873-9.536-.253-4.45-.873-9.954-1.334-12.232-1.025-4.651.631-5.017.045-2.157-3.45 3.02-3.689 2.539-4.297-3.392-4.297-6.863 0-23.899-3.209-30.438-5.734-6.359-2.455-7.826-1.844-9.698 4.041l-3.427 10.665-1.896 5.848 6.88-.647c3.784-.355 8.65-1.163 10.815-1.796 2.165-.632 4.132-.968 4.372-.747.24.221-.726 2.507-2.144 5.079l-2.58 4.675 4.29-.853c2.359-.47 5.908-1.618 7.887-2.552 3.443-1.625 3.72-1.507 6.436 2.746 3.34 5.232 6.012 5.017 6.605-.531.612-5.734 2.546-4.886 6.184 2.713 3.497 7.308 7.135 9.888 7.836 5.557.231-1.44 2.116-3.78 4.186-5.203 4.189-2.88 7.345-2.015 9.154 2.504 1.873 4.679-2.304 9.502-14.456 16.69-24.343 14.396-38.492 34.087-42.531 59.184-3.643 22.637 7.735 46.029 30.565 62.83 10.925 8.04 28.28 16.526 27.177 13.288-4.684-13.75-4.53-39.988.26-44.414.72-.664.472 2.073-.55 6.084-3.803 14.938-2.151 26.842 7.6 54.74 8.819 25.232 7.598 36.016-4.883 43.144-4.008 2.289-6.59 2.667-17.368 2.54-11.695-.14-12.969.09-16.723 3.01-3.64 2.83-8.36 12.121-8.36 16.458 0 2.349 2.673 2.038 7.928-.922zm189.83-.509 4.905-3.076 3.33 3.076c4.361 4.03 9.47 3.94 13.663-.24 1.83-1.825 3.473-3.09 3.652-2.81a239.586 233.763 0 0 1 1.813 3.006c1.037 1.739 3.169 2.612 7.015 2.877 4.635.319 5.88-.118 7.721-2.716l2.196-3.096 4.83 3.028c13.22 8.291 20.265-.407 14.356-17.727-3.004-8.806-1.352-13.758 8.33-24.967 4.084-4.726 7.429-9.771 7.432-11.211 0-2.295-.756-2.603-6.19-2.498-5.2.101-6.72-.444-9.458-3.383-4.452-4.782-4.188-10.258.789-16.336l3.976-4.854-7.054-4.67c-3.88-2.57-10.876-8.647-15.548-13.507-10.492-10.914-20.807-16.09-34.41-17.263l-9.121-.787.013 6.736c.018 8.672 4.189 17.014 15.574 31.144 12.945 16.066 13.849 18.553 14.374 39.552l.443 17.76-3.746 3.467c-3.385 3.133-4.911 3.533-15.834 4.148-10.399.586-12.583 1.11-15.634 3.746-4.053 3.503-5.265 5.409-6.516 10.246-.73 2.82-.434 3.434 1.651 3.434 1.397 0 4.747-1.384 7.446-3.076zm-276.135-51.376c0-2.245 1.028-2.845 6.085-3.545l6.085-.843-4.059-3.155c-4.82-3.75-5.267-6.678-1.017-6.685 4.233 0 11.4-4.288 12.49-7.461.506-1.474.188-3.444-.72-4.457-2.373-2.642-6.834-2.243-7.663.685-.89 3.147-2.381 3.155-5.762.031-5.085-4.699-5.2-14.426-.236-20.09 2.34-2.67 2.319-2.845-.664-5.6-3.207-2.965-5.5-8.833-3.992-10.226.48-.443 3.015-.09 5.633.785 3.721 1.243 5.19 1.263 6.722.087 4.644-3.56-.387-8.14-7.834-7.13-2.997.407-4.234 0-4.665-1.517-.326-1.15-2.947-2.652-5.9-3.38-5.278-1.301-5.315-1.286-5.315 2.261 0 3.888-2.274 4.62-6.596 2.127-3.512-2.026-6.918-.453-6.918 3.195 0 3.404 3.508 5.083 9.797 4.688 4.823-.303 5.003 3.196.421 8.227l-3.294 3.617 2.61 3.659c3.865 5.418 3.54 14.415-.683 18.884l-3.31 3.503-2.171-2.809c-3.018-3.904-7.147-3.643-8.278.525-.74 2.728-.128 3.976 3.374 6.867 2.353 1.944 5.79 3.533 7.637 3.533 4.568 0 4.39 3.506-.36 7.048l-3.715 2.772 5.742.87c3.159.478 5.743 1.377 5.743 1.998 0 2.381 1.488 9.608 5.26 9.79 3.367.16 5.472-4.837 5.55-8.25zm72.676-26.148c5.218-2.006 16.51-11.336 16.51-13.641 0-.725-3.117-4.07-6.926-7.433-8.016-7.077-16.737-18.996-18.997-25.964-1.178-3.634-6.87-9.854-22.906-25.028l-21.339-20.193-6.15 1.52c-3.381.836-7.508 1.541-9.17 1.565-2.863.043-2.811.203.996 3.078l4.016 3.034 5.631-3.05c5.458-2.956 5.653-2.974 6.326-.596.395 1.393-.456 3.806-1.965 5.579-1.463 1.719-2.296 3.668-1.852 4.332.443.665-.961 2.053-3.123 3.086-4.008 1.915-6.789 8.218-3.627 8.218 2.845 0 9.118-7.552 8.396-10.106-.37-1.309-.191-2.654.397-2.99 2.443-1.395 2.29 4.534-.192 7.45-1.463 1.72-2.296 3.668-1.852 4.333.443.665-.961 2.052-3.123 3.086-3.981 1.902-6.79 8.218-3.656 8.218 3.072 0 9.243-7.216 8.478-9.916-.4-1.413-.245-2.844.344-3.18 1.646-.94 2.534 3.74 1.144 6.033-.744 1.23-.738 2.906.018 4.236 1.367 2.41-.02 7.037-2.538 8.474-1.08.616-.349 1.827 2.27 3.755 3.789 2.792 3.862 3.085 3.862 15.405 0 10.296.425 12.954 2.364 14.746 2.176 2.01 2.365 2.019 2.365.09 0-2.107 3.79-4.682 6.89-4.682.914 0 6.629 4.724 12.697 10.5 6.106 5.809 12.494 10.752 14.304 11.067l4.326.739c.582.094 3.318-.7 6.081-1.763zm-65.242-49.809c0-3.32-7.017-6.861-15.41-7.78-6.775-.742-6.887-.7-6.887 2.603 0 2.734 1.065 3.809 5.742 5.796 7.516 3.193 16.554 2.855 16.554-.619zm7.691-.305c3.423-3.03 5.044-6.635 2.986-6.635-2.368 0-8.654 5.504-8.654 7.578 0 3.236 1.167 3.042 5.668-.943zm-7.294-9.815c.29-1.873-.898-3.123-4.456-4.691-7.676-3.383-16.853-4.95-19.064-3.254-4.07 3.121-1.358 7.313 5.221 8.067 2.649.303 6.24 1.091 7.981 1.75 5.057 1.917 9.866 1.044 10.318-1.874zm0-10.03c.413-2.671-1.338-3.627-15.63-8.535-10.67-3.664-15.395-1.936-11.984 4.384 1.187 2.202 3.181 3.208 7.653 3.861 3.326.486 7.871 1.436 10.1 2.112 5.957 1.804 9.398 1.169 9.86-1.82zm7.158-9.397c2.157-2.133 3.92-4.65 3.92-5.594 0-3.06-8.515 2.354-9.602 6.105-1.302 4.5.809 4.309 5.682-.511zm-7.158-.632c.47-3.043-4.717-5.791-14.917-7.903-7.483-1.55-10.784-.67-10.223 2.723.306 1.852 2.798 3.205 9.869 5.359 11.315 3.445 14.718 3.405 15.27-.178zm9.976-14.162c13.07-5.677 14.2-19.992 1.876-23.75-5.117-1.561-8.384-.72-10.342 2.662-1.5 2.59-.497 7.298 1.555 7.298.692 0 1.26.872 1.26 1.937 0 4.97-19.955 7.223-28.139 3.176-2.875-1.422-4.127-5.113-1.734-5.113 1.787 0 3.024-3.76 2.11-6.42-1.244-3.624-4.987-4.88-10.417-3.495-12.25 3.126-11.907 17.172.567 23.132 10.228 4.888 32.649 5.185 43.265.574zm-8.13-11.007c.757-.7.429-1.775-.84-2.747-2.78-2.131-2.631-5.3.417-8.928 2.289-2.725 2.574-6.802 3.362-47.93 1.358-70.876 6.76-124.187 13.88-136.975 2.834-5.092 2.436-5.113-4.889-.25-9.435 6.264-16.619 14.42-22.984 26.097-12.018 22.045-16.194 51.703-16.194 115.013 0 35.947.251 40.65 2.349 44.03 1.993 3.209 2.1 4.395.7 7.822-.909 2.222-1.32 4.346-.916 4.72 2.683 2.479 22.23 1.82 25.115-.846zm109.812-67.587c.41-.611-.495-3.702-2.01-6.867-2.362-4.935-3.313-5.755-6.678-5.755-10.542 0-27.488-4.596-44.959-12.194-10.089-4.387-13.573-5.395-14.783-4.277-3.087 2.852 2.044 9.623 9.989 13.181 7.048 3.158 26.751 7.037 35.74 7.037 5.214 0 5.337.23 2.369 4.414l-2.182 3.078 5.898.147c3.244.082 7.722.577 9.952 1.101 5.79 1.361 5.845 1.362 6.666.135z"/><path d="M765.785 263.626c0-1.832-5.514-6.797-11.1-9.996-4.389-2.512-5.113-2.588-5.123-.54-.015 3.111-2.85 10.927-3.964 10.927-.628 0-1.556-1.528-2.063-3.394-.507-1.866-2.634-5.545-4.726-8.175l-3.805-4.781-2.962 4.43c-2.763 4.13-7.546 8.174-9.67 8.174-.507 0-.606-2.175-.22-4.833.42-2.888.096-5.179-.805-5.693-.828-.473-1.505-.308-1.505.366 0 1.556-6.645 8.91-8.05 8.91-.58 0-1.39-2.107-1.802-4.682l-1.556-9.053c-.444-2.404.502-.774 2.102 3.623l2.91 7.993 3.19-4.871c1.756-2.68 3.195-5.606 3.198-6.505.003-.9.597-1.298 1.32-.885.721.412 1.725 3.633 2.231 7.156l.92 6.406 3.511-3.756c1.932-2.066 4.194-4.831 5.03-6.146 1.488-2.346 1.573-2.344 4.534.108 1.66 1.374 4.212 4.66 5.67 7.3 1.46 2.642 2.85 4.609 3.088 4.37.238-.238.773-2.961 1.188-6.052l.824-5.874c.206-.765 10.576 5.811 14.413 9.142 2.466 2.14 4.808 3.592 5.204 3.225.397-.366.721-3.524.721-7.017 0-5.414-.588-6.865-3.982-9.824-3.902-3.403-4.011-3.422-5.452-.933-1.872 3.23-4.079 3.277-4.079.087 0-2.329-7.373-11.282-9.291-11.282-.498 0-2.05 1.966-3.451 4.37-1.4 2.404-2.908 4.368-3.348 4.365-1.89-.011-12.287-11.319-12.281-13.36 0-1.624.7-1.209 2.523 1.502 1.385 2.061 4.151 5.136 6.146 6.835 4.042 3.44 5.511 2.604 7.071-4.025.445-1.89 1.217-3.435 1.716-3.435 1.728 0 10.777 9.378 12.05 12.487l1.277 3.122.967-3.434c1.184-4.2 2.49-4.355 4.38-.524.788 1.6 4.687 4.928 8.661 7.395l7.228 4.485 1.45-4.51c.799-2.481 1.855-3.907 2.35-3.169.736 1.102-1.143 8.576-2.56 10.184-.213.241-2.555-1.09-5.204-2.958l-4.818-3.395-.02 6.08c-.013 3.343-.384 7.343-.833 8.888-.877 3.02-3.203 3.871-3.203 1.17zm-36.033-48.466c-8.59-6.997-9.894-8.598-9.704-11.914l.203-3.53.56 3.41c.328 1.99 2.615 4.973 5.498 7.17l4.938 3.76 3.035-3.423c1.669-1.884 3.057-4.127 3.083-4.985.07-2.238.482-2.05 6.297 2.873 5.168 4.374 5.248 4.395 6.016 1.56.428-1.58.277-4.555-.338-6.61-1.688-5.651-1.357-6.503 1.201-3.095 1.275 1.698 3.324 4.098 4.554 5.334 2.142 2.151 2.273 2.125 3.07-.624.458-1.58.84-4.47.85-6.424l.019-3.551 4.66 5.153c4.35 4.812 4.751 4.99 6.08 2.697.783-1.35 1.432-4.6 1.442-7.22.015-3.386.38-4.24 1.263-2.95 1.473 2.152.45 8.012-2.271 13.006l-1.952 3.584-2.564-3.895c-3.28-4.982-4.37-4.902-6.475.474-1.988 5.08-3.28 5.468-5.217 1.561-1.254-2.528-1.493-2.219-2.383 3.092l-.989 5.903-5.925-4.487-5.926-4.488-2.665 2.955c-1.465 1.625-2.684 3.658-2.709 4.516-.054 1.86-1.48 1.918-3.652.148zm76.408-26.065c-3.127-2.748-5.28-5.37-4.787-5.827.494-.456 1.05-.587 1.237-.29.187.297 2.741 2.92 5.679 5.827 6.764 6.697 5.374 6.886-2.13.29zm-101.776-10.263c-2.845-3.752-2.648-6.238.814-10.305 2.501-2.938 3.644-3.338 8.013-2.796 2.802.347 8.832 2.763 13.4 5.369 5.276 3.009 10.733 5.025 14.96 5.526 3.659.433 6.653.597 6.653.363 0-.234-1.52-2.65-3.378-5.37-4.412-6.458-4.261-7.152.716-3.282 5.108 3.971 11.219 5.133 24.873 4.728l6.672-.198-3.87-3.732c-5.414-5.22-3.748-5.689 2.23-.627 5.606 4.747 5.256 5.081-6.544 6.23-5.014.49-10.406.135-14.888-.977-6.706-1.663-6.965-1.638-5.695.555.732 1.264 1.918 2.298 2.634 2.298.717 0 1.305.64 1.305 1.424 0 2.407-14.483.29-21.404-3.13-15.81-7.81-17.8-8.486-21.564-7.329-2.094.644-4.19 2.528-4.912 4.417-2.41 6.3 6.748 11.197 10.524 5.627 1.095-1.613.84-2.718-1.085-4.682-2.635-2.69-2.388-3.074 1.169-1.813 2.525.895 2.864 6.811.515 8.982-2.688 2.483-8.822 1.78-11.138-1.277zm62.278-15.558c-1.978-1.826-.427-2.274 8.437-2.435 10.965-.2 17.625-1.983 25.483-6.823 6.296-3.878 8.003-3.115 2.027.906-5.452 3.669-13.954 6.488-22.164 7.35-3.975.418-8.505.996-10.067 1.285-1.562.29-3.234.162-3.716-.284z"/></g><g fill="#ffcd00" stroke="#000"><path stroke-width="2.094" d="M1065.798 449.328s6.614 13.797 13.922 19.418c10.827 8.329 33.027 7.727 42.449 17.445 11.29 11.459-.876 26.597-.774 27.911l.619 7.995s-7.613.094-10.818.606c-4.82.77-6.7 4.788-15.674 4.191-22.562-1.5-21.652-22.326-22.929-40.122-1.133-6.777-3.755-15.612-5.245-22.387-1.277-5.809-1.55-15.057-1.55-15.057z"/><path stroke-width="2.096" d="M1065.751 150.772s6.619-13.815 13.933-19.443c10.835-8.34 33.052-7.737 42.482-17.467 11.299-11.473-.877-26.631-.775-27.947l.62-8.005s-7.619-.094-10.827-.607c-4.823-.771-6.705-4.794-15.685-4.197-22.579 1.502-21.669 22.354-22.946 40.174-1.134 6.785-3.758 15.632-5.249 22.415-1.278 5.817-1.551 15.076-1.551 15.076zm-563.496.012s-6.62-13.817-13.934-19.446c-10.836-8.341-33.055-7.738-42.486-17.469-11.3-11.475.877-26.635.775-27.951l-.62-8.007s7.62-.094 10.828-.607c4.824-.771 6.706-4.795 15.687-4.197 22.581 1.503 21.671 22.358 22.948 40.18 1.134 6.786 3.758 15.635 5.25 22.419 1.279 5.818 1.552 15.079 1.552 15.079z"/></g></svg>