<svg xmlns="http://www.w3.org/2000/svg" xmlns:xlink="http://www.w3.org/1999/xlink" width="1200" height="600" viewBox="0 0 9600 4800"><defs><clipPath id="a"><path d="M0 0h9600v4800H0z"/></clipPath><clipPath id="b"><path d="M0 0v1200h6400v2000zm4800 0H2400v3200h-4000z"/></clipPath></defs><g fill="#00205b" stroke-width="480" clip-path="url(#a)"><path d="M0 0h9600v4800H0z"/><path stroke="#fff" d="m0 0 4800 2400M0 2400 4800 0"/><path stroke="#c8102e" stroke-width="320" d="m0 0 4800 2400M0 2400 4800 0" clip-path="url(#b)"/><path stroke="#fff" stroke-width="800" d="M2400 0v3200M0 1200h5600"/><path stroke="#c8102e" d="M2400 0v3200M0 1200h5600"/><path d="M0 2400h4800V0h4800v4800H0z"/></g><g transform="translate(7200 2400)"><g id="d"><path id="c" fill="#fff" d="m0-1992 81 249h261l-211 153 81 249L0-1494l-212 153 81-249-211-153h261z"/><use xlink:href="#c" transform="rotate(24)"/><use xlink:href="#c" transform="rotate(48)"/></g><use xlink:href="#d" transform="rotate(72)"/><use xlink:href="#d" transform="rotate(144)"/><use xlink:href="#d" transform="rotate(216)"/><use xlink:href="#d" transform="rotate(288)"/></g></svg>