<svg xmlns="http://www.w3.org/2000/svg" width="900" height="600" viewBox="0 0 1560 1040"><path fill="#ffd100" d="M0 0h1560v1040H0z"/><path fill="#0077c8" d="M0 0h1560v520H0z"/><path fill="#007749" d="M0 780h1560v260H0z"/><path fill="#f2a900" d="m1280 104 6.79 116.44 36.69-110.72-23.58 114.24 64.1-97.45-52.34 104.24 87.13-77.54-77.54 87.13L1425.49 188l-97.45 64.1 114.24-23.58-110.72 36.69L1448 272l-116.44 6.79 110.72 36.69-114.24-23.58 97.45 64.1-104.24-52.34 77.54 87.13-87.13-77.54L1364 417.49l-64.1-97.45 23.58 114.24-36.69-110.72L1280 440l-6.79-116.44-36.69 110.72 23.58-114.24-64.1 97.45 52.34-104.24-87.13 77.54 77.54-87.13L1134.51 356l97.45-64.1-114.24 23.58 110.72-36.69L1112 272l116.44-6.79-110.72-36.69 114.24 23.58-97.45-64.1 104.24 52.34-77.54-87.13 87.13 77.54L1196 126.51l64.1 97.45-23.58-114.24 36.69 110.72z"/><circle cx="1280" cy="272" r="49" fill="none" stroke="#0077c8" stroke-width="6"/></svg>