<svg xmlns="http://www.w3.org/2000/svg" xmlns:xlink="http://www.w3.org/1999/xlink" width="1200" height="600" fill="#003da5" viewBox="0 0 240 120"><path fill="#d50032" d="M0 0h240v120H0Z"/><path d="M0 0h240v80H0Z"/><path fill="#fff" d="M0 0h240v40H0Z"/><g transform="translate(60 60)"><path d="M-14.55-36.936a36.086 36.086 0 0 1 29.1 0Q16.83-4.696 0-.391q-16.83-4.306-14.55-36.545Z"/><path id="a" fill="#ffcd00" d="m0-33.074.44.999 1.085-.118-.644.88.644.881L.44-30.55l-.44 1-.44-.999-1.085.118.644-.88-.644-.881 1.085.118"/><use xlink:href="#a" x="-4.11" y="-5.48"/><use xlink:href="#a" x="4.11" y="-5.48"/><path fill="#fff" d="m0-27.398 3.523 7.045 2.348-3.131 5.871 7.828a3.914 3.914 0 0 1-.15 1.075A18.161 18.161 0 0 1 0-2.384a18.161 18.161 0 0 1-11.592-12.197 3.914 3.914 0 0 1-.15-1.075l5.87-7.828 2.35 3.13z"/><path id="b" d="M-11.592-14.581a3.914 3.914 0 0 0 5.72 2.314 3.914 3.914 0 0 1 3.915 0 3.914 3.914 0 0 0 3.914 0 3.914 3.914 0 0 1 3.914 0 3.914 3.914 0 0 0 5.72-2.314l.151.055v2.865a3.914 3.914 0 0 0-1.957.524 3.914 3.914 0 0 1-3.914 0 3.914 3.914 0 0 0-3.914 0 3.914 3.914 0 0 1-3.914 0 3.914 3.914 0 0 0-3.914 0 3.914 3.914 0 0 1-3.914 0 3.914 3.914 0 0 0-1.957-.524v-2.865"/><use xlink:href="#b" y="2.26"/><path fill="#d50032" d="M-15.656-36.427a36.086 36.086 0 0 1 1.105-.51l1.163 18.572A19.297 19.297 0 0 0 0-1.188a19.297 19.297 0 0 0 13.388-17.177l1.163-18.571a36.086 36.086 0 0 1 1.105.51l-1.135 18.132A20.432 20.432 0 0 1 0 0a20.432 20.432 0 0 1-14.521-18.294Z"/></g></svg>