<svg xmlns="http://www.w3.org/2000/svg" width="945" height="630"><path fill="#fff" d="M0 0h945v630H0Z"/><path fill="#001489" d="M350 70h595v70H350Zm0 140h595v70H350ZM0 350h945v70H0Zm0 140h945v70H0Z"/><g stroke="#000" stroke-miterlimit="20"><g fill="#ffcd00"><path stroke-linecap="square" stroke-width="2.305" d="m167.06 209.226 11.602 17.31c-47.621 34.47-18.557 54.84-52.27 65.839 20.976-20.485-2.76-23.622 14.891-66.33"/><path stroke-linecap="square" stroke-width="2.31" d="m145.198 193.59-4.04 20.426c-58.026-9.302-51.881 25.656-83.535 9.597 29.318.358 15.413-18.927 58.096-36.606"/><path fill="none" stroke-width="2.31" d="M135.875 191.202c-49.187 12.038-53.838 41.051-78.252 32.411"/><path stroke-width="2.305" d="m174.996 174.984-16.327-16.328-73.512 106.166 106.167-73.51-16.328-16.328-89.839 89.838"/><path stroke-linecap="square" stroke-width="2.309" d="m140.78 167.071-17.3 11.587c-34.452-47.611-54.825-18.544-65.852-52.284 20.477 20.985 23.848-2.748 66.529 14.933"/><path fill="none" stroke-width="2.309" d="M135.876 158.789c-43.291-26.269-67.094-9.041-78.248-32.415"/><path stroke-width="2.309" d="M175 174.996v-23.1l-127.043 23.1L175 198.097v-23.1H47.957"/><path stroke-linecap="square" stroke-width="2.31" d="m156.405 145.194-20.427-4.041c9.303-58.027-25.657-51.881-9.598-83.536-.357 29.318 19.936 17.746 37.616 60.43"/><path fill="none" stroke-width="2.31" d="M158.794 135.87c-12.04-49.187-41.053-53.839-32.414-78.253"/><path stroke-width="2.31" d="m175 174.996 16.335-16.334L85.162 85.158l73.504 106.172L175 174.996 85.162 85.158"/><path stroke-linecap="square" stroke-width="2.31" d="m182.924 140.776-11.585-17.3c47.606-34.452 18.542-54.825 52.279-65.853-20.983 20.478 2.662 23.855-15.018 66.536"/><path fill="none" stroke-width="2.31" d="M191.206 135.872c26.266-43.291 9.04-67.094 32.412-78.249"/><path stroke-width="2.31" d="M175 174.996h23.1L175 47.953l-23.099 127.043h23.1V47.953"/><path stroke-linecap="square" stroke-width="2.31" d="m204.801 156.402 4.04-20.425c58.025 9.301 51.879-25.656 83.532-9.598-29.317-.358-16.247 19.022-58.928 36.701"/><path fill="none" stroke-width="2.31" d="M214.125 158.79c49.184-12.038 53.835-41.05 78.248-32.411"/><path stroke-width="2.31" d="m175 174.996 16.334 16.333 73.5-106.166-106.167 73.5L175 174.996l89.833-89.833"/><path stroke-linecap="square" stroke-width="2.309" d="m209.224 182.92 17.302-11.585c34.455 47.606 54.83 18.542 65.859 52.279-20.48-20.983-24.334 2.505-67.02-15.174"/><path fill="none" stroke-width="2.309" d="M214.128 191.202c43.296 26.266 67.101 9.04 78.257 32.412"/><path stroke-width="2.309" d="M175 174.996v23.099l127.056-23.099L175 151.897v23.1h127.056"/><path stroke-linecap="square" stroke-width="2.31" d="m193.596 204.799 20.426 4.04c-9.302 58.028 25.657 51.882 9.598 83.537.358-29.32-18.938-15.742-36.618-58.426"/><path fill="none" stroke-width="2.31" d="M191.207 214.123c12.04 49.187 41.053 53.838 32.413 78.253"/><path stroke-width="2.31" d="m175 174.996-16.334 16.334 106.173 73.504-73.504-106.172L175 174.996l89.839 89.838"/></g><g stroke-width="2.305"><path fill="none" d="M158.782 214.14c-26.267 43.275-9.033 67.085-32.428 78.235"/><path fill="#ffcd00" d="M174.996 174.984h-23.093l23.093 127.066 23.093-127.066h-23.093V302.05"/></g></g><circle cx="174.996" cy="174.984" r="42.368" fill="#ffcd00" stroke="#000" stroke-width="2.305"/><path d="M206.177 158.052c-2.683 3.06-4.233-2.306-13.87-2.306-9.639 0-11.15 5.783-12.7 4.611-1.55-1.172 8.088-8.088 11.15-8.466a27.212 27.212 0 0 1 15.382 6.16m-11.15 3.478a4.535 4.535 0 0 1-2.305 7.332c-2.683 0-7.71-4.611-5.405-7.71"/><path d="M182.328 164.968c.378-4.611 4.233-5.405 10.394-5.405 6.16 0 8.844 4.611 11.15 5.783-2.684 0-4.99-3.855-11.15-3.855s-6.16 0-10.394 3.855m1.172.756c1.55-2.306 3.477 2.305 7.71 2.305a13.984 13.984 0 0 0 9.222-3.061c2.684-1.928-3.855 4.611-8.088 4.611-4.233 0-10.016-2.306-8.844-3.855m-30.047-4.99c-1.928.757-4.989 4.612 0 7.333-3.855-2.683-.756-6.538 0-7.332z"/><path d="M196.577 161.15c.756.757 3.855 4.612 0 7.333 4.989-2.684 1.928-6.539 0-7.332zm-27.704 16.555c-3.477.756-2.305 5.783-5.404 6.16-3.1.378-4.611 3.856-4.233 3.478 1.927-1.55 6.16-2.684 9.222-2.684 3.061 0 3.855 1.928 6.538 1.928 2.684 0 3.477-1.928 6.539-1.928 3.061 0 7.332 1.172 9.222 2.684.378.378-1.172-3.062-4.233-3.477-3.062-.416-1.928-5.405-5.405-6.161 0 1.55 1.172 1.172 1.55 3.477 0 1.928-3.478 1.928-4.234 0 .756 3.061-1.55 3.061-3.477 3.061-1.927 0-4.233 0-3.477-3.06-.756 1.927-4.233 1.927-4.233 0 .378-2.306 1.55-1.928 1.55-3.478zm-11.943 13.077c-3.061 2.305-3.855 3.477-4.233 6.16a27.968 27.968 0 0 1 2.079-3.212l-.53-.227.643.076z"/><path d="m154.851 193.579-.037.075a6.62 6.62 0 0 0 1.511.152zm1.474.227a43.086 43.086 0 0 1 6.01 1.55c2.154-.152 5.14-.719 12.661-.719s10.507.53 12.661.718a43.086 43.086 0 0 1 6.01-1.55c-4.233 0-9.902-3.023-12.51-3.023-3.062 0-3.855.756-6.16.756-2.306 0-3.062-.756-6.161-.756-2.608 0-8.278 3.024-12.51 3.024zm37.342 0c.529 0 1.058-.038 1.512-.152l-.038-.075z"/><path d="m195.14 193.579.643-.076-.529.227a27.968 27.968 0 0 1 2.079 3.213c-.378-2.684-1.172-3.856-4.233-6.161z"/><path d="M195.254 193.692c-4.044 1.512-5.442 1.777-7.597 1.625-3.666 1.172-6.651 2.381-12.66 2.381-6.01 0-8.996-1.209-12.662-2.38-2.155.15-3.553-.114-7.56-1.664 12.057 5.216 10.772 7.106 20.221 7.106s8.164-1.89 20.258-7.068zm-40.478-.038c-.151-.113-.378-.15-.567-.189zm40.478 0 .567-.189a2.831 2.831 0 0 1-.605.152zm-51.449-35.604c2.696 3.081 4.236-2.31 13.864-2.31 9.629 0 11.17 5.777 12.71 4.621 1.54-1.155-8.088-8.088-11.17-8.473-3.08-.385-11.938 2.696-15.404 6.162m11.168 3.467c-2.695 2.31-.385 7.317 2.311 7.317 2.696 0 7.703-4.622 5.392-7.703"/><path d="M167.683 164.983c-.385-4.622-4.237-5.392-10.399-5.392-6.162 0-8.858 4.621-11.169 5.777 2.696 0 5.007-3.851 11.17-3.851 6.161 0 6.161 0 10.398 3.85m-1.156.771c-1.54-2.31-3.466 2.31-7.702 2.31-4.237 0-6.547-1.154-9.243-3.08-2.696-1.926 3.85 4.621 8.087 4.621s10.014-2.31 8.858-3.85m8.469 38.136c-1.927 0-6.916 1.171 0 1.171 6.917 0 1.928-1.171 0-1.171"/></svg>