<svg xmlns="http://www.w3.org/2000/svg" xmlns:xlink="http://www.w3.org/1999/xlink" width="630" height="360"><path fill="#c8102e" d="M0 0h630v360H0z"/><path fill="#fff" d="M0 0h630v240H0z"/><path fill="#009739" d="M0 0h630v120H0z"/><g transform="translate(8.4 100.4)"><g id="e"><g id="c" fill="none" stroke="#fff"><path id="b" stroke-width="2.8" d="M0 1.4h36.4M1.4 14V7h11.2v5.6h11.2V7h-7M5.6 12.6h2.8m28 0h-7V7h11.2m0-7v12.6h11.2V0m-5.6 0v12.6"/><path id="a" stroke-width="5.6" d="M0 19.6h25.2m2.8 0h25.2"/><use xlink:href="#a" y="120"/><use xlink:href="#b" y="145.2"/></g><g id="d"><use xlink:href="#c" x="56"/><use xlink:href="#c" x="112"/><use xlink:href="#c" x="168"/></g></g><use xlink:href="#d" x="168"/><use xlink:href="#e" x="392"/></g><g fill="#c8102e" transform="translate(315 180)"><g id="f"><path d="M45.706-.7A34.888 34.888 0 0 1 27.09 30.173a45.183 45.183 0 0 0-7.094-63.504q-.997-.796-2.038-1.535A34.91 34.91 0 0 1 45.706-.7Z"/><path d="M29.516-2.108A41.71 41.71 0 0 1-25.07 37.54q1.103.053 2.217.053A45.714 45.715 0 0 0 15.03-33.696 41.59 41.59 0 0 1 29.516-2.108ZM11.77-42.477A6.37 6.37 0 0 1 0-39.1l-.768-.771L0-43.62a5.947 5.947 0 0 0 11.243-1.39 6.31 6.31 0 0 1 .526 2.532z"/><path d="M5.397-32.15A14.164 14.164 0 0 1 0-36.461L-2.28-.74 0 45.009l3.547-4.884.467-11.26.484-11.724.064-1.503.021-.558.103-2.437.304-7.38.248-5.96.07-1.722.092-2.193V-32.15ZM0-24.734l.004.007L0-24.72zm0 38.901v-.01l.018.004z"/></g><use xlink:href="#f" transform="scale(-1 1)"/></g></svg>