<svg xmlns="http://www.w3.org/2000/svg" xmlns:xlink="http://www.w3.org/1999/xlink" width="560" height="280"><path fill="#78be21" d="M0 0h560v280H0Z"/><path fill="#fff" d="M0 0h560v200H0Z"/><path fill="#e40046" d="M0 0h560v80H0Z"/><path fill="#daaa00" d="M269.943 135.931a4.49 4.49 0 0 1 8.369 2.12v17.958h3.376V138.05a4.49 4.49 0 0 1 8.369-2.119 10.596 10.596 0 1 0-20.114 0"/><path fill="#fff" d="M272.35 131.244a7.183 7.183 0 0 1 7.65 3.43 7.183 7.183 0 0 1 7.65-3.43 7.722 7.722 0 0 0-15.3 0"/><path id="a" fill="#daaa00" d="M278.312 148.835a13.649 13.649 0 0 1-22.932 8.734 14.187 14.187 0 0 1-21.455 6.274c1.311 13.083 20.923 10.412 22.384-2.31 6.161 10.817 19.71 7.72 23.673-5.53z"/><use xlink:href="#a" transform="matrix(-1 0 0 1 560 0)"/><path id="b" fill="#daaa00" d="M265.216 172.068c-2.736 5.907-8.205 6.922-12.989 2.153 0 0 1.923-1.359 3.982-1.733-.386-1.643.406-3.916 1.521-5.145 1.17.8 2.803 2.402 3.218 4.265 2.884-.373 4.268.46 4.268.46z"/><use xlink:href="#b" transform="rotate(9.37 280 302.337)"/><use xlink:href="#b" transform="rotate(18.74 280 302.337)"/><path fill="none" stroke="#daaa00" stroke-width="5.747" d="M245.16 185.246a122.12 122.12 0 0 1 69.68 0"/><path fill="#daaa00" d="m331.16 143.16 2.026 6.236h6.558l-5.305 3.854 2.026 6.237-5.305-3.855-5.305 3.855 2.026-6.237-5.304-3.854h6.557zm-6.855-25.58 2.027 6.236h6.557l-5.305 3.854 2.026 6.237-5.305-3.855-5.304 3.855 2.026-6.237-5.305-3.854h6.557zM305.58 98.854l2.026 6.236h6.558l-5.306 3.855 2.026 6.236-5.304-3.855-5.305 3.855 2.026-6.236-5.304-3.855h6.557zM280 92l2.026 6.236h6.557l-5.304 3.855 2.026 6.236-5.305-3.855-5.305 3.855 2.026-6.236-5.305-3.855h6.558zm-25.58 6.854 2.026 6.236h6.557l-5.304 3.855 2.026 6.236-5.305-3.855-5.305 3.855 2.026-6.236-5.305-3.855h6.558zm-18.726 18.726 2.026 6.236h6.557l-5.304 3.855 2.026 6.236-5.305-3.855-5.305 3.855 2.026-6.236-5.304-3.855h6.557zm-6.854 25.58 2.026 6.236h6.557l-5.305 3.854 2.027 6.237-5.305-3.855-5.305 3.855 2.026-6.237-5.305-3.854h6.558z"/></svg>