<svg xmlns="http://www.w3.org/2000/svg" xmlns:xlink="http://www.w3.org/1999/xlink" width="960" height="600"><path fill="#69b3e7" d="M0 0h960v600H0z"/><path fill="#fff" d="M320 0h320v600H320z"/><g stroke="#154734"><path fill="none" stroke-width=".447" d="M451.726 380.044c2.708-.42 4.268-1.176 6.12-1.845m2.247-4.188c1.366 1.476 2.451 3.047 3.035 4.788m-8.228-5.242c1.424 1.356 2.41 2.801 3.183 4.289m-50.28-141.09c-1.059 1.655-3.136 2.816-4.848 3.541m-.345-.205c.036-1.413-.24-3.125.05-4.538m-2.007 5.19.685 2.094m2.053.953-2.057.349m-4.008-.907c-.013 2.603.29 5.736.539 8.079m-1.816-.993c.478.782.96 1.554 1.566 1.945m-4.65 6.68c.496.972.957 2.193 1.323 4.09m3.769-4.781c-.42.211-1.233.961-1.959 1.596m1.614 4.54c-.993.9-2.23 1.553-3.477 2.194m-3.866 41.74c1.17 1.956 2.456 3.677 4.015 4.838m.59 1.742c-1.313-.172-2.192-.563-2.987-.998m4.457 8.683 1.713.998m-.445 3.589c1.273.843 2.545 2.358 3.818 3.99m-1.465 2.941c1.404.303 2.528.662 3.28 1.097m-1.08 2.498 2.154.074m1.224-5.56-.49 4.39m1.027 1.644.44-1.697m4.753 6.19-.148 3.343m39.76 28.825-1.175 1.645m-2.445-4.042-.685-1.894"/><path fill="#007a33" stroke-width=".168" d="M486.197 387.74c-.808-1.297-2.137-2.095-3.323-2.744-7.835-4.19-15.624-6.037-24.458-7.483-2.041-.35-4.083-2.295-6.173-3.292-5.033-2.443-10.637-3.393-15.528-5.885-.332-.151-1.566-.898-2.137-1.596-1.947-2.296-5.462-2.995-7.646-5.14-8.453-8.13-17.427-15.614-22.08-26.39-5.652-13.119-12.682-26.637-11.731-41.553.617-9.428-.76-18.956 1.519-27.936 3.372-13.32 7.693-26.487 15.624-37.512l-1.33.847c-7.978 11.026-12.298 24.195-15.67 37.513-2.28 8.98-.903 18.508-1.52 27.936-.95 14.915 6.08 28.434 11.73 41.603 4.653 10.726 13.676 18.208 22.083 26.39 2.184 2.094 5.7 2.792 7.645 5.137.57.65 1.851 1.448 2.137 1.596 4.893 2.495 10.496 3.442 15.53 5.838 2.09 1.047 4.132 2.942 6.173 3.293 8.834 1.445 16.62 3.342 24.457 7.481 1.234.648 2.517 1.447 3.324 2.744l1.377-.85"/><g fill="#007a33" stroke-width=".168"><path d="M405.298 332.67c-2.834-6.508-1.385-22.32-.201-24.306 6.727 13.435 4.488 24.524.2 24.306zm46.51 46.888c-7.193.376-20.903 9.602-22.174 11.772 15.298.12 24.36-7.556 22.173-11.772zm7.565-4.431c-6.942-5.63-14.39-24.442-14.23-27.376 15.323 11.192 19.203 25.082 14.23 27.376z"/><path d="M454.251 375.189c-7.048-4.375-16.01-20.78-16.163-23.505 15.417 8.464 20.484 20.793 16.163 23.505zm-15.78-7.004c.998-8.08-5.746-25.041-7.693-26.836-2.992 17.01 3.039 28.483 7.693 26.836zm-27.697-25.081c-2.337-5.833-.621-19.959.477-21.691 5.598 12.082 3.31 21.918-.477 21.69zm-13.904-79.366c3.64-6.867 18.641-16.23 21.287-16.457-6.867 15.05-18.292 20.484-21.287 16.457z"/><path d="M397.59 257.994c2.18-7.522 15.085-19.9 17.606-20.695-3.78 16.194-13.872 23.944-17.606 20.695zm28.204 102.423c-5.063-6.38-8.125-24.653-7.393-27.231 11.43 12.928 12.2 26.067 7.393 27.23zm-29.056-37.664c-7.007 1.125-21.662-4.789-23.245-6.546 14.738-3.254 24.632 2.14 23.245 6.546zm-2.251-9.999c.834-5.761 8.788-16.33 10.508-17.21-1.126 12.353-7.555 19.214-10.508 17.21zm52.057 60.472c-8.595.45-24.98 11.474-26.498 14.067 18.283.148 29.111-9.029 26.498-14.067z"/></g><g fill="#007a33" stroke-width=".168"><path d="M405.369 332.515c4.287.217 6.495-10.739-.273-24.15 1.228 12.725 1.225 23.045.273 24.15zm11.338 20.65c-4.537-5.65-19.655-11.702-22.02-11.509 9.011 12.48 20.162 15.596 22.02 11.51zm-24.766-54.728c-1.163-8.309-12.508-23.463-14.952-24.76 1.539 17.741 10.698 27.578 14.952 24.76zm8.51 35.421c-5.065-3.802-19.24-5.52-21.237-4.879 10.28 8.58 20.498 8.738 21.236 4.88zm-9.493-25.65c-2.926-5.877-15.022-13.926-17.132-14.152 5.595 12.795 14.764 17.498 17.132 14.153zm2.768-49.108c.918-7.823-5.611-24.22-7.449-25.989-2.906 16.451 2.96 27.544 7.45 25.989zm4.533-15.413c2.696-6.71.767-23.169-.529-25.223-6.494 13.955-3.882 25.462.53 25.223zm5.092-7.902c3.18-4.929 4.22-18.269 3.534-20.113-7.339 10.036-7.057 19.57-3.534 20.113zm6.034-6.343c4.464-3.592 9.354-16.012 9.212-18.008-9.877 7.183-12.394 16.364-9.212 18.008zm-16.277 44.626c.11.897-.992-8.451-10.197-18.918.415 15.307 6.339 21.095 10.197 18.918zm33.02 88.611c-6.262-4.71-23.716-6.95-26.131-6.123 12.74 10.697 25.23 10.9 26.132 6.123zm12.242 5.413c-4.607 1.646-10.591-9.728-7.647-26.737 2.85 14.415 6.268 25.89 7.647 26.737zm13.488 11.518c2.146 4.217-6.795 11.813-22.096 11.688 12.122-5.052 21.54-10.186 22.096-11.688zm7.495-4.618c4.933-2.323 1.116-16.048-14.208-27.239 8.717 13.65 14.66 25.421 14.208 27.24zm-5.142.083c4.338-2.754-.7-14.92-16.116-23.386 9.537 11.552 16.323 21.659 16.116 23.386zm-43.396-32.013c3.788.23 6.041-9.567.484-21.614.728 11.336.423 20.637-.484 21.614zM396.86 263.79c2.993 4.025 14.254-1.353 21.132-16.449-10.309 9.647-19.497 16.594-21.132 16.449zm.852-5.796c3.734 3.25 13.734-4.444 17.513-20.636-8.21 11.616-15.865 20.387-17.513 20.636zm28.112 102.36c4.808-1.161 4.01-14.238-7.356-27.138 5.084 13.858 8.13 25.573 7.356 27.139zm-29.278-37.663c1.426-4.38-8.415-9.678-23.126-6.465 12.434 2.267 22.355 5.208 23.126 6.465zm-1.968-9.927c2.944 1.95 9.308-4.813 10.432-17.165-4.74 9.484-9.296 16.802-10.432 17.165zm51.925 60.617c2.613 5.037-8.072 14.118-26.404 13.968 14.486-6.037 25.74-12.172 26.404-13.968z"/><path d="M398.219 327.175c-2.696-6.469-15.008-15.973-17.223-16.364 5.016 14.088 14.45 19.778 17.223 16.364z"/></g><g fill="#007a33" stroke-width=".168"><path d="M391.18 273.066c4.133-4.82 17.717-9.435 19.877-9.158-8.156 10.753-18.195 12.928-19.876 9.158zm25.426 80.15c-1.833 4.048-12.876.947-21.953-11.52 11.04 7.056 20.53 11.892 21.953 11.52zm-24.736-54.8c-4.254 2.817-13.314-6.96-14.893-24.672 6.717 13.638 13.222 24.155 14.893 24.672zm8.54 35.473c-.78 3.854-10.84 3.709-21.16-4.872 10.881 3.518 20.019 5.509 21.16 4.872zm-9.584-25.773c-2.367 3.346-11.45-1.311-17.045-14.108 8.308 8.23 15.711 14.198 17.045 14.108zm2.799-49.12c-4.49 1.608-10.304-9.378-7.398-25.83 2.705 13.933 6.02 24.973 7.398 25.83zm4.533-15.35c-4.365.235-6.968-11.172-.475-25.125-.833 13.22-.514 24.001.475 25.125zm5.111-7.923c-3.522-.542-3.77-9.974 3.571-20.008-2.777 10.305-4.21 18.972-3.57 20.008zm6.065-6.28c-3.181-1.698-.71-10.776 9.166-17.91-5.603 8.93-9.45 16.712-9.166 17.91z"/><path d="M393.037 274.078c-3.858 2.176-9.713-3.618-10.129-18.926 5.174 12.07 8.725 18.394 10.129 18.926zm33.03 88.632c-.898 4.778-13.33 4.546-26.04-6.09 13.354 4.416 24.589 6.915 26.04 6.09zm-8.285-9.793c-4.08-4.486-7.26-17.92-6.842-19.877 9.14 9.032 10.36 18.765 6.842 19.877zm-17.119-25.815c-3.62-5.977-3.93-21.597-2.96-23.713 8.38 12.199 7.355 23.33 2.96 23.713zm-2.667.093c-2.775 3.414-12.1-2.23-17.111-16.355 8.247 9.412 15.693 16.334 17.11 16.355z"/></g><g fill="#007a33" stroke-width=".168"><path d="M391.13 273.149c1.64 3.742 11.612 1.58 19.769-9.173-12.14 7.017-16.948 10.062-19.77 9.173zm9.472 53.788c4.394-.383 5.407-11.401-2.974-23.6 2.7 12.245 3.844 22.394 2.974 23.6zm17.2 25.939c3.52-1.106 2.282-10.796-6.808-19.811 4.466 10.048 7.307 18.605 6.808 19.81z"/><path d="M393.016 291.505c2.087-8.663-1.726-23.347-4.36-26.402-4.783 15.936-.25 27.476 4.36 26.402z"/></g><g fill="#007a33" stroke-width=".168"><g stroke-width=".172"><path d="M392.712 293.571c-5.978 1.383-8.767-12.431-4.138-27.972 1.086 13.993 2.873 27.01 4.138 27.972z"/><path d="M391.495 293.52c-.566-7.776 7.032-23.85 9.041-25.523 2.044 16.325-4.525 27.176-9.041 25.522z"/></g><path d="M391.607 293.406c4.475 1.69 11.004-9.05 8.96-25.375-3.561 13.705-7.55 24.548-8.96 25.375z"/><path d="M392.915 303.374c.005-7.86 8.59-22.963 10.711-24.398.846 16.695-6.421 26.681-10.711 24.398z"/><path d="M392.996 303.53c4.29 2.282 11.466-7.608 10.62-24.302-4.472 13.281-9.177 23.655-10.62 24.301z"/></g><g fill="#ef3340" stroke="#000"><g stroke-width=".19"><ellipse cx="395.658" cy="249.668" rx="1.1" ry="1.121"/><ellipse cx="404.147" cy="243.264" rx="1.1" ry="1.121"/><ellipse cx="400.454" cy="239.793" rx="1.101" ry="1.122"/></g><g stroke-width=".223"><ellipse cx="391.265" cy="313.56" rx="1.295" ry="1.319"/><ellipse cx="393.831" cy="297.042" rx="1.295" ry="1.319"/><ellipse cx="407.197" cy="335.604" rx="1.295" ry="1.319"/><ellipse cx="401.295" cy="337.639" rx="1.295" ry="1.319"/><ellipse cx="446.232" cy="369.869" rx="1.295" ry="1.319"/><ellipse cx="449.184" cy="377.182" rx="1.295" ry="1.319"/></g></g><path fill="none" stroke-width=".447" d="M562.3 257.623c.632.641 1.19.834 2.328 1.957m-6.72-19.57c-.035-1.413-.641-3.724-.93-5.137m3.497 3.081c.055 2.017-.222 3.935-1.078 5.686m-4.216-.552c1.777 1.628 3.554 3.179 5.332 4.02m3.877 1.269c.106 2.046-.145 4.09-.693 6.136m.327 1.56 1.333-2.337m-1.89 12.626c1.42.3 2.85 2.01 3.554 3.597m.482-1.335 1.662-2.257m1.735 31.739c-.758 1.347-1.604 2.515-2.493 3.598m-4.018-.075c.8 1.504 1.578 3.043 2.632 4.162m2.49 6.064c-1.326 1.832-2.805 3.27-4.501 4.162m.14 4.65c-1.108.776-2.46 3.05-3.74 4.867m8.557-20.848-2.154.898m-1.416-7.736 1.273 1.147m-9.427 38.623c-.85-.111-1.476.01-2.154.075m-2.024-1.996.624 1.693m-7.824 5.29c-.266 1.928-.073 3.856.206 5.784m4.367-9.317 1.039 2.329m3.88-.211-2.563.423m-31.29 26.104-.93 1.796m12.066-4.058c-1.513.193-2.817-.044-4.155-.21m-5.54 6.14a27.666 28.18 0 0 0-2.978-.988m-14.953 2.744c-.919.798-2.017 2.515-3.116 4.232m-.555-4.718c-2.468 1.295-3.227 3.833-4.501 5.996m2.838 2.96c-1.575-.476-3.46-1.268-5.402-2.115m17.004-.705c-2.354-1.245-4.816-1.123-7.236-1.517m10.907-.352c-3.68-.73-7.11-.63-10.422-.142m7.886-2.689-1.418-.599m-5.61 5.681-2.356-1.338m58.764-50.818c-1.273.843-2.546 2.358-3.82 3.99m1.853-82.25-2.184-.748"/><g fill="#007a33" stroke-width=".168"><path d="M474.311 387.657c.809-1.296 2.138-2.095 3.324-2.744 7.835-4.19 15.624-6.036 24.458-7.483 2.042-.349 4.083-2.295 6.174-3.292 5.033-2.443 10.637-3.392 15.527-5.885.333-.15 1.567-.898 2.138-1.596 1.946-2.295 5.461-2.995 7.646-5.139 8.453-8.13 17.427-15.615 22.08-26.39 5.652-13.118 12.68-26.637 11.731-41.552-.618-9.428.76-18.955-1.52-27.935-3.372-13.319-7.695-26.49-15.625-37.513l1.33.847c7.978 11.027 12.298 24.196 15.67 37.513 2.28 8.979.903 18.507 1.52 27.935.95 14.916-6.08 28.435-11.73 41.605-4.652 10.725-13.676 18.207-22.082 26.389-2.184 2.094-5.7 2.792-7.646 5.137-.57.649-1.851 1.447-2.135 1.596-4.893 2.495-10.496 3.442-15.53 5.837-2.09 1.048-4.132 2.942-6.173 3.294-8.833 1.445-16.62 3.341-24.455 7.48-1.234.648-2.517 1.448-3.325 2.744l-1.378-.849"/><path d="M554.694 335.749c2.78-7.661-.01-25.658-1.51-27.84-6.743 15.878-3.389 28.409 1.51 27.84zm-7.21 7.272c2.336-5.832.62-19.959-.478-21.691-5.598 12.082-3.31 21.918.477 21.691zm17.047-76.597c-3.34-6.302-17.106-14.894-19.534-15.1 6.301 13.808 16.787 18.795 19.534 15.1zm-1.612-8.285c-1.817-6.268-12.57-16.583-14.671-17.245 3.149 13.494 11.56 19.953 14.67 17.245zm4.807 15.454c-3.587-4.185-15.379-8.19-17.254-7.95 7.08 9.335 15.792 11.223 17.254 7.95zm-2.84 47.859c6.219.998 19.228-4.25 20.633-5.81-13.082-2.89-21.864 1.899-20.633 5.81zm-.152-5.826c-.044-5.824-6.486-17.413-8.069-18.525-.563 12.392 4.872 20.095 8.069 18.525zm.416-14.132c-.005-7.86-8.59-22.963-10.712-24.398-.846 16.694 6.422 26.68 10.712 24.398zm-53.64 77.754c4.541 5.685 19.932 11.5 22.402 11.264-8.93-12.636-20.355-15.546-22.401-11.264z"/></g><path fill="#007a33" stroke-width=".168" d="M554.603 335.573c-4.892.57-8.205-11.814-1.415-27.669-.498 14.66.242 26.475 1.415 27.669zm-54.126 45.101c7.193.375 20.902 9.602 22.174 11.772-15.3.121-24.36-7.556-22.174-11.772zm0-8.202c2.127-8.23 15.218-21.91 17.762-22.882-3.653 17.7-13.935 26.378-17.762 22.882zm21.571-4.37c-.999-8.08 5.745-25.04 7.692-26.836 2.993 17.01-3.039 28.484-7.692 26.836zm21.764-15.02c4.537-5.65 19.655-11.701 22.02-11.508-9.011 12.48-20.162 15.595-22.02 11.508zm26.155-55.017c.916-6.541 9.848-18.471 11.77-19.493-1.21 13.967-8.421 21.712-11.77 19.493zm-11.855 39.316c5.899-4.432 22.418-6.434 24.744-5.686-11.98 9.995-23.885 10.18-24.744 5.686zm10.415-25.33c3.076-6.176 15.786-14.636 18.005-14.874-5.88 13.449-15.517 18.39-18.005 14.875zm-1.501-47.063c-.1-7.877 8.097-23.478 10.107-25.04 1.183 16.672-5.803 27.07-10.106 25.04zm-7.028-26.776c-2.355-5.455-1.117-19.021-.094-20.736 5.628 11.325 3.724 20.836.094 20.736zm-4.29-2.252c-5.349-4.837-10.796-20.408-10.558-22.832 11.917 9.569 14.59 21.033 10.558 22.832zm11.795 35.68c-.322.842 2.986-7.949 14.42-15.813-4.069 14.742-11.2 18.882-14.42 15.813zm-34.583 92.867c7.105-5.343 26.908-7.885 29.646-6.945-14.455 12.135-28.625 12.365-29.646 6.945zm14.533-21.527c-3.788.229-6.042-9.568-.484-21.615-.73 11.336-.424 20.637.484 21.615zm17.088-76.515c-2.746 3.694-13.08-1.242-19.391-15.093 9.459 8.853 17.891 15.228 19.391 15.093zm-1.724-8.326c-3.111 2.707-11.445-3.701-14.595-17.195 6.842 9.679 13.221 16.988 14.595 17.195zm4.96 15.526c-1.424 3.249-10.08 1.372-17.16-7.962 10.536 6.09 14.71 8.734 17.16 7.962zm-2.729 47.735c-1.266-3.888 7.47-8.591 20.528-5.74-11.038 2.014-19.844 4.625-20.528 5.74zm-.405-5.785c-3.18 1.516-8.565-6.079-8.001-18.47 3.408 10.06 6.925 17.949 8 18.47zm.426-13.966c-4.291 2.282-11.465-7.607-10.62-24.301 4.472 13.281 9.177 23.653 10.62 24.301zm-53.436 77.548c2.046-4.283 13.336-1.424 22.287 11.247-11.15-6.972-20.772-11.678-22.287-11.247z"/><g fill="#007a33" stroke-width=".168"><path d="M522.14 368.01c4.606 1.645 10.59-9.728 7.646-26.738-2.85 14.416-6.27 25.891-7.647 26.737z"/><path d="M532.565 362.596c4.4-6.87 5.628-25.364 4.644-27.857-10.084 14.043-9.543 27.193-4.644 27.857zm-32.139 18.12c-2.146 4.215 6.795 11.813 22.096 11.688-12.12-5.052-21.54-10.186-22.096-11.689zm.162-8.316c3.839 3.448 14.004-5.112 17.656-22.812-8.242 12.833-15.946 22.518-17.656 22.812zm43.315-19.266c1.833 4.047 12.876.946 21.953-11.52-11.04 7.055-20.531 11.892-21.953 11.52zm26.115-55.09c3.35 2.218 10.481-5.478 11.725-19.424-5.288 10.738-10.409 19.017-11.725 19.424zm-11.856 39.368c.908 4.491 12.63 4.32 24.657-5.678-12.68 4.1-23.327 6.42-24.657 5.678zm10.507-25.453c2.488 3.517 12.033-1.378 17.914-14.826-8.73 8.65-16.511 14.922-17.914 14.826zm-1.531-47.064c4.298 2.082 11.22-8.215 10.039-24.888-4.137 13.563-8.58 24.184-10.04 24.888zm-7.059-26.724c3.592.096 5.49-9.331-.136-20.655.963 10.845.926 19.71.136 20.655zm-4.29-2.314c4.028-1.8 1.35-13.13-10.57-22.697 6.564 11.384 11.007 21.252 10.57 22.697zm11.775 35.814c3.22 3.07 10.286-1.096 14.355-15.836-7.908 10.417-12.868 15.67-14.355 15.836zM532.99 364.55c1.019 5.42 15.124 5.158 29.544-6.909-15.151 5.01-27.897 7.846-29.544 6.909zm6.987-7.985c3.319-5.097 4.335-18.877 3.615-20.74-7.594 10.412-7.262 20.218-3.615 20.74zm19.878-29.555c3.62-5.977 3.93-21.598 2.96-23.714-8.38 12.2-7.356 23.331-2.96 23.714z"/></g><path fill="#007a33" stroke-width=".168" d="M532.524 362.545c-4.898-.66-5.406-13.752 4.617-27.76-3.678 14.313-5.54 26.282-4.617 27.76zm35.658-70.585c-.956-8.022 4.032-20.808 6.726-23.266 2.61 14.86-2.698 24.74-6.726 23.266zm-28.234 64.552c-3.648-.515-3.956-10.283 3.591-20.667-2.82 10.648-4.274 19.56-3.591 20.667zm23.69-107.68c-2.197-6.075.03-20.703 1.254-22.493 5.364 12.662 2.676 22.846-1.253 22.493zm-58.902 124.115c2.51-8.358 16.42-21.777 19.074-22.638-4.397 17.996-15.279 26.371-19.074 22.638zm55.302-42.963c2.696-6.468 15.008-15.972 17.222-16.363-5.015 14.088-14.45 19.778-17.222 16.363zm-.121-3.13c-4.395-.383-5.407-11.4 2.974-23.6-2.701 12.246-3.844 22.394-2.974 23.6z"/><g fill="#007a33" stroke-width=".168"><path d="M568.233 293.85c5.23 1.903 9.206-10.216 6.691-24.703-2.463 12.465-5.453 23.977-6.691 24.703z"/><path d="M569.014 293.437c.565-7.776-7.033-23.848-9.041-25.523-2.044 16.325 4.526 27.178 9.04 25.523zm-5.294-44.647c3.888.348 6.565-9.746 1.204-22.405.334 11.823-.287 21.434-1.204 22.405zm-58.872 124.074c3.84 3.741 14.572-4.562 18.969-22.558-8.964 12.76-17.209 22.325-18.97 22.558zm55.414-42.859c2.773 3.414 12.099-2.23 17.11-16.355-8.248 9.411-15.693 16.333-17.11 16.355z"/></g><path fill="#007a33" stroke-width=".168" d="M568.902 293.323c-4.475 1.69-11.004-9.05-8.96-25.374 3.56 13.705 7.55 24.548 8.96 25.374z"/><g fill="#ef3340" stroke="#000" stroke-width=".223"><ellipse cx="565.824" cy="253.418" rx="1.1" ry="1.121"/><ellipse cx="569.668" cy="265.732" rx="1.1" ry="1.121"/><ellipse cx="571.029" cy="304.449" rx="1.295" ry="1.319"/><ellipse cx="565.846" cy="297.207" rx="1.295" ry="1.319"/><ellipse cx="550.898" cy="338.403" rx="1.295" ry="1.319"/><ellipse cx="557.277" cy="341.224" rx="1.295" ry="1.319"/><ellipse cx="514.276" cy="374.652" rx="1.295" ry="1.319"/><ellipse cx="507.177" cy="379.848" rx="1.295" ry="1.319"/><ellipse cx="558.146" cy="247.582" rx="1.099" ry="1.12"/></g></g><g id="a" fill="#fff" stroke="#000"><path stroke-width=".112" d="M433.603 337.474c-.136 1.1.854 2.416 2.158 2.138.392-.08.633-.6.133-.506-.431.111-.891-.072-1.219-.386a1.756 1.756 0 0 1-.402-1.983l-.67.735h-.001z"/><g stroke="none"><path d="M436.635 339.612c-1.03 1.204-2.604 1.731-3.475.862-.581-.584-.79-1.246-.475-1.975l-1.137 1.271c.048.093.725 1.352 1.733 1.816 1.24.57 3.014-.288 4.074-1.615.75-.94 1.584-2.509.981-3.729-.37-.753-1.255-1.472-1.995-1.756l-1.04 1.138c.516-.247 1.163-.139 1.719.323 1.29 1.07.543 2.581-.384 3.663v.002z"/><path fill="#000" d="M436.635 339.612a4.08 4.08 0 0 1-1.178.988c-.453.245-.97.402-1.494.328a1.501 1.529 0 0 1-.722-.306 2.452 2.452 0 0 1-.517-.598 1.633 1.663 0 0 1-.25-.761c-.02-.272.039-.547.142-.793l.124.082-1.126 1.28.013-.102c.28.495.632.969 1.057 1.343.213.185.448.346.704.451.256.106.531.146.808.139.557-.017 1.104-.213 1.596-.492a5.172 5.268 0 0 0 1.316-1.077 6.257 6.374 0 0 0 .948-1.433c.244-.517.416-1.084.38-1.648a1.928 1.928 0 0 0-.228-.8 3.178 3.178 0 0 0-.507-.677 4.241 4.241 0 0 0-1.39-.964l.094-.023-1.05 1.128-.086-.12a1.47 1.498 0 0 1 .765-.12 1.836 1.87 0 0 1 .725.253c.434.265.81.67.94 1.182.129.51.001 1.04-.212 1.495-.215.461-.518.87-.85 1.245v.002zm0-.002a5.47 5.47 0 0 0 .805-1.265c.2-.459.306-.973.169-1.45-.137-.478-.5-.854-.913-1.098-.413-.244-.937-.315-1.365-.104l-.085-.12 1.031-1.145.04-.044.055.022a4.224 4.224 0 0 1 1.466.991c.208.214.396.45.544.72.148.271.234.576.254.88.043.618-.14 1.216-.39 1.756a6.48 6.6 0 0 1-.974 1.49 5.324 5.423 0 0 1-1.378 1.116c-.516.288-1.091.494-1.694.51a2.2 2.2 0 0 1-.888-.159 2.755 2.755 0 0 1-.755-.488 5.07 5.165 0 0 1-1.089-1.408l-.03-.056.042-.048 1.148-1.262.125.083a1.6 1.6 0 0 0-.143.723c.013.248.094.49.22.704.127.215.292.416.48.576.188.16.422.261.666.303.494.085 1.006-.053 1.457-.282.45-.228.858-.559 1.201-.942z"/></g><path fill="#774212" stroke-linejoin="round" stroke-width=".223" d="M515.74 247.582 475.035 288.4c-3.097 3.132-38.501 37.58-41.688 40.684l-4.625 5.53c-2.16 2.386-4.502 5.505-7.3 8.294-.497.64-1.157.407-1.758.762-1.838 1.084-3.749 2.964-5.124 4.514l-12.381 13.952c-.797.88-1.01 1.425-.47 1.932l6.716 9.142c1.247 1.254 2.682 1.898 3.24.846 3.191-5.627 11.118-14.214 14.112-21.006 1.79-4.058 4.035-11.422 5.637-13.203 1.966-2.229 7.272-7.986 11.973-13.125l.943-1.03.96-1.052 71.526-75.986c-.79-.8-.29-.322-1.057-1.074z"/><path stroke-width=".112" d="M431.21 329.044c-1.243.045-2.051-.73-2.889-1.446 1.186.358 2.378.824 3.501.35z"/><path stroke-width=".223" d="m558.142 217.47-32.254 27.084c-.31.386-.633.276-.943 0l-2.936-2.497c.004-.037.015-.074.015-.112 0-.169-.033-.33-.084-.48l1.44-1.494c.179-.229.122-.32-.124-.564l-.597-.621c-.23-.182-.421-.036-.65.184l-1.455 1.523a1.45 1.45 0 0 0-1.371 1.411l-55.716 55.65-22.893 22.26c-.817 1.078-4.35 3.005-6.69 4.557-.828.55-1.544 1.05-1.84 1.594l-1.87 5.614c-.591 1.234-2.466 4.136-2.55 4.332l3.92 3.85c1.844-2.089 6.784-7.346 11.274-12.243.362-.395.384-.436.844-1.002a13.509 13.76 0 0 0-1.412-1.708c-.402-.39-.837-.792-1.218-1.128-.249-.219-.475-.404-.637-.564-.162-.16.243-.459.429-.663l79.384-79.123a1.43 1.457 0 0 0 .402.057 1.41 1.436 0 0 0 .637-.155l2.825 3.315c.663.673 1.225.66 1.76.409l32.31-29.484z"/><path fill="#000" stroke="none" d="M430.256 331.4a2.769 2.82 0 0 0 .615.032 1.521 1.55 0 0 0 .582-.169l-.016.021.724-2.457.77-2.444.006.028c-.198-.23-.443-.435-.742-.512.305.059.567.252.782.475l.011.012-.005.015-.719 2.46-.764 2.444-.005.014-.013.006c-.19.095-.4.143-.609.146a2.91 2.965 0 0 1-.618-.071z"/><g fill="none" stroke-width=".168"><ellipse cx="437.588" cy="329.07" rx=".628" ry=".639"/><ellipse cx="433.792" cy="332.936" rx=".628" ry=".639"/></g><path fill="#000" stroke="none" d="M440.418 323.125a12.013 12.013 0 0 1-.919-.8l-.843-.882a11.795 12.014 0 0 1 .918.8z"/><path stroke-width=".112" d="m502.485 257.716 3.536 3.522.654-.605-3.536-3.522z"/></g><use xlink:href="#a" transform="matrix(-.99877 -.0505 -.04867 .99877 973.312 24.113)"/><g fill="#007a33" stroke="#154734" stroke-width=".168"><path d="M433.258 367.524c-7.977-3.43-27.27-.692-29.633.963 16.516 8.275 29.959 4.725 29.633-.963zm90.28 3.43c7.978-3.431 27.272-.693 29.634.963-16.516 8.246-29.959 4.724-29.633-.964z"/><path d="M433.106 367.648c.326 5.688-12.97 9.178-29.487.933 15.512.962 28.187.39 29.487-.933zm90.585 3.398c-.326 5.688 12.97 9.179 29.487.933-15.512.964-28.187.422-29.487-.933z"/></g><g id="b"><path fill="#fff" stroke="#000" stroke-width=".223" d="M508.894 361.977c-21.026-31.113-52.731-56.414-77.18-70.235 3.608-.172 11.623 4.009 14.878 6.145 24.28 15.936 44.928 36.985 66.594 61.796-1.276 1.287-2.111 2.046-3.495 3.153l-.797-.857z"/><path fill="#fff" d="m510.983 361.729-1.471 1.44c-23.336-30.597-55.873-59.858-77.754-71.412 30.506 14.312 56.176 43.149 79.138 69.883l.086.089z"/><path d="m510.994 361.729-1.468 1.443-.004.003-.003-.004c-5.401-7.048-11.13-13.831-17.103-20.381a347.076 347.076 0 0 0-18.628-18.943c-6.446-6.064-13.126-11.874-20.09-17.313a199.088 199.088 0 0 0-10.692-7.812c-3.652-2.476-7.4-4.806-11.29-6.864l.097-.202c8.004 3.764 15.556 8.465 22.692 13.72 7.136 5.253 13.87 11.068 20.313 17.18 6.442 6.11 12.598 12.535 18.587 19.107 5.99 6.572 11.794 13.317 17.589 20.066zm0 0-17.667-19.992c-6-6.56-12.16-12.97-18.609-19.072-6.448-6.102-13.183-11.895-20.32-17.139-7.136-5.237-14.684-9.92-22.677-13.666l.097-.202c3.9 2.066 7.648 4.41 11.302 6.89 3.654 2.48 7.209 5.111 10.691 7.835 6.961 5.453 13.635 11.279 20.079 17.353a340.819 347.151 0 0 1 18.61 18.975c5.95 6.574 11.651 13.385 17.026 20.454h-.006l1.475-1.436z"/><g fill="#ffcd00"><g stroke="#000"><path stroke-width=".223" d="M518.032 356.894c-2.002.528-3.779 1.295-5.334 2.3-.23 1.443-1.98 3.055-3.636 3.421l-.6-.796a.13.13 0 0 0-.172-.04l-.582.35c-.618-.105-1.356.205-1.684 1.009-.383 1 .39 2.322 1.242 3.185.937.754 1.406 1.105 2.491.95 1.1-.23 1.705-1.252 1.954-1.578 3.772 4.652 6.609 7.162 11.388 10.992 2.127.017 3.27-1.35 2.555-2.896-.235-.519-.853-.863-1.35-.673a1.11 1.11 0 0 0 0-.466c2.496-2.34 3.562-5.256.927-10.2-2.255-4.161-4.778-5.574-7.187-5.557h-.013zm6.334 4.68c.445.766.702 1.426 1.039 2.122 1.504 3.098.199 6.82-2.367 7.96-.125-.004-.086-.02-.216.024.419-.71-.839-2.225-1.482-1.693.304-.785-.678-2.086-1.483-1.75.421-.73-.54-1.97-1.44-1.566.465-.792-.328-1.927-1.26-1.721.282-.844-.423-1.811-1.37-1.651.08-.747-.16-1.157-.515-1.497 1.13-.875 2.38-2.222 3.487-2.828 2.76-1.218 4.465 1.107 5.605 2.6h.002z"/><g stroke-width=".112"><path d="M525.527 364.848c-.523-.261-.767-.785-.596-1.141.172-.356.712-.446 1.234-.184.523.262.813.769.642 1.124-.17.355-.757.465-1.281.202z"/><path d="M525.222 363.795c-.522-.262-.766-.785-.595-1.14.171-.356.712-.448 1.234-.185.523.264.813.769.642 1.124-.17.356-.757.464-1.282.202v-.001z"/><path d="M524.594 362.627c-.523-.26-.767-.785-.596-1.141.172-.356.712-.447 1.234-.184.523.263.814.769.642 1.124-.171.355-.757.465-1.281.202z"/><path d="M523.802 361.574c-.523-.262-.766-.785-.595-1.142.172-.356.712-.446 1.234-.184.523.263.813.769.642 1.124-.17.356-.757.464-1.28.203z"/><path d="M522.758 360.551c-.522-.261-.767-.785-.595-1.141.023-.048.007-.142.055-.118.213.111.653.193.605-.142-.065-.117-.148-.234-.07-.146.15.004.47.138.645.229.522.261.812.769.642 1.124-.17.355-.758.465-1.282.202v-.007z"/></g></g><path d="M511.714 365.706c.691-1.833 2.076-3.527 3.557-3.932m-3.324 4.19c1.28.27 3.356-1.284 3.86-2.673m-2.653 4.17c1.68.394 3.337-1.256 3.99-2.488m-2.48 4.121c1.986.066 3.21-1.37 3.793-2.469m-2.26 4.05c1.684.01 3.216-1.405 3.697-2.504m-2.217 3.95c1.834-.076 3.128-.925 3.671-2.144m-2.008 3.61c1.685.1 3.046-.925 3.492-1.923m-1.687 3.421c1.685.1 2.734-.96 3.18-1.96"/></g><path d="M511.714 365.706a7.417 7.417 0 0 1 1.327-2.406c.3-.35.627-.677 1-.945.373-.269.787-.482 1.23-.58-.43.144-.824.373-1.18.65a6.065 6.177 0 0 0-.965.948c-.585.695-1.042 1.494-1.411 2.334zm.233.258c.41.059.82-.046 1.197-.198a4.95 5.041 0 0 0 1.062-.613c.334-.24.64-.522.915-.828.276-.307.52-.65.686-1.034-.125.402-.356.766-.622 1.09-.266.325-.58.61-.914.862-.34.244-.703.459-1.098.602-.394.144-.821.225-1.226.119zm1.207 1.498a2.586 2.634 0 0 0 1.22-.089c.39-.125.758-.321 1.091-.566a5.82 5.82 0 0 0 .925-.83 6.247 6.363 0 0 0 .752-1.004 4.746 4.834 0 0 1-.69 1.061 5.284 5.382 0 0 1-.924.865c-.346.242-.723.447-1.13.557a2.29 2.29 0 0 1-1.245.006zm1.51 1.632a4.152 4.152 0 0 0 1.163-.189 3.858 3.858 0 0 0 1.048-.524 4.726 4.814 0 0 0 .877-.79 6.714 6.838 0 0 0 .705-.967 4.614 4.7 0 0 1-1.52 1.85 3.681 3.75 0 0 1-1.086.514 3.428 3.492 0 0 1-1.186.106zm1.532 1.58c.778-.043 1.514-.342 2.143-.79a5.233 5.33 0 0 0 .873-.763 4.29 4.37 0 0 0 .68-.95 3.47 3.47 0 0 1-.617 1.008 4.868 4.958 0 0 1-.874.797 4.262 4.262 0 0 1-1.05.535 3.064 3.064 0 0 1-1.155.164zm1.481 1.447a7.19 7.324 0 0 0 1.093-.193 4.716 4.803 0 0 0 1.028-.401 3.712 3.78 0 0 0 .89-.65 3.56 3.626 0 0 0 .66-.899 2.997 2.997 0 0 1-.6.961 3.54 3.605 0 0 1-.9.688 4.574 4.659 0 0 1-2.171.494zm1.663 1.467a4.604 4.69 0 0 0 1.034-.124 4.057 4.132 0 0 0 .966-.372c.307-.16.591-.365.846-.603.254-.237.478-.512.645-.826a2.609 2.609 0 0 1-.586.89 3.661 3.73 0 0 1-.854.639 3.733 3.733 0 0 1-1 .355 3.385 3.385 0 0 1-1.05.04zm1.805 1.497a3.965 4.039 0 0 0 .975-.124 3.164 3.223 0 0 0 .892-.387c.28-.168.528-.387.748-.632a4.087 4.163 0 0 0 .566-.817 3.142 3.142 0 0 1-1.256 1.544 3.012 3.068 0 0 1-.93.375 3.063 3.12 0 0 1-.994.04z"/></g><use xlink:href="#b" transform="matrix(-.99823 -.06055 -.05836 .99823 978.798 28.81)"/><g fill="#007a33" stroke="#154734" stroke-width=".168"><path d="M408.239 238.047c7.313-2.445 18.995-15.963 19.754-18.508-15.814 4.29-23.08 14.816-19.754 18.508zm147.804 4.855c-1.726-7.277-13.467-19.638-15.789-20.568 2.802 15.661 12.085 23.51 15.789 20.568z"/><path d="M408.239 238.047c-3.372-3.692 3.845-14.117 19.613-18.408-11.112 8.68-19.471 16.712-19.613 18.408zm147.804 4.855c-3.708 2.988-12.9-4.807-15.706-20.422 7.265 11.437 14.132 20.155 15.706 20.422z"/></g><g stroke="#000"><g fill="#d3bba8" stroke-width=".168"><path d="M451.817 318.704s-6.245.684-7.995-8.092c-1.872-9.386 5.38-10.384 5.38-10.384s8.219-.806 13.337-.94l2.272 18.546z"/><path d="M452.639 315.874s-4.042.787-4.875-5.737c-.592-4.62 2.216-5.275 2.216-5.275l9.366 1.615.051 8.513-6.758.885z"/><path d="m449.982 304.862 9.116-.858 1.3 5.9-7.202.46s-.494-5.326-3.213-5.502z"/><path d="M448.724 300.379s7.682-1.919 8.638 6.703c.25 2.253-.955 7.403-4.722 8.795l14.07-1.505-1.273-15.503-4.74.403s-10.064.353-11.973 1.106z"/><path d="M451.807 318.704c.048 0 52.638-3.606 58.027-3.382 15.966-8.923-.077-43.964-13.53-63.563 1.536-4.417-30.281-14.35-44.671-13.454l-5.227.366c-7.805.843-7.885 11.047-4.703 17.482 3.088 6.242 30.744 56.945 11.298 62.307z"/><path d="M446.94 241.632c-3.758 0-4.723 3.68-4.671 6.009.136 6.104 4.67 6.396 4.67 6.396l6.049-.343 2.898-12.564z"/><path d="m446.94 241.673 8.946-.502.921 9.386-7.805.349s2.526-7.515-2.063-9.232z"/><path d="M496.35 251.755c6.779-1.11 6.688-10.401 2.054-14.124-15.718-.588-36.403-.148-51.347.99 1.7-.05 6.427.389 6.953 6.726.245 2.958-1.182 5.673-3.104 7.217-1.88 1.51-3.962 1.51-3.962 1.51.252.098 2.193.007 3.65-.09.749-.05 2.587-.272 3.097-.342 21.31-2.853 42.582-1.883 42.582-1.883l.081.003z"/></g><path fill="#ef3340" stroke="none" d="M458.166 266.351c-.145-.341-.328-.773-.74-.831-.253.015-.654-.054-.575-.405.238-.117.541-.042.805-.067.57.01 1.129-.118 1.695-.153.341.095.264.556-.107.48-.414.094-.177.58-.076.835l1.347 3.206c.128.314.385.591.732.626.366.037.767.047 1.105-.12.316-.205.246-.644.203-.967-.127-.375.547-.292.501.045l.455 1.31c-.023.207-.28.149-.427.175l-3.02.23c-.324-.018-.808.29-1.006-.1-.12-.398.519-.174.605-.478-.003-.337-.198-.635-.312-.947l-1.185-2.84zm4.898-.35c-.142-.331-.306-.745-.696-.823-.25-.024-.663-.018-.625-.386.158-.168.462-.06.68-.095.599.02 1.19-.093 1.784-.15.294-.028.404.536.027.46-.363.012-.39.417-.237.672l1.459 3.528c.106.253.243.566.547.605.256.05.658-.03.714.326-.04.276-.439.123-.637.167-.53-.037-1.058.032-1.579.123-.229.066-.557.028-.566-.28.053-.28.592-.07.618-.413-.04-.337-.219-.637-.334-.95L463.065 266zm4.524.733c.092.234.41.066.594.077.267-.027.55-.222.526-.526-.043-.466-.267-.938-.64-1.222-.347-.248-.79-.22-1.19-.168-.023.16.1.314.148.468l.562 1.37zm.677 1.648c.165.36.283.77.573 1.05.247.178.577.097.856.068.306-.02.486-.342.391-.628-.144-.656-.561-1.344-1.255-1.485a2.422 2.422 0 0 0-.93 0c-.022.148.094.298.139.443l.227.552zm-2.064-2.45c-.16-.358-.313-.792-.698-.955-.247-.084-.652.03-.705-.334.065-.313.57-.093.813-.165.875-.023 1.768-.273 2.63-.004.744.188 1.411.836 1.47 1.639.024.39-.265.707-.589.866-.04-.14.372.063.513.084.591.192 1.135.595 1.398 1.181.203.411.36.962.04 1.358-.368.408-.953.427-1.46.452-.76.02-1.526.027-2.275.179-.27.047-.464-.498-.091-.464.375-.015.408-.428.247-.69l-1.294-3.147zm7.522-1.967c.332-.056.363.327.465.55.1.293.28.56.353.858-.281.285-.51-.15-.634-.37-.146-.256-.389-.492-.7-.467a8.428 8.584 0 0 0-1.236.075c-.147.163.066.406.113.596l.57 1.384c.275-.023.63.016.825-.215.076-.236-.274-.771.213-.66.301.175.266.621.422.91.127.401.39.748.499 1.152-.267.299-.532-.134-.628-.375-.19-.358-.634-.316-.973-.306-.244-.052-.076.178-.041.293.219.509.388 1.044.668 1.523.21.355.66.302 1.008.29.333-.019.742-.026.94-.35.218-.26-.279-.775.132-.858.352-.032.342.388.435.626.074.291.188.57.29.851-.027.206-.283.145-.43.169l-3.103.196c-.304 0-.817.247-.915-.205.026-.297.655-.14.562-.562-.074-.358-.253-.685-.378-1.026l-1.14-2.781c-.142-.306-.372-.64-.74-.649-.241.047-.61-.133-.468-.42.35-.07.72-.021 1.079-.06l2.81-.169zm2.343 1.364c-.156-.36-.306-.795-.689-.96-.26-.08-.736.012-.707-.408.25-.196.669-.032.982-.093.812-.011 1.643-.246 2.441 0 .837.238 1.537 1.004 1.595 1.902.028.43-.31.777-.694.891-.301.016.232.105.314.203.642.314 1.084.906 1.426 1.522.077.233.526.72.595.256-.027-.507.646-.078.494.271.002.369-.356.607-.69.603-.472.038-.917-.24-1.154-.645-.427-.571-.72-1.264-1.283-1.718-.235-.171-.567-.278-.842-.157-.059.144.069.29.105.43.183.422.31.874.555 1.264.204.32.602.37.943.368.365.092.263.594-.125.447-.594 0-1.192-.045-1.778.079-.273.13-.878.01-.658-.383.287-.016.684-.177.486-.54l-1.06-2.685-.258-.647zm1.424.922c.136.337.603.15.873.118.363-.082.353-.525.237-.803-.165-.484-.378-1.063-.902-1.234-.266-.036-.857-.209-.898.157l.64 1.635zm7.318 1.774c.11.267.216.63.546.678.258.06.673-.025.726.34-.05.274-.445.109-.645.148-.546-.052-1.09.013-1.631.087-.234.073-.559-.031-.525-.33.126-.216.656-.038.627-.415-.087-.413-.28-.793-.421-1.189l-1.165-2.98c-.095-.315-.449-.307-.712-.29-.277.003-.692.064-.692.43-.089.238.22.637-.045.76-.305.066-.367-.284-.432-.503-.1-.332-.264-.639-.39-.957.036-.221.325-.182.5-.2l4.189-.18c.307-.049.51.198.524.493.11.348.274.674.42 1.007-.114.34-.515.048-.56-.203-.202-.36-.517-.715-.953-.734-.26.012-.651-.089-.826.15.007.248.147.468.223.7l1.243 3.188zm3.783-.94c-.195 0-.099.25-.12.379.012.292-.017.588.03.876.134.32.535.242.797.328.233.136.175.518-.138.401-.43-.027-.863-.071-1.286.034-.252.138-.723-.127-.5-.405.205-.036.455-.104.502-.346.073-.427.034-.864.048-1.297l.022-3.837c.122-.288.521-.045.61.172l3.644 4.685c.195.24.469.413.78.431.263.002.407.55.026.441-.518-.03-1.041-.065-1.556.024-.231.006-.5.115-.706-.023-.247-.184-.071-.45.199-.416.357-.103-.005-.493-.119-.673l-.597-.777c-.173-.087-.379-.023-.566-.032l-1.07.036zm1.19-.529c.184.011-.058-.16-.089-.243l-1.29-1.718c.084-.013.016.181.039.265l-.002 1.74 1.343-.043zm3.1-1.909c-.151-.411-.355-.916-.83-1.013-.246.045-.712-.183-.46-.454l1.677-.017c.708-.062 1.436-.045 2.11.211 1.48.509 2.71 1.837 2.955 3.43.108.625-.08 1.347-.634 1.696-.745.482-1.665.393-2.505.344-.477-.023-.951.041-1.424.089-.308-.042-.342-.529.023-.471.378-.013.37-.436.232-.69l-1.145-3.125zm1.998 2.576c.15.352.242.78.57 1.008.307.148.668.12.996.083.446-.06.723-.51.727-.942.027-.778-.286-1.522-.641-2.194-.38-.724-1.071-1.274-1.87-1.417-.33-.055-.675-.107-1.005-.051-.072.127.06.281.087.414l1.135 3.098zm-21.41 12.826c.118.362.447.62.817.655.26.046.709-.017.723.366-.14.241-.537.073-.78.127a8.607 8.607 0 0 0-1.572.095c-.28.012-.575.13-.849.05-.248-.12-.196-.486.109-.44.25-.06.613-.14.63-.465-.023-.294-.184-.552-.281-.825l-1.168-2.842c-.088-.334-.453-.344-.726-.293-.251.048-.624.128-.686-.227.03-.302.504-.246.712-.403l.952-.368c.22-.048.33.156.384.333l1.736 4.238zm.761-4.659c.692-.027 1.387.08 2.075.002.306-.03.097-.513.39-.485.376.017.316.493.34.763a.527.537 0 0 1-.579.602c-.54.03-1.08-.05-1.62-.021.122.426.292.836.451 1.249.027-.139.467-.16.648-.187 1.08-.049 2.199.58 2.651 1.594.218.492.332 1.137-.03 1.591-.392.471-1.044.567-1.618.573-.496-.006-1.079-.116-1.372-.567-.17-.223-.14-.703.224-.663.31.004.668.273.618.616.165.23.532.149.786.145.303-.01.592-.25.577-.577.007-.502-.188-.994-.46-1.405-.297-.437-.795-.73-1.321-.719-.298-.05-.556.152-.839.152-.288-.04-.339-.378-.441-.6l-.66-1.877a.16.16 0 0 1 .18-.185zm6.947 1.054c-.162-.408-.375-.911-.853-1-.245.059-.713-.176-.468-.444l1.697-.07c.714-.088 1.452-.074 2.134.181 1.507.51 2.748 1.878 2.976 3.5.09.602-.116 1.278-.641 1.614-.728.481-1.63.409-2.458.39-.46-.006-.914.071-1.367.131-.306-.035-.358-.52.008-.476.378-.028.347-.454.205-.704l-1.233-3.123zm2.06 2.542c.16.35.263.778.597 1.002.307.14.664.101.988.055.445-.078.697-.542.688-.973.003-.786-.33-1.528-.705-2.198-.395-.714-1.092-1.254-1.896-1.377-.326-.046-.67-.087-.995-.022-.066.13.069.28.1.415l1.222 3.097zm6.53-4.402c.317-.054.358.303.443.521.103.292.249.567.351.86-.191.32-.514-.06-.596-.293-.147-.256-.361-.536-.683-.529a9.559 9.559 0 0 0-1.252.035c-.228.105.015.402.055.586l.55 1.403c.27-.009.582.012.81-.157.177-.22-.272-.761.215-.703.331.123.28.588.42.866.127.41.362.773.499 1.178-.178.342-.551-.058-.602-.312-.143-.33-.528-.374-.84-.363-.207-.037-.375.01-.229.223.218.532.385 1.09.665 1.593.205.359.659.312 1.008.308.334-.012.746-.008.953-.327.21-.251-.199-.68.083-.838.343-.1.422.287.473.54.076.316.186.624.294.93-.032.203-.284.137-.433.158l-3.133.131c-.291-.02-.7.213-.882-.118-.187-.409.51-.186.537-.542.022-.315-.161-.592-.254-.883l-1.164-2.995c-.137-.323-.366-.684-.751-.701-.24.042-.612-.14-.463-.427.362-.06.739-.005 1.106-.036l2.818-.11zm-27.666 14.752c.151.503.677.708 1.127.845.78.27 1.622.536 2.177 1.196.311.384.526.882.503 1.386-.04.513-.471.898-.938 1.024-.574.19-1.208.14-1.76-.1-.27-.119-.167.482-.503.279-.241-.188-.165-.579-.3-.842a9.718 9.718 0 0 0-.39-.996c.012-.337.487-.161.502.101.332.614.937 1.157 1.656 1.163.363.012.818-.186.85-.603.007-.553-.425-.985-.877-1.222-.649-.343-1.395-.451-2.023-.839-.563-.345-.96-.985-.96-1.66.012-.452.375-.804.778-.934a2.667 2.717 0 0 1 1.59-.054c.241.129.345-.283.603-.079.116.203.087.476.197.694.082.296.275.555.339.852-.161.253-.473.015-.525-.21-.224-.377-.523-.798-.996-.83-.351-.028-.798-.03-1.022.297a.616.616 0 0 0-.03.532zm6.785-1.705c.331-.06.34.325.424.546.082.28.212.544.293.825-.142.297-.5.026-.544-.218-.139-.268-.343-.59-.682-.57a9.787 9.968 0 0 0-1.243.077c-.23.105-.007.404.026.591l.473 1.4c.271-.019.584-.01.81-.186.198-.208-.194-.624.142-.719.379-.048.35.456.44.707.1.465.34.877.475 1.328-.147.328-.54.01-.559-.256-.113-.34-.49-.411-.799-.38-.181-.012-.428-.014-.28.218l.558 1.562c.123.293.458.357.738.332.398-.028.859.016 1.169-.29.248-.242.041-.604.096-.881.253-.206.534.07.507.353a9.837 10.02 0 0 0 .271 1.055c-.043.207-.296.149-.451.175l-3.096.236c-.284-.015-.694.243-.868-.09-.16-.396.464-.214.545-.518.081-.305-.1-.593-.174-.883l-1.018-3.038c-.117-.317-.33-.682-.707-.685-.242.057-.6-.136-.437-.415.351-.074.722-.029 1.08-.072l2.813-.205zm4.239 4.277c.092.314.274.659.62.723.253.092.674-.075.743.296-.012.338-.5.154-.722.21a6.369 6.487 0 0 0-1.544.109c-.22.032-.552.111-.616-.196-.056-.347.47-.151.58-.412.082-.267-.066-.533-.137-.79l-1.023-3.116c-.116-.301-.274-.696-.638-.73-.236-.011-.638-.033-.566-.381.177-.171.493-.054.722-.085.741.017 1.47-.198 2.21-.148.762.03 1.504.524 1.76 1.268.168.418.223.946-.08 1.318-.392.47-1.036.566-1.602.643-.215-.03-.04.198-.028.312l.32.98zm-.58-1.777c.209.03.468-.026.686-.086.319-.065.485-.412.402-.718-.09-.436-.231-.894-.552-1.213-.308-.262-.756-.27-1.127-.169-.142.126.002.33.036.486l.556 1.701zm6.239 1.477c.091.264.172.632.499.674.25.057.67-.037.7.33-.061.274-.447.12-.651.162-.547-.043-1.09.032-1.63.115-.228.08-.555-.022-.5-.322.14-.22.659-.052.653-.429-.056-.403-.221-.78-.334-1.17l-.964-2.997c-.077-.32-.435-.3-.689-.278-.253.022-.629.049-.703.362-.084.262.041.55-.015.804-.24.168-.473-.092-.463-.341a6.894 6.894 0 0 0-.35-1.035c-.01-.247.31-.227.486-.244l4.201-.255c.306-.057.497.194.49.486.083.346.226.674.349 1.005-.069.293-.492.135-.508-.123-.177-.364-.451-.758-.887-.787-.284-.005-.633-.059-.87.128-.054.213.078.417.126.62zm2.13-3.398c-.107-.315-.223-.716-.58-.815-.239-.063-.658.009-.634-.367.097-.219.423-.083.617-.124.608.028 1.21-.06 1.813-.122.27-.125.485.435.154.435-.259-.002-.554.194-.449.489.134.55.33 1.08.493 1.62l.729 2.273c.067.237.251.445.506.456.244 0 .672.035.596.391-.183.161-.486.06-.718.083-.546-.046-1.087.05-1.627.118-.235.102-.543-.144-.397-.391.209-.1.656-.044.625-.397-.079-.424-.24-.827-.362-1.24l-.763-2.408zm5.841-1.653c.322-.059.338.315.41.534.079.286.205.557.283.842-.147.292-.502.019-.542-.226-.134-.272-.333-.595-.675-.58a9.518 9.518 0 0 0-1.25.054c-.233.097-.015.4.015.588l.448 1.403c.273-.013.587.002.818-.169.203-.202-.182-.627.156-.713.38-.043.342.461.43.713.087.465.324.88.449 1.332-.117.298-.535.043-.536-.22-.096-.33-.434-.468-.75-.437-.147.017-.51-.077-.362.176l.54 1.598c.119.296.455.365.735.345.4-.021.862.035 1.18-.266.254-.235.055-.6.114-.875.256-.198.533.078.502.362.063.356.15.708.251 1.054-.041.2-.285.144-.436.165l-3.137.176c-.279-.018-.653.21-.85-.067-.22-.4.386-.26.515-.502.136-.275-.043-.565-.11-.837l-.974-3.084c-.112-.333-.319-.726-.714-.738-.24.054-.6-.145-.43-.421.347-.066.713-.017 1.068-.05l2.85-.154zm2.029.992c-.067-.37-.344-.7-.745-.643-.38.1-.507-.59-.034-.444.515.003 1.044-.08 1.55.037.248.273.445.595.673.888l2.2 3c-.16.037-.036-.192-.053-.312l.36-3.658c.277-.234.74-.136 1.093-.21.286-.043.938-.139.756.361-.343.058-.781.229-.545.669l1.13 3.697c.07.432.497.564.87.544.322.019.338.582-.048.445-.602-.013-1.208-.05-1.804.066-.269.093-.833.063-.65-.367.301-.055.805-.147.595-.591l-.998-3.276c.07.098-.012.264-.004.39l-.296 3.067c-.04.268.05.593-.075.824-.24.12-.391-.117-.511-.285l-2.897-3.819c.099-.037.087.216.142.302l.924 2.976c.103.4.501.517.86.52.385.2.1.566-.235.417-.507-.075-1.012.029-1.514.087-.32-.009-.335-.53.03-.461.475.004.33-.54.22-.828l-1.038-3.382.043-.012zm8.863.878c.06.232.37.076.534.1.289-.018.629-.18.644-.514.01-.45-.16-.934-.506-1.228-.335-.261-.78-.236-1.178-.198-.042.15.063.313.094.466l.411 1.374zm.494 1.65c.126.36.196.768.458 1.056.24.186.575.108.853.09.261-.019.494-.236.468-.515-.031-.617-.32-1.303-.92-1.544-.345-.129-.723-.13-1.084-.094-.114.1.039.299.055.436l.17.57zm-1.798-2.48c-.119-.357-.227-.796-.594-.966-.237-.09-.652.019-.673-.349.085-.298.552-.081.785-.142.9.011 1.82-.233 2.699.065.703.19 1.302.846 1.297 1.61-.003.422-.338.74-.697.894-.023-.139.367.072.507.098.536.194 1.033.574 1.243 1.13.18.428.284.984-.039 1.372-.367.415-.963.445-1.474.458-.801.003-1.608-.018-2.402.118-.288.036-.401-.518-.038-.462.365 0 .465-.391.327-.677l-.94-3.149zm5.077-.183c-.116-.357-.221-.795-.586-.968-.242-.091-.697.013-.675-.382.197-.264.667-.042.968-.107.687.005 1.377-.134 2.063-.047.802.096 1.57.668 1.765 1.489.144.435.05.985-.365 1.23-.088.1-.527.205-.45.196a2.741 2.741 0 0 1 1.432 1.315c.162.271.244.6.473.824.268.204.3-.17.346-.337.356-.18.537.326.392.6-.15.435-.688.52-1.075.418-.348-.081-.61-.352-.767-.668-.346-.555-.562-1.208-1.044-1.664-.228-.201-.574-.32-.864-.203-.075.139.04.298.064.444.13.404.211.826.392 1.21.16.338.55.422.885.424.327-.008.35.577-.032.443-.619-.003-1.242-.078-1.856.034-.224-.005-.54.14-.684-.104-.218-.433.423-.236.565-.484.091-.287-.065-.578-.132-.858l-.816-2.804zm1.332.948c.099.337.563.154.816.148.295-.03.466-.336.404-.617-.077-.464-.195-.974-.555-1.298-.31-.231-.731-.23-1.095-.167-.157.132-.014.352.019.52l.41 1.413zm6.984-2.621c.316-.05.33.308.39.527.072.291.19.569.26.86-.137.267-.495.032-.521-.212-.131-.268-.296-.608-.634-.624a9.508 9.508 0 0 0-1.305.005c-.238.085-.032.395-.008.58l.403 1.406c.263 0 .546.008.79-.107.284-.165-.113-.609.19-.726.377-.084.373.407.431.66.07.483.3.918.416 1.387-.126.291-.538.029-.531-.236-.082-.306-.379-.468-.677-.454-.143.028-.564-.124-.442.141l.494 1.619c.111.3.447.376.728.367.404-.007.867.064 1.2-.224.263-.222.075-.593.146-.863.261-.187.534.09.493.375a9.462 9.638 0 0 0 .216 1.053c-.054.201-.3.13-.456.148l-3.159.069c-.272-.026-.615.163-.83-.058-.267-.39.303-.314.48-.483.192-.227.034-.529-.025-.782l-.897-3.174c-.101-.32-.274-.703-.646-.746-.24.012-.618-.097-.492-.418.306-.109.666-.003.991-.037l2.991-.054zm-33.285 13.563c-.094-.38-.22-.878-.653-.98-.24.006-.653-.064-.507-.406.311-.127.684-.029 1.017-.079.83-.044 1.677-.253 2.5-.027 1.21.282 2.263 1.226 2.619 2.447.229.755.264 1.655-.234 2.31-.527.689-1.43.88-2.244.891-.626-.006-1.254-.011-1.87.117-.24.146-.639-.095-.429-.366.262-.077.68-.155.6-.535l-.365-1.576-.433-1.796zm1.665 2.52c.1.334.138.733.41.976.28.166.625.1.931.073.476-.065.827-.495.902-.961.143-.783-.08-1.587-.384-2.303-.263-.623-.81-1.116-1.468-1.254-.382-.08-.79-.118-1.173-.04-.086.12.023.282.036.416l.747 3.092zm7.159-4.575c.322-.062.314.314.367.53.056.286.162.558.218.842-.131.269-.494.063-.508-.192-.115-.263-.272-.603-.602-.605-.432-.02-.865.02-1.295.061-.238.089-.05.398-.032.588l.338 1.403c.278-.016.594-.006.83-.177.216-.194-.132-.636.21-.715.382-.047.308.462.374.71.05.46.256.88.346 1.33-.122.294-.538.06-.518-.217-.07-.333-.409-.467-.714-.43-.148.02-.502-.076-.379.18.136.532.226 1.08.417 1.597.098.301.436.362.707.34.422-.021.918.023 1.237-.316.249-.232.019-.622.173-.86.295-.173.49.146.45.421.033.341.093.679.163 1.013-.06.206-.309.146-.472.17l-3.12.202c-.26-.009-.56.16-.79.013-.263-.28.094-.423.329-.455.294-.099.263-.457.19-.7l-.796-3.346c-.084-.31-.241-.7-.607-.725-.24.029-.613-.085-.47-.401.3-.123.661-.032.984-.078zm6.581 4.235c.046.32.29.589.605.641.24.102.613-.039.743.251.094.363-.393.243-.598.26-.581-.01-1.164-.022-1.74.068-.29.019-.582.1-.87.067-.281-.12-.153-.518.149-.459.271-.06.638-.133.716-.455.033-.278-.08-.545-.128-.815l-.652-2.855c-.03-.337-.393-.346-.644-.304-.232.009-.596.168-.67-.169-.036-.349.473-.277.68-.419l1.123-.391c.215-.05.306.154.324.33l.963 4.25zm3.743-3.43c-.074-.375-.283-.812-.7-.866-.295-.057-.68.03-.787.354a.962.962 0 0 0 .374 1.056c.276.204.6.322.907.469.06-.123.25-.362.24-.578a1.46 1.488 0 0 0-.034-.435zm.848 2.989c-.105-.503-.579-.796-1.01-.98-.188-.033-.452-.286-.567-.182-.312.277-.463.737-.324 1.143.116.5.486.992 1.02 1.034.353.048.771-.113.875-.49.054-.169.045-.353.006-.525zm.901-.216a1.256 1.256 0 0 1-.478 1.343c-.589.413-1.374.442-2.044.238-.595-.177-1.096-.684-1.202-1.318-.124-.505.08-1.08.52-1.354.103-.103.495-.145.178-.223-.506-.253-1.004-.666-1.108-1.262-.122-.503.108-1.07.56-1.317.87-.484 2.118-.199 2.62.697.22.381.263.89-.001 1.261-.142.2-.326.403-.572.458.492.102.94.41 1.24.82.141.194.236.421.287.657zm3.311.574c.247.01.511-.14.549-.406.086-.202-.085-.635.259-.611.313.02.28.391.313.622.026.41-.002.9-.349 1.174-.252.163-.566.095-.848.1-.57-.02-1.139-.142-1.709-.076-.238.025-.502.295-.727.101-.194-.23-.078-.536-.005-.789.197-.635.633-1.154 1.116-1.589.34-.323.72-.673.77-1.173a2.04 2.04 0 0 0-.296-1.225c-.287-.466-.963-.629-1.418-.332-.235.154-.42.511-.232.77.214.167.609.017.712.365.132.242-.005.619-.305.615-.446.07-.85-.286-.965-.708-.184-.527.02-1.167.502-1.452.506-.322 1.15-.315 1.714-.175a1.752 1.752 0 0 1 1.232 1.176c.156.447.162.964-.082 1.38-.382.742-1.166 1.11-1.68 1.732-.146.161-.248.384-.19.606.078-.21.403-.138.59-.173.353-.014.7.079 1.05.07zm3.996-.434c.039.32.278.595.592.653.232.105.575-.016.726.233.147.356-.338.292-.544.28-.6-.022-1.2-.053-1.797.028-.291.012-.586.084-.875.045-.285-.132-.132-.512.16-.453.274-.053.643-.116.73-.435.039-.275-.068-.542-.11-.81l-.589-2.86c-.019-.294-.32-.358-.554-.323-.24-.027-.571.17-.724-.096-.175-.364.35-.357.56-.453l1.239-.397c.215-.046.302.16.316.335l.87 4.254z"/></g><g fill="#007a33" stroke="#000" stroke-width=".223"><path fill="#ef3340" stroke="#ef3340" d="m475.741 216.757-3.824 4.63c-1.217 5.414 1.807 9.491 7.757 13.031 4.82 3.048 13.741 3.81 16.559 1.354l-13.909-13.502-6.584-5.513z"/><path d="m503.915 356.068-2.064-2.504c-8.68 11.67-19.52 22.136-33.079 29.518 15.29-4.41 25.298-15.76 35.143-27.014zm-15.659 36.888c5.391-11.127 11.897-22.255 18.46-33.383l-2.173-2.723c-7.457 12.588-16.206 27.56-16.287 36.105zm42.321-118.279c-.999-4.387-2.302-9.128-4.37-13.485-2.695-5.61-6.717-11.189-12-17.359-9.515-10.509-19.036-20.657-32.378-28.15l.07-.142.079.048h.166l-.163-.207h.477l-.258-.263h.443l-.357-.414h.467l-.333-.338h.499l-.277-.376.403.03-.377-.4.556-.112-.45-.288.486-.095-.408-.285.594-.193-.523-.316.66-.298-.64-.471.677-.237-.736-.304.62-.333-.73-.134.496-.585-.712.038.324-.616-.676.056-.045-.06.371-.463-.684.124.3-.632-.658.336.187-.73-.637.446.097-.743-.587.513.06-.71-.517.55.047-.748-.51.63-.05-.737-.41.579-.208-.698-.34.698-.173-.74-.321.74-.156-.74-.277.74-.21-.698-.217.698-.161-.614-.245.739-.227-.696-.244.795-.297-.71-.127.848-.357-.694-.042.82-.388-.621-.026.813-.413-.587.032.714-.44-.377.216.768-.533-.316.2.674-.438-.25.156.651-.398-.13.209.486-.03.066-.308-.06.176.379h.001c-.389 1.072-.42 2.354-.356 3.631.013.239.603.48.695.627.28.443.23.683.23.683-1.614 2.665-3.058 4.724-3.22 7.78 1.297-1.672 2.64-3.72 4.524-3.72-.933 1.588-1.376 6.376-.328 7.105l.782-1.397c.028 1.11.182 1.85.394 2.398.327-.672.652-1.313.977-1.799.074 1.556.27 2.804.713 3.42.435-.764 1.023-1.23 1.64-1.622-.213.888-.526 1.727-.394 2.793.654-1.138 1.308-1.811 1.96-2.596-.378 1.64-.035 2.862.423 4.671.405-2.144.565-2.372 1.537-3.275.108 1.966-.26 3.752.145 4.85.887-1.73 1.48-1.484 2.011-2.603-.103 1.631-.425 3.4-.014 4.856.34-1.46 1.26-2.24 1.972-2.759.057 2.272.573 1.898-.813 3.824.587.274 2.577-.389 3.656-.86-.522 1.217-.368 2.171-.89 3.033 1.095-.561 2.028-1.467 2.942-2.398-.424 1.397-1.547 2.793-.984 4.19.256-1.305 1.291-2.38 2.274-2.575-.152.731-.256 2.246-1.29 2.977 2.478.26 3.455-1.444 4.703-2.793-.162 1.403-.116 2.523 1.574 4.498-.342-2.51.244-1.994 1.362-3.504.54 2.22 1.158 4.577 3.43 6.213-.943-2.342-1.116-3.548-.583-5.023.292 1.521 1.708 3.357 2.048 4.798.21-1.6.448-3.146.977-4.19.66 1.815 1.214 3.689 1.37 5.784a17.94 17.94 0 0 0 1.178-3.188c20.016 21.303 24.479 48.386 2.549 77.001 7.88-5.422 9.914-14.017 14.292-21.344-4.273 9.595-6.178 20.388-13.704 28.326 7.29-6.407 8.835-12.277 13.219-18.451-4.673 12.913-11.138 27.064-20.102 40.02l4.785 5.36 4.155-7.075c9.501-15.945 25.007-38.737 17.152-73.495z"/></g><path fill="#ffcd00" stroke="#000" stroke-width=".223" d="M473.064 212.5c-1.011.234-1.412.664-2.14 1.492.93.206 1.715.254 2.556.272.26-.024.348-.36.29-.604l-.13-.987c-.023-.224-.61-.206-.886-.088l.309-.084z"/><path d="M470.914 213.988a10.03 10.216 0 0 1 1.068-.307l1.093-.198a9.96 10.144 0 0 1-1.068.308z"/><ellipse cx="477.648" cy="212.631" stroke="#000" stroke-width=".1" rx=".786" ry=".838"/><ellipse cx="477.831" cy="212.471" fill="#fff" rx=".342" ry=".365"/><path d="m488.297 392.657 1.55-4.587 1.808-4.49 4.193-8.713 4.73-8.422 2.488-4.136 2.545-4.098-2.453 4.156-2.434 4.167-4.68 8.44-4.233 8.678-1.862 4.46-1.651 4.547zm-19.107-9.772 4.95-2.454 4.769-2.794a73.06 74.418 0 0 0 8.856-6.628c2.794-2.42 5.404-5.055 7.872-7.819a117.787 117.787 0 0 0 3.606-4.236 172.945 176.158 0 0 0 3.447-4.374 155.927 158.824 0 0 1-3.363 4.444 114.316 116.44 0 0 1-3.562 4.283 83.06 84.603 0 0 1-7.855 7.875 70.981 70.981 0 0 1-8.91 6.604 72.442 73.787 0 0 1-4.81 2.744 77.272 77.272 0 0 1-5 2.356zm37.808-30.309 2.233-3.405 2.128-3.472 4.015-7.093 3.804-7.216 3.729-7.259-1.77 3.679-1.808 3.66-3.762 7.244-4.064 7.075zm5.973-25.938a59.308 60.41 0 0 0 4.759-6.632 62.414 62.414 0 0 0 3.864-7.205c2.266-4.968 3.895-10.22 5.045-15.568l.42-2.008a62.006 63.158 0 0 0 .298-2.027 61.803 62.951 0 0 0 .406-4.083c.182-2.73.18-5.475-.03-8.204a51.347 52.301 0 0 0-1.258-8.105 55.817 55.817 0 0 0-2.437-7.828 56.013 56.013 0 0 1 2.542 7.802 51.185 52.136 0 0 1 1.298 8.118 56.92 56.92 0 0 1 .068 8.228 62.117 63.271 0 0 1-.388 4.098 59.663 60.772 0 0 1-.291 2.041l-.412 2.016c-1.176 5.354-2.833 10.613-5.129 15.581a60.698 61.825 0 0 1-3.907 7.2 58.943 60.038 0 0 1-4.849 6.575zm-1.663-5.899c1.87-1.82 3.52-3.864 4.967-6.042 1.457-2.172 2.72-4.476 3.85-6.842l3.069-7.246 1.38-3.691.337-.926.298-.933.586-1.89-.005.017c.513-2.607.79-5.263.822-7.923a48.444 48.444 0 0 0-.58-7.952c-.405-2.63-1.01-5.227-1.755-7.78a83.824 83.824 0 0 0-2.59-7.545l2.694 7.512a58.416 59.501 0 0 1 1.797 7.789c.419 2.636.64 5.305.618 7.978a43.631 43.631 0 0 1-.79 7.964l-.003.008-.003.01-.59 1.874-.306.943-.343.925-1.399 3.687-3.11 7.243c-1.143 2.366-2.417 4.67-3.891 6.837-1.48 2.163-3.16 4.186-5.055 5.98zm-5.902 30.122 3.623-5.162 1.802-2.59 1.758-2.614c1.083-1.802 2.018-3.693 2.939-5.587l2.747-5.696c1.808-3.809 3.555-7.65 5.038-11.599a78.87 78.87 0 0 0 3.5-12.151c.858-4.135 1.436-8.328 1.911-12.53.432-4.198.478-8.45.039-12.652a55.214 55.214 0 0 0-2.764-12.333c-1.369-3.992-3.159-7.827-5.17-11.528 2.042 3.683 3.867 7.503 5.273 11.491a54.968 54.968 0 0 1 2.808 12.354c.449 4.214.42 8.473-.001 12.69-.465 4.206-1.03 8.405-1.88 12.553a78.6 78.6 0 0 1-3.544 12.173c-1.503 3.95-3.258 7.792-5.078 11.597l-2.766 5.689c-.926 1.893-1.867 3.785-2.96 5.587-.544.906-1.18 1.747-1.785 2.605l-1.824 2.573-3.668 5.133zm2.799 3.12 7.052-11.965c2.282-4.03 4.547-8.072 6.557-12.247 2.01-4.176 3.753-8.486 5.067-12.937a77.84 77.84 0 0 0 1.677-6.756 60.12 61.236 0 0 0 .601-3.428l.479-3.452c.59-4.61.941-9.253.935-13.902-.006-4.648-.371-9.298-1.215-13.867-.844-4.569-2.171-9.045-4.033-13.29a56.03 56.03 0 0 0-7.056-11.913 54.826 55.844 0 0 1 7.155 11.87c1.88 4.246 3.223 8.731 4.08 13.307.855 4.575 1.236 9.238 1.255 13.893.018 4.656-.32 9.313-.901 13.932l-.489 3.456a59.623 60.73 0 0 1-.612 3.438 75.271 76.67 0 0 1-1.698 6.767c-1.33 4.458-3.085 8.776-5.112 12.948-2.028 4.171-4.298 8.215-6.596 12.237-2.308 4.017-4.72 7.968-7.145 11.91zM480 218.161a7.9 7.9 0 0 1 1.438.118 14.37 14.638 0 0 1 1.415.303 19.117 19.472 0 0 1 2.724.986c1.767.793 3.42 1.832 4.97 2.999a36.317 36.992 0 0 1 4.316 3.91l1.931 2.186 1.783 2.31-1.865-2.237-1.97-2.139c-1.354-1.383-2.786-2.69-4.327-3.85a27.09 27.09 0 0 0-4.907-3.022 19.208 19.565 0 0 0-2.684-1.037c-.919-.274-1.862-.488-2.823-.526z"/><g fill="#007a33"><path d="M496.613 229.318s3.102 1.858 4.792 4.586c0 0-4.784-.911-8.185-4.805"/><path fill="#000" d="M496.613 229.318c.486.27.946.585 1.398.91l1.298 1.057c.418.373.809.778 1.178 1.201a10.466 10.66 0 0 1 1.01 1.357l.138.224-.252-.056a14.596 14.596 0 0 1-2.305-.735 15.365 15.365 0 0 1-2.167-1.073c-1.388-.82-2.66-1.859-3.692-3.107a15.385 15.67 0 0 0 3.773 2.96 18.529 18.873 0 0 0 2.16 1.03 14.604 14.875 0 0 0 2.271.706l-.113.17a11.51 11.51 0 0 0-.978-1.34c-.358-.423-.745-.82-1.141-1.207l-1.249-1.099-1.331-1z"/><path d="m489.717 228.41 8.39 5.141s-1.631-3.592-5.12-5.136"/><path fill="#000" d="m489.717 228.41 4.198 2.57 2.098 1.283 1.06.622 1.068.566-.13.146a10.821 11.022 0 0 0-.937-1.576c-.355-.5-.738-.98-1.158-1.426a10.882 11.084 0 0 0-1.365-1.223 9.312 9.312 0 0 0-1.564-.957c.568.229 1.11.53 1.619.878.509.35.98.756 1.42 1.193a11.186 11.394 0 0 1 1.205 1.419 10.994 11.198 0 0 1 .972 1.602l.126.258-.257-.111c-.779-.34-1.457-.783-2.165-1.207l-2.09-1.305-4.1-2.733z"/><path d="M492.637 226.002s3.814 1.652 4.677 4.524c0 0-6.849-2.935-8.075-4.493"/><path fill="#000" d="M492.637 226.002c.516.206 1.006.47 1.486.755a11.044 11.25 0 0 1 1.359.983 7.272 7.407 0 0 1 1.156 1.233c.335.458.617.967.781 1.52l.068.23-.215-.094-2.112-.965-2.079-1.036-2.022-1.147-.963-.655c-.31-.234-.618-.48-.856-.792.255.296.572.523.888.744l.985.61 2.044 1.09 4.2 1.947-.147.135a5.028 5.028 0 0 0-.735-1.463 7.91 8.057 0 0 0-1.107-1.223 11.038 11.038 0 0 0-1.304-1.02 12.858 12.858 0 0 0-1.426-.852z"/><path d="M486.857 228.988s6.74 4.915 8.735 4.915c0 0-1.976-3.366-5.465-4.91"/><path fill="#000" d="m486.857 228.988 2.105 1.394 2.136 1.341 2.186 1.24 1.135.522c.383.151.782.299 1.172.31l-.09.162a12.88 12.88 0 0 0-1.086-1.497 15.056 15.056 0 0 0-1.266-1.353 13.53 13.53 0 0 0-1.43-1.172 11.152 11.152 0 0 0-1.593-.941c1.146.465 2.197 1.166 3.125 1.998a13.154 13.398 0 0 1 1.31 1.34c.404.479.783.975 1.119 1.515l.103.166-.194-.005c-.452-.011-.855-.163-1.252-.314a13.932 13.932 0 0 1-1.149-.541l-2.19-1.269-2.103-1.403-2.04-1.495z"/><path d="M486.857 230.527s3.51 3.015 5.503 3.015c0 0-1.975-3.365-5.464-4.908"/><path fill="#000" d="m486.857 230.527 1.29.935 1.333.86c.452.272.915.525 1.396.73.24.103.484.193.733.26a2.89 2.944 0 0 0 .751.125l-.09.162a12.576 12.81 0 0 0-1.085-1.498 15.975 15.975 0 0 0-1.266-1.352 13.612 13.612 0 0 0-1.43-1.173 11.152 11.152 0 0 0-1.593-.94c1.146.464 2.197 1.166 3.125 1.997a13.133 13.377 0 0 1 1.309 1.34 12.758 12.995 0 0 1 1.12 1.515l.101.163h-.19c-.56-.001-1.079-.186-1.568-.401a11.23 11.23 0 0 1-1.41-.765l-1.306-.924-1.222-1.032z"/><path d="M485.102 223.75s7.31 5.286 8.173 8.157c0 0-6.614-3.093-7.84-4.65"/><path fill="#000" d="m485.102 223.75 2.337 1.735 2.236 1.87a26.259 26.259 0 0 1 2.083 2.052 12.545 12.778 0 0 1 .925 1.146c.28.405.548.83.697 1.322l.073.24-.223-.106-2.051-1.017-2.017-1.085-1.962-1.189-.934-.67c-.3-.236-.597-.486-.831-.792.251.292.559.522.865.746l.955.625 1.985 1.13 4.08 2.049-.15.134c-.141-.447-.389-.867-.662-1.261a12.383 12.613 0 0 0-.9-1.133c-.641-.727-1.34-1.4-2.048-2.06l-2.19-1.913-2.266-1.823z"/></g><g fill="#007a33" stroke="#154734" stroke-width=".168"><path d="M444.526 372.658c-4.959 3.764-18.816 5.608-20.738 4.96 10.084-8.546 20.004-8.751 20.738-4.96zm70.747 4.586c5.329 4.926 21.403 8.32 23.808 7.708-10.691-11.126-22.415-12.255-23.808-7.708z"/><path d="M444.485 372.627c-.731-3.792-10.606-3.563-20.667 4.932 10.594-3.555 19.51-5.583 20.667-4.932zm70.9 4.555c1.39-4.547 12.975-3.448 23.695 7.709-12.052-5.187-22.258-8.366-23.695-7.709z"/></g></svg>