<svg xmlns="http://www.w3.org/2000/svg" xmlns:xlink="http://www.w3.org/1999/xlink" width="1000" height="500"><path fill="#00abc2" d="M0 0h1000v500H0z"/><g fill="#ffec2d"><g transform="translate(540.236 210)"><circle r="67.275"/><g id="c"><g id="b"><path id="a" d="M0-76.45C4-76.5 5.5-79 5.5-82c0-4-5.5-23.05-5.5-23.05S-5.5-86-5.5-82c0 3 1.5 5.55 5.5 5.55z"/><use xlink:href="#a" transform="rotate(90)"/><use xlink:href="#a" transform="rotate(180)"/><use xlink:href="#a" transform="rotate(270)"/></g><use xlink:href="#b" transform="rotate(22.5)"/><use xlink:href="#b" transform="rotate(45)"/><use xlink:href="#b" transform="rotate(67.5)"/></g><use xlink:href="#c" transform="rotate(11.25)"/></g><path d="M528.234 355.733c-1.8.1-3.55.333-5.267.883-2.35.317-4.6 1.134-6.933 1.517l-.934.15-1.567.15c.1.433.167.867.167 1.3 0 .45-.05.883-.167 1.25-.1.35-.417.783-.667 1.05-.333.367-.683.683-1.1.883-.4.2-.85.284-1.3.317-.45.017-.916 0-1.35-.167-.45-.15-.866-.433-1.25-.766a10.785 10.785 0 0 1-1.4.25c-.466.05-.9.05-1.316 0a14.01 14.01 0 0 1-1.4-.467 8.07 8.07 0 0 1-1.3-.683c-1.7 1-3.6 1.95-4.634 3.7-.583.8-.7 1.716-.833 2.666-.083 1.167.217 2.4.717 3.484.183.316.333-1.15.9-1.35.95-.784 2.133-1.35 3.333-1.667 1.017-.517.883.033.467.833-.1.417-.667 2 .1 1.2 3.383-1.5 7.133-1.8 10.783-2.083 5.3-.55 10.617-.667 15.933-.733l15 .316c2.384.067 4.784.6 7.134.2.566-.15 1.45-.183 1.783-.516-1.067-.617-2.317-.634-3.5-.784H540.1c-2.65-.266-5.417-.3-7.917-1.3-.667-.266-1.283-.9-1.917-.216-.95.333-1.966.566-2.966.633-1.75.133-3.5-.233-5.117-.883 1.167-1.617 2.567-3.034 3.85-4.534a39.99 39.99 0 0 1-3.067-.633c1.817-1.25 3.5-2.667 5.267-4z"/><path d="M606.1 373.005c-3.623 2.175-6.388-1.681-9.415-2.837-2.163 1.174-2.365 5.104-4.385 6.965-2.418 2.75-5.38-.769-5.16-3.483-2.891 2.437-4.353 7.961-9.028 7.223-2.215-1.808-3.861-5.6-5.553-1.282-1.38 2.111-5.055 5.115-6.958 1.927-.59-2.815-2-6.125-3.532-1.654-1.051 3.163-4.425 5.489-7.69 4.105-1.786-1.461 1.433-6.864-.841-6.48-3.4 2.248-5.377 7.83-10.121 7.383-1.843-2.068 1.118-5.572-.903-7.868-2.385 3.062-5.032 7.545-9.158 7.867-1.994-1.615.079-6.25-1.195-6.936-4.233 2.539-8.7 7.064-14.025 5.647 2.075-7.936 10.745-10.721 18.037-11.34 12.544-1.542 25.742 1.293 37.812-3.235 1.95-1.187 6.675-2.87 4.992-5.622-1.49-2.173 3.877-1.323 4.393-3.862-.32-3.215 2.463-2.772 5.182-3.054 12.188-.526 24.227 2.041 36.379 2.477.918 5.921-5.65 10.079-10.938 8.25-2.526.41-6.314-5.807-5.571-1.285-.51 2.374-.153 5.51-2.322 7.095m-103.7-12.124c2.821 2.583 4.8-.486 7.438-1.608 8.845-3.042 16.563-8.36 24.172-13.672 4.61-3.815 8.607-8.762 14.799-10 12.078-3.651 24.916-3.208 37.04-6.579 9.232-12.64 24.913-17.149 38.048-24.415 2.95-.916 4.09-3.344 5.031-6.024 5.014-7.915 11.845-14.928 19.923-19.719 3.822-2.089 8.382-3.291 12.709-2.336-.31 5.153-3.267 9.721-6.836 13.285 2.921-.064 5.431-1.91 8.383-1.806 1.012 5.29-4.7 8.057-7.739 11.35 1.693.394 8.177.884 4.643 2.58-4.502 3.125-9.644 5.27-13.8 8.9 3.834.688 4.271 1.503.372 2.89-2.111 1.431-6.17 1.931-6.563 4.719 2.897 1.78-1.335 3.549-2.967 4.128-3.12.727-6.399 2.082-2.253 4.453-1.568 2.369-4.933 2.874-7.678 2.64.833 2.685 2.039 5.69-1.446 6.874-7.812 5.905-16.98 10.201-26.8 11.184 12.267.943 24.903-1.334 35.386-8.006 1.384-1.637 8.641-3.395 4.582-4.771-1.911-.795-6.008-1.679-6.285-3.135 5.677-3.503 12.832-2.257 18.94-4.338.158-1.978-4.646-1.428-6.437-1.878-4.272-.35-4.021-1.44.097-1.844 5.211-1.38 11.113-1.651 15.497-5.049-3.569-1.653-8.058-.198-11.866-1.548 6.455-2.825 14.071-3.108 19.863-7.352 2.638-2.935-3.38-2.018-5.134-1.946-3.575.622-5.228-1.09-1.166-2.575 6.935-5.113 15.717-8.435 20.588-15.848 1.154-1.66 2.717-6.66-.964-4.861-4.84 1.609-9.099 7.05-14.614 5.367 10.867-8.422 21.207-18.01 28.634-29.665.384-3.361-4.893-3.725-6.266-1.086-6.982 6.727-13.3 14.668-22.239 18.885 8.561-8.262 15.638-18.046 21.813-28.186 1.324-3.016 4.882-6.643 2.951-9.991-3.112-2.577-7.006-.218-8.624 2.865-5.427 7.085-9.548 15.354-16.527 21.125 6.11-11.661 12.436-24.074 12.59-37.523-.019-2.77-.575-6.847-4.335-6.33-2.98.534-2.273 4.996-3.502 7.252-2.705 9.188-3.975 19.14-9.525 27.185 1.249-7.466 3.433-15.25 1.756-22.79-.783-3.37-6.225-1.92-5.524 1.415-6.5 32.93-28.597 61.73-57.495 78.39-13.232 7.487-28.011 12.313-43.048 14.501-4.045.885-8.42.366-12.286 1.745-9.368 7.184-15.04 19.203-26.9 22.968-5.317 2.642-12.249 3.178-16.05 8.116-.329.631-.4 1.363-.387 2.064"/><path d="M537.9 327.475c-1.75 3.177-2.78 6.829-5.03 9.674-6.77-6.161-16.585-5.957-25.174-6.367-7.088-.379-14.797-1.033-20.281-6.088-5.77-4.727-10.479-10.863-16.926-14.697-5.884-1.6-11.816-3.602-16.547-7.636-10.11-8.24-15.9-20.468-25.78-28.966-1.883-1.854-4.104-3.29-6.214-4.864-2.005.489-1.097 4.816-3.551 2.61-1.335-.95-4.674-1.042-4.975.285 3.02 3.98 6.044 8.524 6.463 13.615-2.06.211-5.723-.435-6.744.332a42.127 42.127 0 0 0 10.226 10.632c-1.911.307-5.676.14-6.409.91 3.954 3.223 8.195 6.517 13.373 7.345 1.06 1.397-1.55 4.095.645 5.288 1.273.52 5.472 1.39 2.58 2.837-1.985 1.338-1.248 4.455 1.29 4.385 1.605.82 5.208 1.02 5.49 2.44-1.422 1.448-5.849 3.164-2.081 4.52 3.52 1.952 7.534 3.22 11.553 3.358-2.017 1.697-4.502 2.66-6.578 4.257 9.275 5.439 19.556 9.015 29.716 12.46 4.045 1.351 8.137 2.611 12.33 3.405-12.184-.704-23.96-4.311-35.057-9.248-5.752-2.522-11.542-4.96-17.437-7.133 2.584-1.345 5.574-1.673 8.255-2.837-5.564-1.115-11.643-1.48-16.534-4.538.75-1.338 3.591-1.401 5.163-2.082 2.955-.708 4.789-1.567.622-1.824-4.203-1.141-9.023-.629-12.726-3.164.238-1.52 4.114-.99 5.693-1.647 1.988-.342 4.198-.627 5.786-1.965-6.497-2.693-14.995-.785-20.084-6.522-1.173-2.186 3.644-.425 5.016-.79 3.487 0 7.234 1.108 10.554-.297-9.467-4.157-19.608-8.048-26.828-15.736-.801-1.236-3.203-4.612-1.265-5.03 5.62.744 9.687 6.877 15.698 5.922.798-1.076-3.492-2.84-4.563-4.379-8.764-7.52-17.27-15.682-23.413-25.533-.422-3.29 4.749-3.782 6.11-1.242 6.703 6.456 12.757 13.989 21.105 18.396 2.963 1.436-1.7-1.7-2.321-2.838-7.714-8.957-15.057-18.417-20.448-28.966-.965-1.901-2.564-5.343.323-6.355 2.886-1.446 5.75.524 7.214 3.004 5.671 7.152 9.844 15.653 16.909 21.612-6.019-11.68-12.445-23.974-12.6-37.414.141-2.605.309-6.546 3.842-6.439 2.966-.45 2.497 3.348 3.47 5.159 2.923 9.874 4.197 20.56 10.06 29.278-1.295-7.324-3.201-14.867-1.935-22.313.292-2.445 3.045-3.185 4.841-1.707 1.453 3.555 1.755 7.945 3.079 11.745 7.53 25.76 24.438 48.416 46.47 63.62 18.147 12.446 39.682 19.875 61.66 21.17 1.986.174 3.979.234 5.967.356"/><circle cx="510" cy="360.444" r="1.184"/><g id="f"><g id="e"><path d="M60 36.461s-4.805-4.038-6.437-2.013c-2.625 3.258 8.07 19.484 8.07 25.198 0 9.38-6.258 11.93-13.986 13.27-5.186.899-13.63-.376-13.63-.376 1.59-2.136 2.624-2.766 5.303-2.937-2.982-1.548-6.02-4.91-6.02-10.141 0-8.07 3.322-11.395 3.322-20.492 0-5.046-4.138-11.47-4.138-11.47 7.314.732 10.94 7.504 8.877 12.917 1.164.167 2.221-.095 3.129-.955.535 1.5-.31 3.241-1.442 4.742.912.487 1.582.195 3.034-.105-.138 1.546-1.064 3.188-3.33 4.734 6.575-1.708 10.621 2.875 10.621 7.673 0 3.624-2.54 6.222-5.022 6.222-.802 0-1.98-.331-2.645-.827-.469.997-.228 2.332.255 3.33-1.819-.481-2.974-1.562-2.152-3.811-1.397-.128-2.509-.6-3.265-1.5.766-.981 1.929-1.546 3.265-1.5-1.017-2.1.117-3.275 1.769-4.228 0 0-1.051 4.228 1.633 4.228 1.206 0 2.306-.393 2.306-2.172 0-1.548-1.354-3.693-4.484-3.557-3.129.137-5.665 2.158-5.665 7.153 0 4.608 3.717 6.9 8.615 7.048 4.416.137 7.75-2.256 7.75-6.812 0-6.064-8.754-19.887-8.754-25.29 0-4.055 3.646-6.318 7.213-6.318 4.626 0 8.529 4.58 8.529 4.58l-2.717 3.408z"/><path id="d" d="M61.01 146.07c0 10.135-9.099 15.344-16.249 15.344-9.633 0-14.762-5.76-14.762-13.299 0-4.274.783-6.956 2.753-11.046L54.83 91.243c.771-1.594 1.02-3.41 1.02-6.07 0-4.108-3.984-7.466-8.163-7.569-3.809-.095-7.959 3.551-7.959 7.706 0 5.046 2.618 7.296 5.306 7.296 3.308 0 4.626-1.36 4.626-3.682 0-1.619-.781-2.319-1.905-2.319-2.837 0-2.04 3.82-2.04 3.82-1.41-.309-2.568-1.749-1.906-3.547a5.115 5.115 0 0 1-2.755-1.637c.761-.737 1.633-1.306 2.755-1.5-.664-2.193.224-3.265 2.143-3.716-.387.844-.4 1.62-.272 2.353 3.022-.86 7.653.508 7.653 5.728 0 5.182-3.597 9.546-10.34 8.456 1.604.767 2.42 2.336 2.585 4.091-1.225-.477-2.585-.545-2.585-.545.788 1.39 1.883 2.588 1.837 5.319-1.25-.569-2.412-1.622-4.014-.956 2.515 4.95-.575 11.757-8.435 13.367 2.876-3.372 4.285-7.013 4.285-10.638 0-11.749-3.265-13.723-3.265-21.89 0-3.418 1.756-7.108 5.238-9.616v.137c-2.301-.617-3.775-1.75-4.622-3.29 5.257-1.49 12.9-1.463 17.002.152 4.717.546 8.01 4.164 8.98 6.001.97 1.837 2.855 8.477 0 14.456l-22.449 47.6c-.974 2.082-1.565 4.291-1.565 6.682 0 6.015 5.51 8.115 8.64 8.115 3.742 0 7.551-2.85 7.551-6.41 0-2.255-1.224-3.614-2.993-3.614-4.229 0-3.972 3.598-3.129 5.865-2.632-1.184-4.162-3.296-3.741-5.524-1.49-.204-2.909-.91-4.218-2.387 1.03-1.3 2.286-2.283 4.218-2.318-.844-3.456 1.47-4.918 3.741-5.728-.718 2.536-1.19 5.455 3.129 5.455 3.15 0 5.629.546 7.075 2.592l.34-13.503c.182-4.049-5.419-3.933-8.979-2.728 1.344-4.663 4.099-7.185 10.476-6.546-1.548-.648-3.197-2.104-3.197-4.91 0-3.797 3.08-8.003 5.103-9.246l1.01 39.525z"/><use xlink:href="#d" transform="matrix(1 0 0 -1 0 322.54)"/></g><use xlink:href="#e" transform="matrix(-1 0 0 1 120 0)"/></g><use xlink:href="#f" transform="matrix(1 0 0 -1 0 500)"/></g></svg>