<svg xmlns="http://www.w3.org/2000/svg" xmlns:xlink="http://www.w3.org/1999/xlink" width="1200" height="600" viewBox="0 0 378 189"><defs><clipPath id="a"><path d="M2 0h42v127.68h1.68v59.64L44 189H2Z"/></clipPath></defs><path fill="#da291c" d="M0 0h378v189H0z"/><g fill="#fff" clip-path="url(#a)"><g id="c"><path id="b" d="M9.56 0v2.94H7.67v2.94H5.36v3.36H3.68v2.73H.32V5.04h3.36V1.26H.32V0Zm5.46 16.17v3.15h-1.68v2.52h-1.68v-2.52H9.98v-3.15H8.3v-4.2h1.68V8.82h1.68V6.3h1.68v2.52h1.68v3.15h1.68v4.2zm-3.57-.21h2.1v-3.78h-2.1zM5.99 38.43h1.68v-3.78H5.99Zm11.34 0h1.68v-3.78h-1.68ZM.32 64.05h2.94v2.73h1.26v3.36h1.89v3.15h2.52v-3.15h1.89v-3.36h1.68v-2.73H9.98V60.9h4.41V63h2.73v3.57h2.31v3.99h-1.68v2.94h-1.47v2.73h-1.26v2.94h-1.89v2.52h-1.47V84H9.77v2.94H7.04v-3.15H5.15v-2.94H3.68v-1.89H.32v-4.83h3.36v-4.2H.32Z"/><use xlink:href="#b" transform="matrix(-1 0 0 1 46 0)"/><path d="M22.16 0v6.72h1.68V0h6.72v2.94h-1.68v2.94h-2.52v3.36h-1.68v2.73h-3.36V9.24h-1.68V5.88h-2.52V2.94h-1.68V0Zm-.42 57.54v-2.31h-1.26V52.5h-1.47v-2.94h-1.68v-2.94h-1.68v-2.1h-1.89v-2.94h-2.52v2.94H9.35v2.1H7.88v2.94H6.2v2.94H4.94v2.73H3.68v3.57H.32v-9.24h3.36v-4.2H.32v-6.93h3.36v2.94h2.1v2.94h2.1v-2.94h2.1v-2.94h1.68v-3.78H9.98v-2.94h-2.1v-2.94h-2.1v2.94h-2.1v2.94H.32v-8.61h3.36v-3.99H.32v-5.88h3.36v2.73h1.68v3.36h2.31v2.73h1.89v3.15h1.47v2.52h2.94v-2.52h1.47v-3.15h1.89v-2.73h2.31V18.9h1.68v-2.73h3.36v2.73h1.68v3.36h2.31v2.73h1.89v3.15h1.47v2.52h2.94v-2.52h1.47v-3.15h1.89v-2.73h2.31V18.9h1.68v-2.73h3.36v5.88h-3.36v3.99h3.36v8.61h-3.36v-2.94h-2.1v-2.94h-2.1v2.94h-2.1v2.94h-1.68v3.78h1.68v2.94h2.1v2.94h2.1v-2.94h2.1v-2.94h3.36v6.93h-3.36v4.2h3.36v9.24h-3.36v-3.57h-1.26V52.5H39.8v-2.94h-1.68v-2.94h-1.47v-2.1h-1.89v-2.94h-2.52v2.94h-1.89v2.1h-1.68v2.94h-1.68v2.94h-1.47v2.73h-1.26v2.31zm.42-35.07v5.67h1.68v-5.67zm-.84 12.18v-2.94h-2.1v-2.94h-2.1v2.94h-2.1v2.94h-1.68v3.78h1.68v2.94h2.1v2.94h2.1v-2.94h2.1v-2.94h3.36v2.94h2.1v2.94h2.1v-2.94h2.1v-2.94h1.68v-3.78h-1.68v-2.94h-2.1v-2.94h-2.1v2.94h-2.1v2.94zm.84 9.66v5.67h1.68v-5.67z"/></g><use xlink:href="#c" transform="matrix(1 0 0 -1 0 189)"/><path d="M.32 85.68h3.36v2.94h1.47v1.68h1.68v2.94H8.3v2.52H6.83v2.94H5.15v1.68H3.68v2.94H.32Zm45.36 0v17.64h-3.36v-2.94h-1.47V98.7h-1.68v-2.94H37.7v-2.52h1.47V90.3h1.68v-1.68h1.47v-2.94ZM15.02 96.39h1.68v-3.78h-1.68zm15.96 0v-3.78H29.3v3.78zM22.16 84h1.68v-3.78h-1.68zm0 21v3.78h1.68V105Zm-10.5-15.75h2.94v-2.31h2.1v-2.1h1.05v-2.1h1.26V79.8h1.68v-2.94h.84v-2.73h2.94v2.73h.84v2.94h1.68v2.94h1.26v2.1h1.05v2.1h2.1v2.31h2.94v10.5H31.4v2.31h-2.1v2.1h-1.05v2.1h-1.26v2.94h-1.68v2.94h-.84v2.73h-2.94v-2.73h-.84v-2.94h-1.68v-2.94h-1.26v-2.1H16.7v-2.1h-2.1v-2.31h-2.94zm10.5 1.89v-3.15h-1.68v-2.1H18.8v5.25h1.68v1.89h1.05v2.94h-1.05v1.89H18.8v5.25h1.68v-2.1h1.68v-3.15h1.68v3.15h1.68v2.1h1.68v-5.25h-1.68v-1.89h-1.05v-2.94h1.05v-1.89h1.68v-5.25h-1.68v2.1h-1.68v3.15z"/></g><path fill="#00af66" d="M44 126h334v63H44z"/></svg>