<svg xmlns="http://www.w3.org/2000/svg" xmlns:xlink="http://www.w3.org/1999/xlink" width="1000" height="640"><path fill="#002f6c" d="M0 0h1000v640H0Z"/><path fill="#d50032" d="M0 160h1000v320H0Z"/><g fill="#fff" stroke="#000"><g stroke-linejoin="bevel"><path stroke-width="1.44" d="M409.616 299.756h182.08v70.06h-182.08z"/><path stroke-width="1.44" d="M408.893 314.364h182.08v7.184h-182.08zm0 11.04h182.08v8.144h-182.08zm2.547 13.04v26.392h5.738v-26.392zm11.248 0v26.392h5.738v-26.392zm12 0v26.392h5.736v-26.392zm12 0v26.392h5.738v-26.392zm11.248 0v26.392h5.738v-26.392zm78.384 0v26.392h5.738v-26.392zm10.88 0v26.392h5.738v-26.392zm12 0v26.392h5.738v-26.392zm12 0v26.392h5.736v-26.392zm11.488 0v26.392h5.738v-26.392z"/><path stroke-width="1.418" d="M408.896 303.34h182.08v6.966h-182.08z"/><path stroke-linejoin="miter" stroke-width="1.266" d="M338.397 373.5c2.816-1.435 6.027-4.774 7.078-8.512h308.912c1.051 3.738 4.264 7.077 7.08 8.512z"/></g><path stroke-width="1.44" d="M496.16 193.1s-.23-6.58 3.6-6.651c3.834.07 3.6 6.651 3.6 6.651zm-19.984 87.264v-8.858c-.128-4.428-4.416-4.748-4.54-7.977 0 0-.554-4.843.722-7.053 1.735 6.475 4.89 5.286 4.89 2.624 0-2.325-1.787-4.486-5.453-10.128-1.171-1.805-.448-7.456 1.195-9.477.636 4.912 1.364 7.264 3.472 7.264 1.288 0 2.34-.838 2.34-3.299 0-3.131-2.12-4.712-3.164-7.56-1.216-3.325-.377-6.714 1.642-8.608.867 4.848.608 6.78 2.763 6.78 4.341-1.374 0-7.658-.928-9.244-1.065-1.848 1.435-5.536 1.435-5.536 1.381 4.304 1.824 4.656 3.312 4.256 1.879-.504 1.637-3.29-.656-5.54-1.446-1.425-1.292-3.54.261-5.24 1.56 3.049 3.557 2.865 3.749 1.054l-1.254-7.028h27.608l-1.37 6.8c-.392 1.944 2.234 2.368 3.866-.824 1.555 1.7 1.707 3.816.26 5.239-2.29 2.251-2.534 5.037-.656 5.54 1.488.4 1.933.049 3.312-4.255 0 0 2.245 2.512 1.436 5.536-.928 1.584-5.27 7.872-.928 9.243 2.153 0 1.896-1.933 2.761-6.78 2.021 1.895 2.858 5.284 1.642 8.609-1.04 2.848-3.162 4.428-3.162 7.56 0 2.46 1.051 3.299 2.336 3.299 2.112 0 2.84-2.352 3.477-7.264 1.64 2.02 2.365 7.672 1.194 9.475-3.664 5.642-5.453 7.803-5.453 10.128 0 2.662 3.152 3.851 4.89-2.624 1.275 2.208.72 7.053.72 7.053-.125 3.229-4.413 3.549-4.54 7.977v8.858zm11.552-73.632-.635-5h25.34l-.633 5zm1.696-5.104-.544-4.112h21.765l-.544 4.112zm3.456-4.256-.363-4.112h14.493l-.362 4.112zM545.712 373.5c-3.243-1.248-7.963-4.672-7.963-8.112v-38.875l4.22-5.373h-84.44l4.049 5.376v38.874c0 3.44-3.244 6.864-6.485 8.112z"/><path stroke-linejoin="bevel" stroke-width="1.35" d="M472.8 338.444h5.738v26.392H472.8Zm48.512 0h5.738v26.392h-5.738z"/><path stroke-width="1.44" d="M456.65 276.892v44.25h86.436v-9.532l.125-34.72c-3.533 1.39-4.153 4.592-4.153 4.592v18.845h-78v-18.843s-.87-3.203-4.407-4.592z"/><path stroke-width="1.44" d="M470.21 316.511c2.728 1.443 5.77 2.643 6.857 5.376v43.504c0 3.405-4.763 6.789-7.6 8.067l-.091.042h.005l-.005.002h61.114-.005.005l-.092-.043c-2.836-1.279-7.6-4.663-7.6-8.067v-43.504c1.087-2.733 4.128-3.933 6.858-5.376h-59.448z"/><path stroke-width="1.44" d="M538.864 316.972v-31.34h-7.856v-3.055h-62.144v3.056h-7.856v31.339zm-20.08 56.528c-2.768-1.248-6.8-4.672-6.8-8.112v-37.142l2.275-3.376h-28.304l2.272 3.376v37.144c0 3.443-4.032 6.864-6.8 8.112z"/><path stroke-width="1.472" d="M492.768 324.876h14.346v48.603h-14.346Z"/><path stroke-linejoin="bevel" stroke-width="1.35" d="M514.368 314.188c.032-3.2 9.34-3.344 14.131-6.072h-57.523c4.79 2.726 13.88 2.95 13.88 6.072l1.947 6.211 23.813.957z"/><path stroke-width="1.44" d="M525.872 280.364c0-7.84.328-10.858 2.736-10.858v24.928c-5.904 2.144-10.12 9.68-10.12 9.68h-37.136s-4.216-7.536-10.122-9.68v-24.928c2.968 0 2.988 3.156 2.988 10.858zm2.736-3.216c0-8.989 7.76-10 7.76-10v8c-2.952-.128-4.378 2.525-4.378 6.47 0 3.946 2.38 4.01 2.38 4.01v22.704h-5.76z"/><path stroke-width="1.44" d="M471.264 277.148c0-8.989-7.76-10-7.76-10v8c2.952-.128 4.378 2.525 4.378 6.47 0 3.946-2.38 4.01-2.38 4.01v22.704h5.76z"/><g fill="none"><path stroke-width="1.2" d="M486.304 215.212h27.405m-30.653 8.56h33.472m-36.72 10.384h39.846m-43.238 12.688h47.258m-48.346 14.464h48.682"/><path stroke-width="1.44" d="M460.56 308.492h77.856m-53.152.016h28.858v10.608h-28.858Z"/></g><path stroke-width="1.44" d="M481.648 285.004c4.784 5.744 4.34 15.488 4.288 21.232h27.747c-.056-5.744-.499-15.488 4.285-21.232zm15.6-65.808-3.802-1.958v-5.596c1.552.464 3.3.656 3.47 3.133.54-3.536 1.516-3.363 3.05-4.74 1.532 1.375 2.508 1.204 3.048 4.74.172-2.477 1.916-2.667 3.472-3.136v5.597l-3.804 1.958z"/><path stroke-width="1.44" d="m496.992 228.38-6.314-4.34v-5.158c2.213.512 4.698.72 4.941 3.44.771-3.878 2.16-5.881 4.344-7.392 2.184 1.51 3.573 3.514 4.344 7.392.243-2.72 2.728-2.928 4.944-3.44v5.157l-6.317 4.341z"/><path stroke-width="1.44" d="m496.544 242.7-7.26-6.376v-7.578c2.543.752 5.402 1.06 5.682 5.05.885-5.696 2.484-8.64 4.992-10.86 2.512 2.22 4.112 5.162 4.997 10.858.28-3.99 3.136-4.297 5.68-5.05v7.575l-7.257 6.376zm13.392 8.464-6.566 9.082h-7.434l-6.566-9.082zm-24.352 15.248c3.285 1.795 4.496 5.371 4.848 12.085h18.48c.352-6.714 1.563-10.288 4.848-12.085z"/><g stroke-linejoin="bevel" stroke-width="1.35"><path d="M514.304 251.164v-9.123c-3.12.859-5.14 2.704-6.042 5.213 0-3.03-3.984-10.012-8.33-13.488-4.36 3.89-8.412 10.208-8.33 13.488-.741-2.388-2.92-4.352-6.04-5.213v9.123z"/><path d="M515.688 266.412v-9.123c-3.42.859-5.635 2.704-6.624 5.213 0-3.03-4.368-10.013-9.131-13.488-4.778 3.89-9.221 10.208-9.131 13.488-.813-2.388-3.204-4.352-6.624-5.213v9.123z"/><path d="M519.533 285.132v-10.523c-4.256 1.099-6.9 4.245-8.24 6.08 0-5.696-6.432-14.384-11.36-17.229-5.056 2.92-11.36 11.896-11.36 17.229-1.376-1.824-3.984-4.981-8.24-6.08v10.523z"/><path d="M517.229 308.492v-10.82c-3.754 1.473-4.877 5.089-6.058 7.548.464-10.976-6.179-22.768-11.238-25.76-5.061 2.992-11.829 15.04-11.239 25.76-1.212-2.443-2.304-6.075-6.057-7.547v10.819z"/></g><path stroke-width="1.44" d="M514.597 324.876v-10.82c-3.933.937-4.176 2.385-5.427 4.81.464-6.555-4.176-14.032-9.237-17.024-5.061 2.992-9.703 10.47-9.239 17.024-1.248-2.424-1.403-3.872-5.424-4.81v10.82z"/><g id="a" stroke-width="1.44"><path d="M345.656 364.988v-32.704c-1.072-4.165-4.608-7.848-7.264-8.586v-28.79l5.984 3.238 6.835 30.096v36.746z"/><path d="M345.656 365.116v-32.832c-1.072-4.163-4.608-7.846-7.264-8.584v-30.789c4.016 0 5.984 5.237 5.984 5.237l6.835 30.096v36.62z"/><path d="M341.4 373.5c2.768-1.248 6.8-4.672 6.8-8.112v-40.875l-1.9-3.373h69.638l-2.717 3.373v40.875c0 3.44 2.768 6.864 5.536 8.112z"/><path d="M404.704 373.5c-2.768-1.248-6.8-4.672-6.8-8.112v-38.875l5.792-5.376-47.34.003 5.791 5.373v38.875c0 3.44-4.032 6.864-6.8 8.112z"/><path d="M398.304 373.5c-2.768-1.248-6.8-4.672-6.8-8.112v-35.144l3.792-5.376h-30.077l3.792 5.376v35.144c0 3.44-4.032 6.864-6.8 8.112z"/><path d="M373.088 324.876h14.37v48.629h-14.37Z"/><path stroke-linejoin="bevel" stroke-width="1.35" d="M353.28 338.444h5.738v26.392h-5.738Zm47.757 0h5.737v26.392h-5.737zm-52.653-44.512h6.912v27.056h-6.912zm0-5.088h6.872v5.024h-6.872z"/><path stroke-linejoin="bevel" stroke-width="1.55" d="M405.232 299.756h9.856v20.886h-9.856z"/><path d="M355.184 320.78v-46.304c1.971 0 2.275 6.784 6.8 6.784 2.352 0 2.102-2.81.78-5.1-1.17-2.028-2.618-4.828-.65-10.047 1.35 3.993 4.98 5.26 4.31 2.757-1.152-4.301-4.472-5.008-1.984-11.684.867 5.568 4.438 5.324 3.571 2.087-.976-3.648-2.997-5.143-.505-10.285 1.396 5.84 3.283 5.496 3.283 1.872 0-5.354-.205-11.13 6.725-13.272 0 0 .4-4.909 2.899-4.909s2.9 4.909 2.9 4.909c6.929 2.144 6.724 7.92 6.724 13.274 0 3.624 1.888 3.968 3.283-1.872 2.493 5.142.472 6.636-.504 10.284-.87 3.237 2.704 3.484 3.568-2.086 2.49 6.675-.829 7.382-1.984 11.683-.669 2.504 2.96 1.237 4.31-2.755 1.968 5.216.52 8.016-.65 10.048-1.322 2.288-1.574 5.1.783 5.1 4.522 0 4.826-6.785 6.797-6.785v46.304zm-10.826-34.976v35.328h4.016v-35.418c-1.446-.73-2.806-.843-4.016.09z"/><path d="M344.485 308.668c4.979 2.544 9.912 5.493 11.16 12.469h-11.16zm69.067-10.576v23.051h3.256v-23.109c-1.016-.476-2.405-.552-3.256.058z"/><path d="M416.816 308.492c-4.98 2.544-9.912 5.493-11.16 12.469h11.16zm-32.928-53.84 2.902-2.44v-3.125c-1.062.104-1.641.469-2.425 1.498-.667-2.072-2.135-3.688-4.1-4.693-1.967 1.005-3.433 2.549-4.1 4.62-.784-1.03-1.363-1.32-2.426-1.425v3.125l2.904 2.44z"/><path d="m385.442 262.476 1.348-2.92v-4.064c-1.062.107-1.641.477-2.425 1.52-.667-2.1-2.135-3.74-4.1-4.758-1.967 1.019-3.433 2.585-4.1 4.684-.784-1.04-1.363-1.337-2.426-1.443v4.064l1.35 2.919z"/><path d="m385.643 273.084 4.312-5.26v-5.188c-1.577.176-2.438.805-3.603 2.57-.992-3.556-3.168-4.333-6.09-6.058-2.918 1.725-5.097 2.376-6.088 5.931-1.166-1.765-2.027-2.265-3.6-2.443v5.189l4.308 5.259z"/><path d="M386.909 283.5s5.024-4.384 5.321-6.79v-5.548c-1.947.228-3.788.733-5.227 3.012-1.222-4.592-3.136-5.872-6.737-8.1-3.607 2.228-5.517 3.508-6.741 8.1-1.44-2.28-3.28-2.784-5.226-3.013v5.545c.632 2.407 5.32 6.79 5.32 6.79z"/><path d="M389.05 302.732s6.88-7.616 7.04-10.586v-8.65c-2.576.358-5.01 2.129-6.912 5.68-1.618-7.158-4.144-12.15-8.912-15.622-4.768 3.472-7.296 8.464-8.912 15.624-1.904-3.555-4.34-5.328-6.914-5.683v8.65c.493 2.968 7.04 10.585 7.04 10.585z"/><path d="M389.05 314.108s5.883-5.987 7.04-8.586v-8.65c-2.576.358-5.01 2.129-6.912 5.68-1.618-7.158-4.144-11.257-8.912-14.729-4.768 3.472-7.296 7.571-8.912 14.731-1.904-3.556-4.34-5.328-6.914-5.683v8.65c1.493 2.598 7.04 8.585 7.04 8.585z"/><path d="M391.728 320.716c-1.715-7.469-3.192-13.008-11.46-18.624-8.268 5.616-9.743 11.155-11.462 18.624z"/><path d="M395.886 324.876v-10.82c-3.753 1.473-7.147 3.649-8.4 6.073-1.395-6.007-4.09-8.653-7.443-12.288-3.355 3.635-5.6 6.281-7 12.288-1.251-2.424-4.643-4.6-8.4-6.072v10.819z"/></g><use xlink:href="#a" transform="matrix(-1 0 0 1 999.904 0)"/><path stroke-width="1.44" d="M330.42 373.068v9.877h339.023v-9.879zm-6.138 9.968v12.88h351.296v-12.88zm351.296 12.88-351.296.096-10.27-.096v16.995H685.85V395.92zm-371.91 17.104.004 20.016H696.2l-.003-20.016ZM696.2 433.036v.032H303.672v-.032h-10.347v20.016H706.54v-20.016z"/><path stroke-width="1.568" d="M367.216 373.116h25.608v79.896h-25.608z"/><path stroke-width="1.565" d="M372.88 373.116h14.267v79.898H372.88Z"/><path stroke-width="1.568" d="M487.136 373.116h25.61v79.896h-25.61Z"/><path stroke-width="1.565" d="M492.8 373.116h14.266v79.898H492.8Z"/><path stroke-width="1.568" d="M606.864 373.116h25.608v79.896h-25.608z"/><path stroke-width="1.565" d="M612.528 373.116h14.267v79.898h-14.267Z"/><path fill="none" stroke-width="1.44" d="M345.656 364.988h308.912m-281.952 77.984h14.79m-14.79-10h14.79m-14.79-10h14.79m-14.79-10h14.79m-14.79-10h14.79m-14.79-10h14.79m-14.79-10h14.79m105.178 60.016h13.771m-13.771-10.005h13.771m-13.771-10.006h13.771m-13.771-10.005h13.771m-13.771-10.005h13.771m-13.771-10.005h13.771m-13.771-10.006h13.771m105.909 60.016h14.79m-14.79-10h14.79m-14.79-10h14.79m-14.79-10h14.79m-14.79-10h14.79m-14.79-10h14.79m-14.79-10h14.79"/></g></svg>