<svg xmlns="http://www.w3.org/2000/svg" xmlns:xlink="http://www.w3.org/1999/xlink" width="900" height="600"><defs><clipPath id="c"><path d="m476.928 268.244-.837.026c-6.14 0-20.398-3.148-25.895-7.87-5.758 4.363-20.252 7.87-26.294 7.87a4.562 4.562 0 0 1-.842-.086l.142 4.099c.318 4.85 1.17 9.714 2.46 14.396 4.065 14.736 12.385 27.26 24.31 36.76 11.936-9.508 20.267-22.042 24.339-36.79a72.393 72.393 0 0 0 2.468-14.396 79.76 79.76 0 0 0 .146-4.013z"/></clipPath></defs><path d="M0 0h900v600H0z"/><path fill="#fff" d="M0 0h900v400H0z"/><path fill="#c8102e" d="M0 0h900v200H0z"/><g fill="#fff" stroke="#c5a900"><path stroke-linejoin="round" stroke-width="1.27" d="m450.805 302.403 68.488 63.579-4.876-115.47c-.717-17.5-15.924-13.485-26.971-7.172-11.191 7.172-23.958 7.172-37.446 2.437-13.485 4.735-26.253 4.735-37.444-2.437-11.046-6.313-26.252-10.328-26.97 7.172l-4.879 115.47z"/><path id="a" fill="#c5a900" stroke="none" d="m393.465 246.493-4.734 112.32-8.035 7.167 4.879-115.47c2.294-1.577 6.313-4.016 7.89-4.016zm9.62 8.04-4.017 93.955-8.032 8.22 4.877-108.49c1.579 1.577 6.314 5.45 7.172 6.31zm8.75 7.17-3.155 78.361-6.455 6.31 4.018-89.405c1.574 1.578 4.73 3.874 5.592 4.734zm9.47 4.02-3.156 66.786-6.313 5.12 3.156-74.344c1.579.717 4.735 2.438 6.313 2.438zm8.75 0-2.297 55.657-6.455 6.313 2.44-61.252c1.575 0 5.593 0 6.312-.718z"/><use xlink:href="#a" transform="matrix(-1 0 0 1 899.99 0)"/><path fill="#c5a900" stroke-width="1.074" d="m453.155 315.063 9.612 43.755-3.157 3.155-3.3-2.439-5.451-39.018 2.295 39.018-3.157 4.016-3.156-4.016 2.296-39.018-5.45 39.018-3.303 2.439-3.154-3.155 9.61-43.756h6.315z"/><g id="b" fill="none" stroke-linejoin="round"><path fill="#fff" stroke-width="1.189" d="m428.475 295.843-19.08 67.705 26.255 4.017 11.188-50.924-18.363-20.798z"/><path stroke-width="1.27" d="m422.165 318.943 2.295 5.593 12.405-11.849"/><path stroke-width="1.27" d="m430.755 304.923 2.595 24.346 7.89-10.328m-3.155 4.012 4.31 14.875m1.69-5.465-8.718 13.24m2.719 13.217-2.79-13.198-2.436-13.423-5.84 7.909-2.562-9.12-8.174 8.385 4.157 15.251 5.738-9.434 3.155 9.612 5.89-9.162m-20.24 16.333 5.3-7.444 3.453 11.457 4.734-8.032 3.158 9.613"/></g><use xlink:href="#b" transform="matrix(-1 0 0 1 899.99 0)"/><g stroke-linejoin="round"><path stroke-width="2.378" d="M449.995 393.813c19.943 0 39.024-1.578 50.213-4.734 4.735-.86 4.735-3.298 4.735-6.456 4.735-1.577 2.295-7.17 5.594-7.17-3.3.862-4.015-5.594-8.033-4.732 0-5.596-5.595-6.313-10.33-4.737-9.47 3.157-26.254 3.875-42.18 3.875-15.924-.718-32.566-.718-42.178-3.875-4.735-1.576-10.327-.86-10.327 4.737-4.019-.862-4.736 5.595-8.034 4.732 3.298 0 .859 5.593 5.594 7.17 0 3.158 0 5.597 4.878 6.456 11.045 3.156 30.128 4.734 50.067 4.734z"/><g stroke-width="1.27"><path d="M422.885 363.543c6.454.86 13.628 1.577 19.225.86 3.153 0 5.45 5.451-.863 6.314-5.593.715-14.345 0-19.08-.863-4.017-.717-12.768-2.294-18.364-3.875-5.595-2.436-1.576-7.168 1.577-6.452 4.88 1.577 11.192 3.156 17.506 4.016zm54.23 0c-6.457.86-13.628 1.577-19.081.86-3.301 0-5.596 5.451.717 6.314 5.595.715 14.347 0 19.078-.863 4.019-.717 12.769-2.294 18.364-3.875 5.596-2.436 1.58-7.168-1.578-6.452-4.877 1.577-11.19 3.156-17.5 4.016z"/><path d="M403.085 360.393c-4.877-.862-7.173 4.731-5.593 7.886.716-1.577 4.016-1.577 4.735-3.155.858-2.437-.719-2.437.858-4.731zm19.08 14.67c0-3.153 3.154-2.765 3.154-5.922 0-1.577-.859-4.017-2.437-4.017-1.577 0-3.157 1.578-3.157 3.155-.718 3.157 2.44 3.631 2.44 6.784zm22.71-9.08c4.73 0 4.261 6.314 1.965 9.47 0-2.296-4.016-3.156-4.016-4.732 0-2.442 3.626-2.442 2.05-4.738zm52.03-5.59c4.877-.862 7.174 4.731 5.595 7.886-.718-1.577-4.017-1.577-4.734-3.155-.861-2.437.718-2.437-.861-4.731zm-19.08 14.67c0-3.153-3.153-2.765-3.153-5.922 0-1.577.859-4.017 2.437-4.017 1.578 0 3.157 1.578 3.157 3.155.717 3.157-2.441 3.631-2.441 6.784zm-22.71-9.08c-4.733 0-4.263 6.314-1.968 9.47 0-2.296 4.016-3.156 4.016-4.732 0-2.442-3.626-2.442-2.048-4.738z"/></g><path stroke-width=".891" d="M404.665 361.973c1.58 0 4.017.717 4.735 1.577l-4.74-1.58zm7.88 2.44c.862 0 4.018.716 5.596 1.575l-5.6-1.58zm28.7 3.15c-1.578 0-4.734 0-5.593.715l5.59-.72zm-8.75 0c-.859-.863-4.017-.863-5.594 0h5.59zm62.84-5.59c-1.578 0-3.875.717-4.736 1.577zm-7.89 2.44c-.86 0-4.018.716-5.596 1.575l5.6-1.58zm-28.7 3.15c1.58 0 4.735 0 5.595.715l-5.6-.72zm8.75 0c.86-.863 4.018-.863 5.595 0h-5.6z"/></g><path fill="#c5a900" stroke="none" d="M403.335 374.583c-.534-.102-.815-.525-.68-1.025.164-.609.651-.957 1.112-.794.293.103.83.644.832.838.003.223-.28.753-.402.754-.053 0-.135.047-.182.102-.1.118-.413.176-.68.125zm54.93 3.92c-.199-.074-.516-.519-.515-.724.002-.387.574-1.018.929-1.021.175-.002.655.248.834.434.325.338.254.893-.154 1.208-.201.155-.8.211-1.094.102zm.36 2.48c-.42-.143-.574-.348-.608-.814-.036-.485.011-.561.524-.84l.366-.2.346.155c.48.214.694.444.71.767.019.348-.24.703-.64.883-.351.157-.372.159-.698.049zm-50.88-10.89c-.346-.011-.821.307-1.094.468-.65.153-1.405.551-2.031.125-.617-.19-1.438-.04-1.532.72.159.651 1.072 1.023 1.626.593.41-.538 1.531-.853 1.656.062-.457.693-.405 1.61-.781 2.344-.062.458-.252.893-.5 1.281-.463.047-.954-.008-1.344.282-.626.034-1.265.345-1.625.875-.404.578-.789 1.165-.907 1.875.108.725.938.932 1.563.968.667.184 1.334.425 2 .626 1.085.242 2.102.635 3.188.874 1.584.478 3.248.698 4.843 1.125.168.056.324.104.5.125.663.138 1.008-.582 1.063-1.125.328-1.16.58-2.339.906-3.5.225-.465.496-1.517-.406-1.28-.515.308-.952.773-1.594.812-.874.05-.375.945-.031 1.312.076.588-.11 1.29-.5 1.75-.52.33-1.172-.056-1.719-.187-.575.01-1.723-.284-1.187-1.063.19-.577.207-1.208.437-1.78.294-.616.336-1.286.469-1.938-.362-.778-.979.255-1.469.343-.338.235-1.605.334-.938.938.576.437.135 1.196.032 1.75-.037.77-.838.954-1.47.781-.627-.03-1.5-.498-.968-1.188.121-.575.322-1.14.438-1.718l.687-2.063a5.78 5.78 0 0 1 .625-1.75c.018-.685.478-1.275.469-1.969-.047-.338-.199-.462-.406-.468zm-3.594 7.25a.354.354 0 0 1 .219.03c.25.107.257.31 0 .532-.113.097-.24.19-.282.188-.467-.04-.605-.11-.624-.282-.018-.151.03-.194.343-.344a1.39 1.39 0 0 1 .344-.124zm-1.036 5.02c-.496-.466-.416-.807.317-1.354.314-.233.504-.207.863.12.553.504.575.823.087 1.255-.24.214-.346.257-.627.26-.293.003-.377-.033-.64-.281zm3.05.92a.86.86 0 0 1-.623-1.088c.129-.435.203-.477.84-.484.715-.007.854.113.86.742.005.354-.022.437-.199.6-.207.193-.605.297-.878.23zm89.11.08c-.227-.19-.273-.275-.276-.515-.003-.41.234-.712.746-.944.682-.309.96-.266 1.217.186.341.601.325.847-.084 1.252-.226.223-.268.236-.785.242-.507.003-.565-.01-.818-.221zm-85.06 1.15c-.364-.098-.553-.37-.557-.807-.004-.334.02-.387.253-.57.152-.118.39-.22.579-.245.267-.037.364-.014.579.137.55.387.667.77.349 1.142-.34.395-.662.487-1.203.342zm21.92.98c-.081-.101-.26-.16-.278-.288.032-.554.059-1.116.236-1.647.096-.524.011-1.07.194-1.58.187-.926.187-1.882.402-2.803.01-.474.055-.949.192-1.405.158-.722.014-1.477.227-2.19-.023-.268.285-.983.556-.56.393.577.911 1.046 1.42 1.516.439.253.037.625-.266.75-.415.164-.516.62-.486 1.022-.059.415-.225.807-.242 1.23-.088.622-.07 1.255-.151 1.876-.183.61-.113 1.26-.174 1.888.008.399-.181.76-.155 1.16-.048.406-.067.895-.407 1.173-.329.166-.804.137-1.068-.142zm29.7-9.8c-.483.364-.914.795-1.344 1.219-.593.448.487.71.625 1.093.157.586.148 1.21.187 1.813a4.57 4.57 0 0 1 .22 1.719c-.053.622-.864.49-1.22.843-.491.207-.688.69-1.062 1.031-.246.483-.312 1.077-.344 1.625.035.448-.302.95 0 1.344.04.056.085.132.125.188.101.145.343.03.5.062.504-.028 1.029.047 1.5-.156 1.21-.21 2.431-.226 3.656-.281.75.024 1.47-.237 2.22-.219.586.13.85-.506.843-.969-.332-.653-.045-1.428-.313-2.094-.235-.672-.142-1.428-.25-2.124-.014-.549-.71-.752-1.062-.344-.342.345-.893.414-1.156.844-.297.602.627.603.78 1.062.177.464.12.98.157 1.469.114.592-.53.626-.937.687-.537.201-1.29.336-1.594-.312-.191-.48-.165-.993-.219-1.5-.013-.892-.228-1.769-.281-2.656-.051-1.097-.24-2.187-.312-3.282-.01-.455-.071-1.198-.72-1.062zm-.625 8.25.312.03.031.376.031.375-.406.125a3.315 3.315 0 0 1-.406.093 2.55 2.55 0 0 1-.187-.125c-.22-.158-.164-.385.124-.687.163-.17.24-.203.5-.187zm-29.965-9.28c-.38.135-.863.693-1.25.687-.88.062-.757.92-.125 1.219.083.26.005.588.03.875.124.79-.374 1.425-.28 2.219-.045.87-.307 1.717-.344 2.593-.247.904-.25 1.832-.406 2.75-.105.824-.7.533-1.22.313-.003-.357-.026-.706-.03-1.062.216-.818-.441-1.056-1.094-1.157-.686.065-1.023-.523-.875-1.125.295-.35 1.036-.253 1.5-.312.981.203.942-1.112.437-1.563-.344-.635-1.198-.909-1.437-1.562.096-.867-.48-1.733-1.187-2.156-1.089-.077-1.91.863-2.313 1.78a16.21 16.21 0 0 0-1.344.438c-.709.178-1.72 1.407-.75 1.875.544.15 2.2.528 1.469 1.281-.412.708-1.201.72-1.906.532-.724 0-1.53-.352-1.5-1.188-.148-.75-.124-1.558-.469-2.25-.149-.839-1.1-.643-1.156.125-.734.534-.636 1.398-.125 2.032.319.728.003 1.577-.312 2.25-.192.874-1.157.904-1.844 1.187-.338.131-1.629-.078-1.157.656.753.266 1.653.505 2.438.312.823-.101 1.537-.664 1.937-1.374.553-.56 1.502-.267 2.22-.282.772-.002 1.562.543 2.311.188.218-.564 1.222-1.496 1.532-.531-.053.862.71 1.325 1.5 1.219.864-.05.544.61.531 1.124.057.935.66 1.425 1.437 1.813.266.071.545.047.813 0 .748-.235 1.554-.569 1.781-1.406.304-.68.311-1.451.532-2.156.177-1.13.405-2.26.437-3.407.276-1.038.197-2.136.406-3.187.133-.782.23-1.563.313-2.344-.092-.417-.272-.487-.5-.406zm-6.781 4.156c.151.018.235.204.25.531.016.364.206.66.437.719.182.045.167.239-.031.375-.115.08-.321.127-.688.125-.578-.003-.936-.153-1.25-.469l-.187-.187.281-.188a6.429 6.429 0 0 0 .563-.5c.285-.29.473-.425.625-.406zm66.03-7.877a8.363 8.363 0 0 0-1.656.25c-1.04-.064-1.562 1.028-.562 1.563.601 1.534 1.54-.317 2.5-.187 1.437.28 1.559 1.832 1.781 3 .081 1.156.414 2.281.75 3.375.962 1.07-.72 1.74-1.437.906-.612-.665-1.92-1.48-2.656-.563-.904.383-.941 1.59-1.688 1.938-1.21.368-1.361-1.12-2-1.75-.587-.825-1.71-.897-2.625-1.188-.429-.868-.205-2.345-1.094-2.937-.746.304-2.113 1.702-.969 2.344 1.118.96-.487 1.4-1 2.062-.731.815-.848 1.936-.968 2.969-1.26.696-1.505-.788-1.657-1.719-.097-1.111-1.035-.785-1.687-.375-.953.386-1.428 1.29-2.094 2-.08.648.038 1.357.031 2.031.217.812 1.203.43 1.813.375.979-.41 1.38.628.594 1.22-.532.675-2.22.322-2.063 1.405.544.064 1.11.043 1.656 0 1.09-.298 2.262-1.067 2.375-2.28.144-1.06 1.668-.866 2.5-1.095 1.041-.3 2.295-.377 2.532.938.709.745 2.248 1.584 3.03.562.795-.485 1.177-1.337 1.126-2.25-.162-.784 1.268-.813 1.625-.375.521.858 2.15.605 2.937.125.836-.617 1.018-1.705 2.22-1.718 1.781-.534 3.633-.842 5.374-1.5 1.41-.308-.21-1.198-.562-1.72-1.074-.53-2.009 1.643-3.22.563-.935-.716-.871-2.076-1.218-3.125-.237-1.357-.177-2.922-1.156-4-.673-.715-1.586-.887-2.532-.843zm-6.812 9.47c.126-.004.268.059.5.187.438.242.75.643.75.969 0 .212-.054.227-.375.375-.197.09-.421.188-.5.187-.18-.002-.624-.357-.625-.5 0-.06-.058-.286-.125-.468-.118-.321-.1-.317.063-.532.103-.137.186-.215.312-.219zm6.531.343c.373-.024.594.092.75.375.182.329.059.581-.406.781-.203.088-.407.16-.437.157-.03-.003-.199-.103-.375-.22-.27-.177-.31-.263-.313-.468-.003-.315.35-.597.781-.625zm-8.937.094c.109-.017.208.04.344.156.18.155.236.279.28.594.032.219.027.502 0 .625-.048.226-.052.216-.562.219-.64.006-.7-.064-.687-.657.008-.376.012-.478.219-.687.16-.162.297-.233.406-.25zm-5.5 1.437a.57.57 0 0 1 .437.438c.066.317.008.462-.25.594-.222.113-.734.15-.875.062a.613.613 0 0 1-.187-.188c-.068-.12-.056-.179.031-.25.06-.049.126-.12.125-.156 0-.036.067-.163.156-.28a.543.543 0 0 1 .563-.22zm9.25 1.188c.178 0 .328.06.437.156.186.162.18.4-.03.563-.136.104-.873.094-1.126 0-.113-.043-.156-.1-.156-.22-.002-.14.037-.227.281-.343.205-.097.416-.155.594-.156zm-17.171 4.819c-.096-.063-.238-.117-.095-.222.173-.302.518-.407.824-.52a3.434 3.434 0 0 0 1.374-1.118c.05-.333.424-.514.422-.862.003-.475.031-.962-.085-1.426-.128-.426-.451-.752-.826-.974-.257-.201-.674-.257-.769-.614-.052-.343.254-.604.36-.909.224-.422.412-.864.652-1.275.259-.288.659-.016.793.262.189.278.356.576.45.898.303.332.57.72.68 1.162.148.31.383.602.369.966 0 .416.235.787.22 1.206.013.56.013 1.145-.192 1.674-.14.294-.42.47-.606.732-.32.296-.67.58-1.08.737-.289.092-.457.425-.82.344-.514.01-1.036.08-1.546-.004.032.054-.157-.091-.125-.057zm-6.85.45c-.243-.25-.295-.356-.298-.6-.003-.248.044-.346.282-.587.438-.442.653-.453 1.409-.07.723.366.968.4 1.032.14.063-.25.48-.48.875-.48a.82.82 0 0 1 .592.203c.25.196.263.226.27.68.003.462-.003.48-.291.735-.277.244-.322.26-.665.225-.438-.044-.7-.244-.771-.589-.052-.25-.14-.31-.205-.14-.021.055-.13.123-.24.15-.203.052-.548.269-.793.5-.093.088-.256.13-.52.132-.355.003-.404-.018-.677-.3zm-19.82-8.9c-.665.007-1.38.566-1.469 1.218.152.753.777 1.49.375 2.282.277 1.013-.761 1.397-1.469.812-.427-.971-.643-2.036-1.281-2.906-.804-.228-1.155 1.057-1.719 1.5.28.755 1.096 1.432 1.188 2.375.195.915-.362 1.93-1.157 2.406-.685.655-1.625.42-2.468.563-1.024.598.751.817 1.219.843 1.047.107 2.135-.031 2.906-.812.769-.367.71-1.697 1.625-1.844 1.588-.07 3.162.244 4.75.281.849.204 2.163-.1 2.75.532.002 1.107.94 1.79 1.843 2.218.5.14 1.025-.48 1.532-.594.965-.307.671-1.501 1.25-1.968 1.65-.09 3.316-.07 4.968-.094.315.008.408-.44.625-.625-.036-.639-.059-1.273-.156-1.906-.318-.807.052-1.845-.531-2.531-.83-.227-1.536.533-2.375.593-.926.413-1.706 1.268-1.75 2.313-.548.896-1.428-.16-1.125-.906-.035-.326.07-.705-.031-1-.507-.609-1.395-.41-2.094-.5-1.019.04-2.013-.18-3.031-.156-.893-.068-1.822.077-2.688-.157-1.031-.03-.89-1.038-1.062-1.75a1.017 1.017 0 0 0-.625-.187zm2 3.687c.343.007.666.052 1 .094.43.07.89-.148 1.312 0 .977.166 1.954.127 2.938.219.26-.004.446.184.625.343v2.063c-.03.257.076.598-.157.781a.698.698 0 0 1-.25.125c-.27-.07-.557-.248-.687-.5-.041-.357.018-.704.031-1.062-.007-.093.04-.237 0-.313a1.247 1.247 0 0 0-.719-.25c-.849-.03-1.682-.092-2.531-.125-.707-.044-1.433.06-2.125-.125-.268-.098-.618-.064-.78-.344-.235-.272.103-.596.343-.718a2.281 2.281 0 0 1 1-.188zm11.28.25c.16-.002.21.05.282.344l.125.5c.036.118-.022.156-.187.219-.495.186-.986.167-1.157-.063-.077-.104.013-.434.157-.562.29-.26.61-.437.78-.438z"/><path stroke-width="1.218" d="M462.304 253.093c.667.04-.902-3.568-.902-3.568 1.765 1.804 8.43 2.235 8.43 2.235-4-1.766-7.998-15.096-7.528-25.721.432-10.664-1.528-14.86-3.097-16.428-2-2-8.43-3.764-12.663-4-2.392-.117-2 1.804-2 1.804-4.43-1.137-8.86-1.568-10.86-.235-1.883 1.255-2.275 7.528-.902 6.43 3.332-2.666 6.234-.235 8.233 2.666 1.764 2.549 1.647 9.763-.902 18.192-2.666 8.86-9.96 17.722-9.96 17.722 3.96 0 9.529-3.528 9.529-3.528l-1.333 5.528c4.195-2 7.528-5.097 7.528-5.097l3.998 4.195c1.333-1.764 4-4.195 4-4.195s3.332 3.529 8.43 4z"/><path fill="none" stroke-width="1.27" d="M446.115 227.573s-2.235 16.428-6.43 21.094m9.96-21.524s-.864 16.623-3.764 21.956m6.893-21.286s0 18.192 1.098 21.289m2.862-20.39s.902 15.292 4.666 20.82"/><path fill="#c5a900" stroke-width=".354" d="M442.075 219.613c-.196-1.45-.55-2.588-1.06-3.333-2-2.901-4.9-5.332-8.232-2.666 0 0 1.137-3.53 3.568-3.646 1.882-.118 6.155 1.41 9.92 7.84 0 0-2.784-.626-3.45-.038-1.256 1.098-.746 1.843-.746 1.843zm-9.64-10.35c.274-.902.706-1.725 1.255-2.078 2-1.333 6.43-.902 10.86.235 0 0-.393-1.921 2-1.803 4.233.235 10.663 2 12.662 3.999.47.51 1.02 1.255 1.49 2.39h-.078c-.98-1.371-3.764-1.292-4.43-1.214-1.06.118-1.726.078-3.138.43-.666.158-1.686.354-2.235.785-.43.353-.784 1.647-1.45 1.647-1.059 0-.98-.274-1.255-.588-.353-.431-.549-1.06-.902-1.02-1.097.197-2.862-.666-5.095-2.43-2.234-1.764-3.098-2.196-6-2-2.861.235-3.763 1.843-3.763 1.843z"/><circle cx="448.818" cy="210.675" r="1.176" stroke="none"/><path stroke-width="1.15" d="M449.975 327.233c32.642-25.106 29.843-61.883 29.843-61.883-.861.172-1.68.258-2.54.258-6.848 0-23.179-3.917-26.989-8.893-4.08 4.503-20.77 8.893-27.574 8.893-.86 0-1.722-.086-2.54-.258 0 0-2.842 36.776 29.8 61.883z"/><path fill="none" stroke-width=".916" d="m477.215 268.042-.848.027c-6.205 0-20.619-3.184-26.175-7.958-5.82 4.41-20.47 7.958-26.576 7.958a4.7 4.7 0 0 1-.85-.087c-.014 1.391.058 2.833.145 4.144.323 4.9 1.183 9.819 2.487 14.552 4.109 14.895 12.516 27.553 24.572 37.155 12.067-9.61 20.484-22.28 24.602-37.186 1.307-4.732 2.169-9.65 2.495-14.55.076-1.372.153-3.052.148-4.055z"/><g stroke="none" clip-path="url(#c)"><path fill="#c5a900" d="M422.608 259.763h18.259v64.309h-18.26z"/><path d="M440.867 259.763h18.259v64.309h-18.26z"/><path fill="#c5a900" d="M459.126 259.763h18.259v64.309h-18.26z"/></g></g></svg>